<svg width="160" height="317" viewBox="0 0 160 317" fill="none" xmlns="http://www.w3.org/2000/svg">
<path d="M10.7495 311.228C10.7495 311.228 10.7586 311.182 10.7586 311.155V311.009C10.7586 310.524 10.6488 310.14 10.4201 309.838C10.1914 309.536 9.85294 309.316 9.39553 309.179C8.93812 309.042 8.37093 308.978 7.68481 308.978C7.25484 308.978 6.86147 309.015 6.51384 309.088C6.1662 309.161 5.85516 309.271 5.58072 309.417C5.30627 309.563 5.08671 309.765 4.8946 309.993C4.71163 310.231 4.56526 310.515 4.46463 310.844C4.364 311.173 4.31826 311.557 4.31826 311.996C4.31826 312.436 4.364 312.838 4.46463 313.176C4.56526 313.515 4.71163 313.817 4.90375 314.073C5.09586 314.329 5.33371 314.539 5.61731 314.695C5.89176 314.85 6.21194 314.969 6.56873 315.052C6.92551 315.134 7.30973 315.17 7.74885 315.17C8.48071 315.17 9.06619 315.088 9.51446 314.924C9.96272 314.759 10.2829 314.53 10.4842 314.228C10.6854 313.926 10.7861 313.57 10.7861 313.131V313.021C10.7861 313.021 10.7861 312.929 10.7769 312.893C10.8958 312.893 11.0056 312.893 11.1154 312.893C11.2252 312.893 11.335 312.893 11.4447 312.893H11.7924C11.9662 312.893 12.14 312.893 12.3047 312.893C12.4693 312.893 12.6432 312.893 12.817 312.893C12.817 312.929 12.817 312.966 12.8078 313.003C12.8078 313.039 12.8078 313.085 12.8078 313.131C12.8078 313.176 12.8261 313.213 12.8261 313.25C12.8261 313.689 12.7621 314.1 12.634 314.484C12.5059 314.869 12.3138 315.207 12.0668 315.5C11.8198 315.792 11.4905 316.049 11.0971 316.259C10.6946 316.469 10.228 316.634 9.67912 316.753C9.13023 316.872 8.499 316.927 7.77629 316.927C7.05358 316.927 6.44065 316.863 5.87346 316.735C5.29712 316.616 4.78482 316.424 4.33656 316.167C3.87915 315.911 3.50407 315.591 3.21132 315.198C2.90943 314.805 2.68073 314.347 2.52521 313.817C2.36969 313.286 2.28735 312.692 2.28735 312.024C2.28735 311.402 2.36054 310.835 2.51606 310.313C2.66243 309.801 2.89114 309.344 3.20218 308.96C3.51322 308.575 3.88829 308.255 4.33656 307.99C4.78482 307.734 5.29712 307.542 5.87346 307.414C6.4498 307.286 7.07188 307.222 7.75799 307.222C8.44411 307.222 9.06619 307.277 9.60594 307.377C10.1457 307.478 10.6122 307.633 11.0148 307.825C11.4173 308.017 11.7466 308.255 12.0119 308.539C12.2772 308.822 12.4785 309.143 12.6157 309.508C12.7529 309.865 12.817 310.268 12.817 310.698C12.817 310.743 12.817 310.807 12.817 310.862C12.817 310.926 12.817 310.981 12.817 311.045C12.817 311.109 12.817 311.155 12.8078 311.21C12.6523 311.21 12.4876 311.201 12.3138 311.201H11.4722C11.3624 311.201 11.2526 311.201 11.152 311.201C11.0514 311.201 10.9324 311.201 10.8044 311.201L10.7495 311.228Z" fill="#145559"/>
<path d="M25.3045 316.762H22.8345C22.7888 316.625 22.7064 316.414 22.6058 316.149C22.5052 315.884 22.3771 315.573 22.2307 315.207C22.0843 314.85 21.9197 314.457 21.7459 314.045C21.5629 313.624 21.3891 313.204 21.2061 312.765C21.0231 312.326 20.8402 311.896 20.6572 311.484C20.4743 311.063 20.3004 310.679 20.1449 310.322C19.9711 309.947 19.8247 309.627 19.7058 309.353C19.5869 309.078 19.4862 308.831 19.4039 308.621C19.3216 308.411 19.2484 308.228 19.1752 308.081L19.7241 308.365H18.9739L19.532 308.063C19.4679 308.219 19.3856 308.401 19.2941 308.612C19.2027 308.822 19.0929 309.069 18.9739 309.362C18.8459 309.655 18.7086 309.984 18.5348 310.359C18.3519 310.789 18.1506 311.255 17.9402 311.758C17.7298 312.252 17.5102 312.755 17.2907 313.268C17.0711 313.771 16.8607 314.256 16.6594 314.713C16.4582 315.17 16.2752 315.573 16.1288 315.93C15.9825 316.286 15.8635 316.57 15.7904 316.762H13.5125C13.6771 316.442 13.8692 316.058 14.0888 315.618C14.3083 315.179 14.5371 314.704 14.7749 314.182C15.0128 313.67 15.2598 313.14 15.5159 312.591C15.7721 312.051 16.0191 311.511 16.2569 310.981C16.4948 310.45 16.7235 309.956 16.9339 309.49C17.1443 309.023 17.3273 308.621 17.4736 308.255C17.62 307.898 17.7389 307.615 17.8396 307.414H20.8951C21.0049 307.633 21.1421 307.917 21.2976 308.273C21.4623 308.63 21.6452 309.042 21.8465 309.49C22.0477 309.947 22.2765 310.441 22.5235 310.972C22.7705 311.502 23.0175 312.033 23.2645 312.563C23.5115 313.103 23.7585 313.624 24.0146 314.137C24.2616 314.649 24.4995 315.134 24.719 315.582C24.9386 316.03 25.1399 316.423 25.3137 316.753L25.3045 316.762ZM15.8361 313.167C16.0557 313.167 16.3118 313.185 16.6046 313.185C16.9064 313.185 17.2175 313.185 17.5377 313.195C17.8579 313.195 18.178 313.195 18.4891 313.195H19.3216C19.5503 313.195 19.8247 313.195 20.1358 313.195C20.4468 313.195 20.7579 313.195 21.078 313.195C21.3982 313.195 21.7093 313.195 22.002 313.195C22.3039 313.195 22.5601 313.185 22.7888 313.176L22.8619 314.685C22.5509 314.685 22.249 314.685 21.938 314.676C21.6269 314.676 21.3159 314.667 21.0049 314.667H17.6383C17.3273 314.667 17.0071 314.667 16.6869 314.676C16.3667 314.676 16.074 314.685 15.7995 314.685L15.8361 313.176V313.167Z" fill="#145559"/>
<path d="M26.4663 307.414H32.1382C32.7328 307.414 33.2726 307.468 33.7483 307.587C34.224 307.706 34.6265 307.88 34.9467 308.109C35.2669 308.337 35.5139 308.621 35.6786 308.978C35.8432 309.325 35.9256 309.746 35.9256 310.24C35.9256 310.697 35.8524 311.1 35.7243 311.438C35.5871 311.786 35.3675 312.069 35.0748 312.298C34.7821 312.527 34.407 312.701 33.9496 312.81C33.4921 312.92 32.9524 312.984 32.3212 312.993L33.3915 312.637V313.195L32.3303 312.884C32.8975 312.92 33.3732 312.966 33.7574 313.021C34.1417 313.076 34.471 313.176 34.7363 313.304C35.0016 313.432 35.2212 313.624 35.395 313.862C35.5688 314.109 35.7243 314.439 35.8524 314.85C35.9622 315.125 36.0537 315.39 36.136 315.637C36.2183 315.884 36.2915 316.112 36.3647 316.305C36.4287 316.497 36.4928 316.652 36.5477 316.771H34.654C34.5168 316.771 34.4253 316.744 34.3521 316.698C34.288 316.652 34.224 316.561 34.1783 316.423C34.1325 316.295 34.0593 316.085 33.977 315.801C33.8581 315.445 33.7574 315.134 33.6568 314.878C33.5653 314.612 33.4556 314.402 33.3458 314.237C33.236 314.073 33.0988 313.945 32.9524 313.853C32.806 313.762 32.6231 313.698 32.4127 313.661C32.2022 313.624 31.9461 313.606 31.6625 313.606H31.0496C30.8575 313.606 30.6653 313.606 30.4549 313.606C30.2537 313.606 30.0433 313.606 29.8329 313.606C29.6224 313.606 29.3937 313.606 29.1559 313.606C28.918 313.606 28.6436 313.606 28.3417 313.606L28.3143 312.06C28.424 312.06 28.5887 312.06 28.8174 312.069C29.0461 312.069 29.3114 312.088 29.6316 312.088C29.9426 312.088 30.2811 312.088 30.6562 312.097C31.0221 312.097 31.3972 312.097 31.7723 312.097C32.2937 312.097 32.7146 312.033 33.0347 311.905C33.3458 311.786 33.5836 311.603 33.73 311.365C33.8764 311.136 33.9496 310.853 33.9496 310.514C33.9496 310.231 33.913 309.993 33.8306 309.783C33.7483 309.581 33.6202 309.426 33.4281 309.307C33.236 309.197 32.9981 309.115 32.7145 309.06C32.431 309.005 32.065 308.978 31.6351 308.978H31.1959C31.013 308.978 30.8026 308.978 30.5647 308.978C30.336 308.978 30.0982 308.978 29.8512 308.987C29.6042 308.996 29.3754 308.987 29.1559 308.987C28.9363 308.987 28.7259 308.987 28.5521 309.005C28.3783 309.023 28.2228 309.023 28.113 309.023L28.4881 308.219C28.4881 309.051 28.4972 309.874 28.4881 310.697C28.4881 311.521 28.4881 312.307 28.4881 313.066C28.4881 313.826 28.5064 314.512 28.5247 315.152C28.543 315.783 28.5796 316.314 28.6161 316.744H26.4755C26.4755 316.286 26.4938 315.829 26.4938 315.372C26.4938 314.914 26.4938 314.411 26.5029 313.881C26.5029 313.341 26.5029 312.746 26.5029 312.079C26.5029 311.091 26.5029 310.231 26.4938 309.508C26.4846 308.786 26.4755 308.081 26.4663 307.414Z" fill="#145559"/>
<path d="M44.525 316.762H38.2859C38.3225 316.122 38.3408 315.436 38.3499 314.695C38.3499 313.954 38.3591 313.085 38.3591 312.088C38.3591 311.42 38.3591 310.817 38.3499 310.259C38.3408 309.701 38.3408 309.198 38.3408 308.722C38.3408 308.246 38.3225 307.816 38.295 307.405H44.3969C44.9824 307.405 45.4855 307.451 45.9155 307.551C46.3455 307.643 46.7023 307.789 46.9859 307.972C47.2695 308.164 47.4799 308.402 47.6171 308.713C47.7543 309.024 47.8183 309.381 47.8183 309.81C47.8183 310.149 47.7818 310.442 47.7086 310.679C47.6354 310.917 47.5165 311.118 47.3518 311.292C47.1871 311.466 46.9859 311.612 46.7389 311.75C46.4919 311.878 46.1534 311.969 45.7326 312.015C45.3117 312.061 44.8452 312.088 44.3146 312.097L45.4856 311.859V312.271L44.3146 312.006C44.8086 312.042 45.2568 312.07 45.6411 312.088C46.0253 312.106 46.3455 312.17 46.6108 312.28C46.931 312.381 47.1963 312.518 47.3884 312.692C47.5805 312.866 47.7269 313.085 47.8183 313.341C47.9098 313.597 47.9556 313.908 47.9556 314.265C47.9556 314.695 47.8824 315.07 47.7452 315.39C47.6079 315.71 47.3884 315.966 47.0956 316.159C46.8029 316.351 46.4461 316.506 46.0253 316.598C45.6045 316.698 45.1013 316.744 44.5341 316.744L44.525 316.762ZM39.9143 312.683L39.9417 311.338C40.6644 311.365 41.3505 311.375 42.0001 311.384C42.6496 311.393 43.2442 311.384 43.784 311.384C44.2688 311.384 44.6531 311.32 44.955 311.219C45.2568 311.118 45.4764 310.972 45.6045 310.78C45.7417 310.588 45.8057 310.35 45.8057 310.057C45.8057 309.765 45.7417 309.527 45.6136 309.353C45.4855 309.179 45.2751 309.06 44.9824 308.978C44.6897 308.896 44.3146 308.859 43.8572 308.859C43.2534 308.859 42.6222 308.859 41.9543 308.859C41.2957 308.859 40.5912 308.877 39.8411 308.905L40.3808 308.082C40.3808 308.283 40.3808 308.521 40.3534 308.804C40.3351 309.088 40.3259 309.399 40.3259 309.746V313.122C40.3259 313.506 40.3259 313.872 40.3442 314.228C40.3625 314.585 40.3625 314.915 40.3717 315.226C40.3717 315.537 40.39 315.82 40.3991 316.067L39.9509 315.143C40.7559 315.18 41.4786 315.189 42.1099 315.189C42.7411 315.189 43.3266 315.189 43.8572 315.189C44.2231 315.189 44.5341 315.171 44.7903 315.125C45.0464 315.079 45.2568 315.015 45.4215 314.905C45.5862 314.805 45.7051 314.668 45.7783 314.503C45.8515 314.338 45.8881 314.128 45.8881 313.881C45.8881 313.588 45.8149 313.36 45.6777 313.177C45.5404 312.994 45.3117 312.866 45.0007 312.783C44.6897 312.701 44.2871 312.664 43.784 312.664C43.4089 312.664 43.0155 312.664 42.5856 312.664C42.1647 312.664 41.7256 312.664 41.2682 312.673C40.8108 312.673 40.3534 312.683 39.896 312.692L39.9143 312.683Z" fill="#145559"/>
<path d="M60.5248 312.015C60.5248 312.655 60.4425 313.231 60.2778 313.753C60.1131 314.274 59.8844 314.732 59.5825 315.134C59.2806 315.536 58.9056 315.875 58.4573 316.149C58.009 316.424 57.4876 316.634 56.9021 316.78C56.3166 316.927 55.6671 317 54.9627 317C54.2583 317 53.5996 316.927 53.0141 316.78C52.4286 316.634 51.9163 316.424 51.4772 316.149C51.0381 315.875 50.663 315.536 50.3611 315.134C50.0592 314.732 49.8305 314.274 49.675 313.753C49.5195 313.231 49.4463 312.655 49.4463 312.015C49.4463 311.375 49.5286 310.807 49.6933 310.286C49.858 309.765 50.0867 309.316 50.3977 308.932C50.7087 308.548 51.0838 308.228 51.5412 307.972C51.9895 307.707 52.5109 307.514 53.0781 307.386C53.6545 307.258 54.2857 307.194 54.9718 307.194C55.8318 307.194 56.6094 307.295 57.2863 307.505C57.9633 307.716 58.5488 308.018 59.0245 308.42C59.5002 308.823 59.8753 309.316 60.1314 309.92C60.3876 310.524 60.5248 311.219 60.5248 312.015ZM54.9627 315.225C55.539 315.225 56.0422 315.161 56.4721 315.024C56.9021 314.887 57.268 314.695 57.5608 314.43C57.8535 314.164 58.0731 313.826 58.2194 313.423C58.3658 313.021 58.4481 312.573 58.4481 312.07C58.4481 311.539 58.375 311.073 58.2194 310.689C58.0731 310.295 57.8535 309.975 57.5608 309.71C57.268 309.445 56.9021 309.252 56.4721 309.124C56.0422 308.996 55.539 308.932 54.9718 308.932C54.4046 308.932 53.9106 308.996 53.4715 309.124C53.0324 309.252 52.6756 309.445 52.3829 309.701C52.0901 309.957 51.8797 310.286 51.7242 310.679C51.5687 311.073 51.4955 311.539 51.4955 312.07C51.4955 312.6 51.5687 313.03 51.7242 313.433C51.8706 313.835 52.0901 314.164 52.3829 314.43C52.6756 314.695 53.0415 314.887 53.4715 315.024C53.9106 315.152 54.4046 315.225 54.9718 315.225H54.9627Z" fill="#145559"/>
<path d="M62.4556 316.762C62.4556 316.149 62.4739 315.463 62.4739 314.713C62.4739 313.963 62.4739 313.085 62.4739 312.088V310.258C62.4739 309.7 62.4739 309.188 62.4739 308.722C62.4739 308.255 62.4647 307.816 62.4556 307.423H64.8981C64.9713 307.542 65.1086 307.725 65.3007 307.944C65.4928 308.173 65.7123 308.438 65.9776 308.74C66.2338 309.051 66.5174 309.38 66.8284 309.728C67.1395 310.085 67.4505 310.441 67.7798 310.816C68.1 311.182 68.4202 311.548 68.7404 311.914C69.0606 312.271 69.3442 312.618 69.6095 312.938C69.7924 313.14 69.9571 313.359 70.1126 313.588C70.2682 313.826 70.4145 314.063 70.57 314.301C70.7164 314.539 70.8262 314.777 70.8902 315.015L70.3505 314.557L70.8719 314.32L70.6981 315.115C70.6798 314.795 70.6615 314.484 70.6341 314.173C70.6066 313.862 70.5883 313.551 70.57 313.249C70.5609 312.938 70.5518 312.646 70.5518 312.362C70.5518 311.96 70.5518 311.557 70.5518 311.164C70.5518 310.771 70.5518 310.386 70.5426 310.011C70.5426 309.636 70.5335 309.28 70.5243 308.941C70.5243 308.612 70.506 308.31 70.506 308.054C70.506 307.789 70.4877 307.578 70.4786 307.414H72.3997C72.3997 307.688 72.3814 307.99 72.3723 308.319C72.3723 308.648 72.354 309.005 72.354 309.398C72.354 309.792 72.354 310.213 72.354 310.661V314.722C72.354 315.454 72.354 316.131 72.3814 316.762H70.2773C70.1584 316.579 69.9754 316.332 69.7193 316.03C69.4631 315.719 69.1704 315.372 68.8319 314.969C68.4934 314.567 68.1275 314.146 67.7524 313.707C67.3773 313.259 66.9839 312.819 66.5906 312.371C66.1972 311.923 65.8221 311.502 65.4653 311.109C65.2549 310.853 65.0537 310.597 64.8616 310.341C64.6694 310.085 64.4865 309.828 64.331 309.572C64.1754 309.307 64.0291 309.06 63.9101 308.822L64.6328 309.38L64.0565 309.517L64.2395 308.731C64.2761 309.078 64.3127 309.417 64.331 309.755C64.3493 310.094 64.3584 310.414 64.3676 310.743C64.3676 311.072 64.3858 311.393 64.395 311.694C64.395 312.344 64.395 312.938 64.395 313.478C64.395 314.018 64.395 314.503 64.4041 314.932C64.4041 315.362 64.4041 315.728 64.4133 316.039C64.4133 316.35 64.4224 316.588 64.4316 316.771H62.4739L62.4556 316.762Z" fill="#145559"/>
<path d="M79.4619 316.762C79.4619 316.149 79.4802 315.463 79.4802 314.713C79.4802 313.963 79.4802 313.085 79.4802 312.088V310.258C79.4802 309.7 79.4802 309.188 79.4802 308.722C79.4802 308.255 79.4711 307.816 79.4619 307.423H81.9045C81.9777 307.542 82.1149 307.725 82.307 307.944C82.4991 308.173 82.7187 308.438 82.984 308.74C83.2493 309.042 83.5237 309.38 83.8348 309.728C84.1458 310.085 84.4568 310.441 84.7862 310.816C85.1064 311.182 85.4266 311.548 85.7468 311.914C86.0578 312.271 86.3505 312.618 86.6158 312.938C86.7988 313.14 86.9635 313.359 87.119 313.588C87.2745 313.826 87.4209 314.063 87.5764 314.301C87.7228 314.539 87.8325 314.777 87.8966 315.015L87.3568 314.557L87.8783 314.32L87.7045 315.115C87.6862 314.795 87.6679 314.484 87.6404 314.173C87.613 313.862 87.5947 313.551 87.5764 313.249C87.5581 312.948 87.5581 312.646 87.5581 312.362C87.5581 311.96 87.5581 311.557 87.5581 311.164C87.5581 310.771 87.5581 310.386 87.5489 310.011C87.5489 309.636 87.5398 309.28 87.5307 308.941C87.5307 308.612 87.5124 308.31 87.5124 308.054C87.5124 307.789 87.4941 307.578 87.4849 307.414H89.406C89.406 307.688 89.3877 307.99 89.3786 308.319C89.3786 308.648 89.3603 309.005 89.3603 309.398C89.3603 309.792 89.3603 310.213 89.3603 310.661V314.722C89.3603 315.454 89.3603 316.131 89.3877 316.762H87.2837C87.1647 316.579 86.9818 316.332 86.7256 316.03C86.4695 315.719 86.1767 315.372 85.8382 314.969C85.4997 314.567 85.1338 314.146 84.7587 313.707C84.3837 313.268 83.9903 312.819 83.5969 312.371C83.2035 311.923 82.8285 311.502 82.4717 311.109C82.2613 310.853 82.06 310.597 81.8679 310.341C81.6758 310.085 81.4928 309.828 81.3373 309.572C81.1818 309.307 81.0354 309.06 80.9165 308.822L81.6392 309.38L81.0629 309.517L81.2458 308.731C81.2916 309.078 81.319 309.417 81.3373 309.755C81.3556 310.085 81.3647 310.414 81.3739 310.743C81.3739 311.072 81.3922 311.393 81.4013 311.694C81.4013 312.344 81.4013 312.938 81.4013 313.478C81.4013 314.018 81.4013 314.503 81.4105 314.932C81.4105 315.362 81.4105 315.728 81.4196 316.039C81.4196 316.35 81.4288 316.588 81.4379 316.771H79.4802L79.4619 316.762Z" fill="#145559"/>
<path d="M100.713 316.762H91.9312C91.9494 316.35 91.9586 315.921 91.9677 315.463C91.9769 315.006 91.9769 314.494 91.9769 313.936V310.688C91.9769 310.249 91.9769 309.829 91.9769 309.444C91.9769 309.051 91.9769 308.694 91.9677 308.356C91.9586 308.018 91.9495 307.707 91.9403 307.432H100.723C100.723 307.524 100.723 307.642 100.723 307.789C100.723 307.935 100.723 308.072 100.723 308.191C100.723 308.329 100.723 308.484 100.723 308.649C100.723 308.813 100.723 308.941 100.723 309.024C100.256 309.024 99.7712 309.024 99.268 309.024C98.7649 309.024 98.2526 309.024 97.7494 309.024C97.2463 309.024 96.7523 309.024 96.2583 309.024C95.7643 309.024 95.3068 309.024 94.8677 309.024H93.6693L94.0078 307.889V309.38C94.0078 309.691 94.0078 310.002 94.0078 310.323C94.0078 310.643 94.0078 310.945 94.0078 311.219V314.933C94.0078 315.216 94.0078 315.482 94.0078 315.719C94.0078 315.957 94.0078 316.158 94.0078 316.323L93.6876 315.143H96.2857C96.7797 315.143 97.2829 315.143 97.7952 315.143C98.3075 315.143 98.8106 315.143 99.3138 315.143H100.732C100.732 315.244 100.732 315.372 100.732 315.536C100.732 315.701 100.732 315.847 100.732 315.994C100.732 316.14 100.732 316.286 100.732 316.433C100.732 316.588 100.732 316.707 100.732 316.808L100.713 316.762ZM93.6968 312.747V311.31H96.5236C97.0176 311.31 97.5116 311.31 97.9964 311.31C98.4813 311.31 98.9478 311.31 99.387 311.301C99.8261 311.301 100.229 311.301 100.585 311.301V312.792C100.229 312.792 99.8261 312.774 99.387 312.774C98.9478 312.774 98.4813 312.774 97.9964 312.774C97.5116 312.774 97.0176 312.774 96.5236 312.774C96.0296 312.774 95.5356 312.774 95.0507 312.774H93.6968V312.747Z" fill="#145559"/>
<path d="M110.895 307.414H113.018C112.99 307.789 112.972 308.182 112.963 308.594C112.954 309.005 112.945 309.49 112.945 310.048C112.945 310.286 112.945 310.56 112.954 310.853C112.954 311.155 112.963 311.457 112.963 311.777V312.682C112.963 313.24 112.908 313.743 112.798 314.201C112.688 314.658 112.506 315.051 112.259 315.39C112.011 315.728 111.691 316.012 111.298 316.259C110.905 316.497 110.438 316.68 109.898 316.789C109.359 316.899 108.727 316.954 108.014 316.954C107.3 316.954 106.669 316.899 106.129 316.789C105.58 316.68 105.114 316.497 104.711 316.259C104.309 316.021 103.989 315.728 103.741 315.39C103.494 315.051 103.312 314.658 103.193 314.201C103.074 313.743 103.01 313.24 103.01 312.682C103.01 312.39 103.01 312.088 103.019 311.777C103.019 311.457 103.037 311.155 103.037 310.853C103.037 310.551 103.037 310.286 103.037 310.048C103.037 309.49 103.037 309.005 103.019 308.594C103.01 308.182 103 307.789 103 307.414H105.123C105.123 307.624 105.105 307.862 105.095 308.145C105.086 308.429 105.077 308.722 105.068 309.033C105.068 309.344 105.068 309.664 105.068 309.984C105.068 310.304 105.068 310.624 105.068 310.944C105.068 311.274 105.068 311.566 105.068 311.85V312.6C105.068 313.204 105.178 313.698 105.388 314.073C105.599 314.448 105.928 314.722 106.367 314.905C106.806 315.088 107.373 315.17 108.059 315.17C108.746 315.17 109.304 315.079 109.724 314.905C110.145 314.731 110.456 314.448 110.658 314.073C110.859 313.698 110.959 313.204 110.959 312.6V311.85C110.959 311.575 110.959 311.274 110.959 310.963C110.959 310.652 110.959 310.322 110.959 310.002C110.959 309.682 110.959 309.353 110.959 309.033C110.959 308.722 110.95 308.42 110.941 308.145C110.941 307.871 110.923 307.624 110.914 307.414H110.895Z" fill="#145559"/>
<path d="M114.454 307.414H123.446C123.446 307.532 123.437 307.661 123.437 307.816V308.74C123.437 308.914 123.437 309.06 123.446 309.188C122.907 309.17 122.367 309.161 121.836 309.152C121.296 309.152 120.793 309.152 120.308 309.142C119.824 309.142 119.375 309.142 118.955 309.142C118.36 309.142 117.665 309.142 116.887 309.142C116.109 309.142 115.295 309.161 114.454 309.188C114.472 309.06 114.481 308.905 114.481 308.749V307.843C114.481 307.688 114.481 307.551 114.454 307.423V307.414ZM117.967 308.209H119.97V315.015C119.97 315.436 119.97 315.801 119.988 316.103C120.007 316.405 120.007 316.625 120.007 316.753C119.906 316.753 119.796 316.753 119.677 316.744C119.558 316.744 119.43 316.734 119.302 316.734H118.616C118.497 316.734 118.378 316.734 118.25 316.744C118.131 316.744 118.012 316.753 117.912 316.753C117.93 316.634 117.939 316.414 117.939 316.103C117.939 315.792 117.939 315.436 117.939 315.024C117.939 314.612 117.939 314.146 117.948 313.615C117.948 313.085 117.948 312.527 117.948 311.941V308.2L117.967 308.209Z" fill="#145559"/>
<path d="M124.983 307.414H130.655C131.25 307.414 131.79 307.468 132.265 307.587C132.741 307.706 133.144 307.88 133.464 308.109C133.784 308.337 134.031 308.621 134.196 308.978C134.36 309.325 134.443 309.746 134.443 310.24C134.443 310.697 134.369 311.1 134.241 311.438C134.104 311.786 133.885 312.069 133.592 312.298C133.299 312.527 132.924 312.701 132.467 312.81C132.009 312.92 131.47 312.984 130.838 312.993L131.909 312.637V313.195L130.847 312.884C131.415 312.92 131.89 312.966 132.275 313.021C132.659 313.076 132.988 313.176 133.253 313.304C133.519 313.432 133.738 313.624 133.912 313.862C134.086 314.109 134.241 314.439 134.369 314.85C134.479 315.125 134.571 315.39 134.653 315.637C134.735 315.884 134.809 316.112 134.882 316.305C134.946 316.497 135.01 316.652 135.065 316.771H133.171C133.034 316.771 132.942 316.744 132.869 316.698C132.805 316.652 132.741 316.561 132.695 316.423C132.65 316.295 132.576 316.085 132.494 315.801C132.375 315.445 132.275 315.134 132.174 314.878C132.082 314.612 131.973 314.402 131.863 314.237C131.753 314.073 131.616 313.945 131.47 313.853C131.323 313.762 131.14 313.698 130.93 313.661C130.719 313.624 130.463 313.606 130.18 313.606H129.567C129.375 313.606 129.182 313.606 128.972 313.606C128.771 313.606 128.56 313.606 128.35 313.606C128.14 313.606 127.911 313.606 127.673 313.606C127.435 313.606 127.161 313.606 126.859 313.606L126.831 312.06C126.941 312.06 127.106 312.06 127.335 312.069C127.563 312.069 127.829 312.088 128.149 312.088C128.46 312.088 128.798 312.088 129.173 312.097C129.539 312.097 129.914 312.097 130.289 312.097C130.811 312.097 131.232 312.033 131.552 311.905C131.863 311.786 132.101 311.603 132.247 311.365C132.393 311.136 132.467 310.853 132.467 310.514C132.467 310.231 132.43 309.993 132.348 309.783C132.265 309.581 132.137 309.426 131.945 309.307C131.753 309.197 131.515 309.115 131.232 309.06C130.948 309.005 130.582 308.978 130.152 308.978H129.713C129.53 308.978 129.32 308.978 129.082 308.978C128.853 308.978 128.615 308.978 128.368 308.987C128.121 308.996 127.893 308.987 127.673 308.987C127.453 308.987 127.243 308.987 127.069 309.005C126.895 309.023 126.74 309.023 126.63 309.023L127.005 308.219C127.005 309.051 127.014 309.874 127.005 310.697C127.005 311.521 127.005 312.307 127.005 313.066C127.005 313.826 127.023 314.512 127.042 315.152C127.06 315.783 127.097 316.314 127.133 316.744H124.993C124.993 316.286 125.011 315.829 125.011 315.372C125.011 314.914 125.011 314.411 125.02 313.881C125.02 313.341 125.02 312.746 125.02 312.079C125.02 311.091 125.02 310.231 125.011 309.508C125.002 308.786 124.993 308.081 124.983 307.414Z" fill="#145559"/>
<path d="M147.04 316.762H144.57C144.524 316.625 144.442 316.414 144.341 316.149C144.241 315.884 144.112 315.573 143.966 315.207C143.82 314.85 143.655 314.457 143.481 314.045C143.298 313.624 143.124 313.204 142.941 312.765C142.759 312.326 142.576 311.896 142.393 311.484C142.21 311.063 142.036 310.679 141.88 310.322C141.706 309.947 141.56 309.627 141.441 309.353C141.322 309.078 141.222 308.831 141.139 308.621C141.057 308.411 140.984 308.228 140.911 308.081L141.459 308.365H140.709L141.267 308.063C141.203 308.219 141.121 308.401 141.029 308.612C140.938 308.822 140.828 309.069 140.709 309.362C140.581 309.655 140.444 309.984 140.27 310.359C140.087 310.789 139.886 311.255 139.676 311.758C139.465 312.252 139.246 312.755 139.026 313.268C138.806 313.771 138.596 314.256 138.395 314.713C138.194 315.17 138.011 315.573 137.864 315.93C137.718 316.286 137.599 316.57 137.526 316.762H135.248C135.412 316.442 135.605 316.058 135.824 315.618C136.044 315.179 136.272 314.704 136.51 314.182C136.748 313.67 136.995 313.14 137.251 312.591C137.507 312.051 137.754 311.511 137.992 310.981C138.23 310.45 138.459 309.956 138.669 309.49C138.88 309.023 139.063 308.621 139.209 308.255C139.355 307.898 139.474 307.615 139.575 307.414H142.63C142.74 307.633 142.877 307.917 143.033 308.273C143.198 308.63 143.381 309.042 143.582 309.49C143.783 309.947 144.012 310.441 144.259 310.972C144.506 311.502 144.753 312.033 145 312.563C145.247 313.103 145.494 313.624 145.75 314.137C145.997 314.649 146.235 315.134 146.454 315.582C146.674 316.03 146.875 316.423 147.049 316.753L147.04 316.762ZM137.571 313.167C137.791 313.167 138.047 313.185 138.34 313.185C138.642 313.185 138.953 313.185 139.273 313.195C139.593 313.195 139.913 313.195 140.224 313.195H141.057C141.286 313.195 141.56 313.195 141.871 313.195C142.182 313.195 142.493 313.195 142.813 313.195C143.134 313.195 143.445 313.195 143.737 313.195C144.039 313.195 144.295 313.185 144.524 313.176L144.597 314.685C144.286 314.685 143.984 314.685 143.673 314.676C143.362 314.676 143.051 314.667 142.74 314.667H139.374C139.063 314.667 138.742 314.667 138.422 314.676C138.102 314.676 137.809 314.685 137.535 314.685L137.571 313.176V313.167Z" fill="#145559"/>
<path d="M155.466 316.762H148.165C148.165 316.542 148.184 316.277 148.184 315.957C148.184 315.637 148.184 315.271 148.193 314.859C148.193 314.448 148.193 314.018 148.193 313.542V312.088C148.193 311.338 148.193 310.67 148.193 310.075C148.193 309.481 148.193 308.959 148.193 308.52C148.193 308.072 148.174 307.706 148.165 307.414H150.288C150.269 307.569 150.26 307.761 150.26 307.981C150.26 308.2 150.26 308.465 150.251 308.758C150.251 309.051 150.233 309.362 150.233 309.709C150.233 310.057 150.233 310.423 150.233 310.816V314.256C150.233 314.603 150.233 314.905 150.233 315.179C150.233 315.445 150.233 315.673 150.233 315.847L149.821 314.987H151.047C151.504 314.987 151.989 314.987 152.483 314.987C152.977 314.987 153.48 314.987 153.993 314.987C154.505 314.987 154.99 314.987 155.447 314.96C155.447 315.115 155.447 315.271 155.438 315.408C155.438 315.545 155.429 315.692 155.429 315.847C155.429 316.012 155.429 316.167 155.438 316.323C155.438 316.469 155.447 316.625 155.447 316.771L155.466 316.762Z" fill="#145559"/>
<path d="M26.5113 271.85H21.3242V285.132C21.3242 289.431 24.8097 292.916 29.1094 292.916H37.9831V288.644H26.5021V271.859L26.5113 271.85Z" fill="#145559"/>
<path d="M46.1898 273.725L39.0542 292.916H43.8936L45.5952 288.388H55.7223L57.4238 292.916H62.5469L54.6519 271.85H48.8885C47.681 271.85 46.6106 272.6 46.1898 273.725ZM47.1321 284.235L49.7576 277.146C49.9406 276.661 50.398 276.341 50.9195 276.341H51.2213L54.1762 284.235H47.1321Z" fill="#145559"/>
<path d="M80.3308 286.028H79.6355L70.8349 271.85H63.9829V292.44C63.9829 292.705 64.1933 292.916 64.4586 292.916H68.7308V278.738H69.4535L78.2541 292.916H85.1062V271.85H80.3308V286.028Z" fill="#145559"/>
<path d="M87.5944 276.122H95.4527V291.544C95.4527 292.294 96.0656 292.907 96.8158 292.907H100.64V276.122H106.751L108.498 271.85H87.5852V276.122H87.5944Z" fill="#145559"/>
<path d="M122.028 271.566H120.976C113.273 271.566 107.144 275.28 107.144 281.875V282.881C107.144 289.55 113.273 293.19 120.976 293.19H122.028C129.576 293.19 135.577 289.54 135.577 282.881V281.875C135.577 275.271 129.576 271.566 122.028 271.566ZM129.923 282.881C129.923 286.494 126.749 288.443 121.781 288.443H120.976C116.009 288.443 112.834 286.494 112.834 282.881V281.875C112.834 278.289 116.009 276.314 120.976 276.314H121.781C126.749 276.314 129.923 278.299 129.923 281.875V282.881Z" fill="#145559"/>
<path d="M154.44 272.399V286.028H153.745L144.944 271.85H138.092V292.532C138.092 292.742 138.266 292.916 138.476 292.916H142.84V278.738H143.563L152.363 292.916H159.215V271.85H154.989C154.687 271.85 154.44 272.097 154.44 272.399Z" fill="#145559"/>
<path d="M11.5725 271.85H0V292.751C0 292.843 0.0731859 292.916 0.164668 292.916H5.18705V286.001H11.5725C17.1987 286.001 19.4674 283.577 19.4674 279.46V278.363C19.4674 274.274 17.2078 271.859 11.5725 271.859V271.85ZM14.2164 279.332C14.2164 281.089 13.1826 281.72 11.1334 281.72H5.18705V276.122H11.1334C13.1735 276.122 14.2164 276.78 14.2164 278.482V279.332Z" fill="#145559"/>
<path d="M148.595 216.41L1.40893 65.0811C1.16193 66.4257 0.951519 67.7794 0.768555 69.1423L146.838 219.319C147.442 218.358 148.037 217.398 148.595 216.41Z" fill="#145559"/>
<path d="M7.2188 46.5767C6.74309 47.6194 6.29483 48.6805 5.85571 49.7507L154.761 202.854C155.155 201.72 155.521 200.567 155.859 199.415L7.2188 46.5767Z" fill="#145559"/>
<path d="M149.821 173.3C157.377 180.855 158.869 176.072 159.116 172.779V170.766C159.088 170.574 159.088 170.464 159.116 170.428V79.4879C159.116 35.5912 123.52 0 79.6082 0C52.6027 0 28.7441 13.4645 14.3813 34.0453L149.821 173.3Z" fill="#145559"/>
<path d="M8.51745 97.0047C1.74776 90.7024 0.348077 95.1936 0.101074 98.3402V100.389C0.128519 100.563 0.128519 100.673 0.101074 100.7V176.868C0.101074 220.773 35.6968 256.365 79.6084 256.365C102.863 256.365 123.785 246.376 138.331 230.46L8.51745 97.0047Z" fill="#145559"/>
</svg>
