<svg width="255" height="317" viewBox="0 0 255 317" fill="none" xmlns="http://www.w3.org/2000/svg">
<rect y="33.7583" width="254.026" height="196.326" rx="28.5874" fill="#145559"/>
<path d="M58.873 311.228C58.873 311.228 58.8822 311.182 58.8822 311.155V311.009C58.8822 310.524 58.7724 310.14 58.5437 309.838C58.315 309.536 57.9765 309.316 57.5191 309.179C57.0617 309.042 56.4945 308.978 55.8083 308.978C55.3784 308.978 54.985 309.015 54.6374 309.088C54.2897 309.161 53.9787 309.271 53.7043 309.417C53.4298 309.563 53.2102 309.765 53.0181 309.993C52.8352 310.231 52.6888 310.515 52.5882 310.844C52.4875 311.173 52.4418 311.557 52.4418 311.996C52.4418 312.436 52.4875 312.838 52.5882 313.176C52.6888 313.515 52.8352 313.817 53.0273 314.073C53.2194 314.329 53.4572 314.539 53.7408 314.695C54.0153 314.85 54.3355 314.969 54.6923 315.052C55.049 315.134 55.4333 315.17 55.8724 315.17C56.6042 315.17 57.1897 315.088 57.638 314.924C58.0863 314.759 58.4064 314.53 58.6077 314.228C58.809 313.926 58.9096 313.57 58.9096 313.131V313.021C58.9096 313.021 58.9096 312.929 58.9004 312.893C59.0194 312.893 59.1292 312.893 59.2389 312.893C59.3487 312.893 59.4585 312.893 59.5683 312.893H59.9159C60.0897 312.893 60.2635 312.893 60.4282 312.893C60.5929 312.893 60.7667 312.893 60.9405 312.893C60.9405 312.929 60.9405 312.966 60.9314 313.003C60.9314 313.039 60.9314 313.085 60.9314 313.131C60.9314 313.176 60.9497 313.213 60.9497 313.25C60.9497 313.689 60.8856 314.1 60.7575 314.484C60.6295 314.869 60.4373 315.207 60.1903 315.5C59.9433 315.792 59.614 316.049 59.2206 316.259C58.8181 316.469 58.3516 316.634 57.8027 316.753C57.2538 316.872 56.6225 316.927 55.8998 316.927C55.1771 316.927 54.5642 316.863 53.997 316.735C53.4207 316.616 52.9084 316.424 52.4601 316.167C52.0027 315.911 51.6276 315.591 51.3349 315.198C51.033 314.805 50.8043 314.347 50.6487 313.817C50.4932 313.286 50.4109 312.692 50.4109 312.024C50.4109 311.402 50.4841 310.835 50.6396 310.313C50.786 309.801 51.0147 309.344 51.3257 308.96C51.6368 308.575 52.0118 308.255 52.4601 307.99C52.9084 307.734 53.4207 307.542 53.997 307.414C54.5733 307.286 55.1954 307.222 55.8815 307.222C56.5676 307.222 57.1897 307.277 57.7295 307.377C58.2692 307.478 58.7358 307.633 59.1383 307.825C59.5408 308.017 59.8702 308.255 60.1355 308.539C60.4008 308.822 60.602 309.143 60.7392 309.508C60.8765 309.865 60.9405 310.268 60.9405 310.698C60.9405 310.743 60.9405 310.807 60.9405 310.862C60.9405 310.926 60.9405 310.981 60.9405 311.045C60.9405 311.109 60.9405 311.155 60.9314 311.21C60.7758 311.21 60.6112 311.201 60.4373 311.201H59.5957C59.4859 311.201 59.3762 311.201 59.2755 311.201C59.1749 311.201 59.056 311.201 58.9279 311.201L58.873 311.228Z" fill="#ABCE77"/>
<path d="M73.4279 316.762H70.9579C70.9122 316.625 70.8298 316.414 70.7292 316.149C70.6286 315.884 70.5005 315.573 70.3541 315.207C70.2078 314.85 70.0431 314.457 69.8693 314.045C69.6863 313.624 69.5125 313.204 69.3295 312.765C69.1466 312.326 68.9636 311.896 68.7806 311.484C68.5977 311.063 68.4239 310.679 68.2683 310.322C68.0945 309.947 67.9481 309.627 67.8292 309.353C67.7103 309.078 67.6097 308.831 67.5273 308.621C67.445 308.411 67.3718 308.228 67.2986 308.081L67.8475 308.365H67.0974L67.6554 308.063C67.5914 308.219 67.509 308.401 67.4175 308.612C67.3261 308.822 67.2163 309.069 67.0974 309.362C66.9693 309.655 66.8321 309.984 66.6582 310.359C66.4753 310.789 66.274 311.255 66.0636 311.758C65.8532 312.252 65.6336 312.755 65.4141 313.268C65.1945 313.771 64.9841 314.256 64.7829 314.713C64.5816 315.17 64.3986 315.573 64.2523 315.93C64.1059 316.286 63.987 316.57 63.9138 316.762H61.6359C61.8005 316.442 61.9926 316.058 62.2122 315.618C62.4318 315.179 62.6605 314.704 62.8983 314.182C63.1362 313.67 63.3832 313.14 63.6393 312.591C63.8955 312.051 64.1425 311.511 64.3803 310.981C64.6182 310.45 64.8469 309.956 65.0573 309.49C65.2677 309.023 65.4507 308.621 65.597 308.255C65.7434 307.898 65.8623 307.615 65.963 307.414H69.0185C69.1283 307.633 69.2655 307.917 69.421 308.273C69.5857 308.63 69.7686 309.042 69.9699 309.49C70.1712 309.947 70.3999 310.441 70.6469 310.972C70.8939 311.502 71.1409 312.033 71.3879 312.563C71.6349 313.103 71.8819 313.624 72.138 314.137C72.385 314.649 72.6229 315.134 72.8424 315.582C73.062 316.03 73.2633 316.423 73.4371 316.753L73.4279 316.762ZM63.9595 313.167C64.1791 313.167 64.4352 313.185 64.728 313.185C65.0299 313.185 65.3409 313.185 65.6611 313.195C65.9813 313.195 66.3015 313.195 66.6125 313.195H67.445C67.6737 313.195 67.9481 313.195 68.2592 313.195C68.5702 313.195 68.8813 313.195 69.2015 313.195C69.5216 313.195 69.8327 313.195 70.1254 313.195C70.4273 313.195 70.6835 313.185 70.9122 313.176L70.9854 314.685C70.6743 314.685 70.3724 314.685 70.0614 314.676C69.7503 314.676 69.4393 314.667 69.1283 314.667H65.7617C65.4507 314.667 65.1305 314.667 64.8103 314.676C64.4901 314.676 64.1974 314.685 63.9229 314.685L63.9595 313.176V313.167Z" fill="#ABCE77"/>
<path d="M74.5896 307.414H80.2615C80.8561 307.414 81.3959 307.468 81.8716 307.587C82.3473 307.706 82.7498 307.88 83.07 308.109C83.3902 308.337 83.6372 308.621 83.8019 308.978C83.9665 309.325 84.0489 309.746 84.0489 310.24C84.0489 310.697 83.9757 311.1 83.8476 311.438C83.7104 311.786 83.4908 312.069 83.1981 312.298C82.9053 312.527 82.5303 312.701 82.0729 312.81C81.6154 312.92 81.0757 312.984 80.4445 312.993L81.5148 312.637V313.195L80.4536 312.884C81.0208 312.92 81.4965 312.966 81.8807 313.021C82.265 313.076 82.5943 313.176 82.8596 313.304C83.1249 313.432 83.3445 313.624 83.5183 313.862C83.6921 314.109 83.8476 314.439 83.9757 314.85C84.0855 315.125 84.1769 315.39 84.2593 315.637C84.3416 315.884 84.4148 316.112 84.488 316.305C84.552 316.497 84.6161 316.652 84.671 316.771H82.7773C82.64 316.771 82.5486 316.744 82.4754 316.698C82.4113 316.652 82.3473 316.561 82.3016 316.423C82.2558 316.295 82.1826 316.085 82.1003 315.801C81.9814 315.445 81.8807 315.134 81.7801 314.878C81.6886 314.612 81.5788 314.402 81.4691 314.237C81.3593 314.073 81.2221 313.945 81.0757 313.853C80.9293 313.762 80.7464 313.698 80.5359 313.661C80.3255 313.624 80.0694 313.606 79.7858 313.606H79.1729C78.9807 313.606 78.7886 313.606 78.5782 313.606C78.377 313.606 78.1666 313.606 77.9561 313.606C77.7457 313.606 77.517 313.606 77.2792 313.606C77.0413 313.606 76.7669 313.606 76.465 313.606L76.4375 312.06C76.5473 312.06 76.712 312.06 76.9407 312.069C77.1694 312.069 77.4347 312.088 77.7549 312.088C78.0659 312.088 78.4044 312.088 78.7795 312.097C79.1454 312.097 79.5205 312.097 79.8956 312.097C80.417 312.097 80.8378 312.033 81.158 311.905C81.4691 311.786 81.7069 311.603 81.8533 311.365C81.9997 311.136 82.0729 310.853 82.0729 310.514C82.0729 310.231 82.0363 309.993 81.9539 309.783C81.8716 309.581 81.7435 309.426 81.5514 309.307C81.3593 309.197 81.1214 309.115 80.8378 309.06C80.5542 309.005 80.1883 308.978 79.7584 308.978H79.3192C79.1363 308.978 78.9259 308.978 78.688 308.978C78.4593 308.978 78.2214 308.978 77.9744 308.987C77.7274 308.996 77.4987 308.987 77.2792 308.987C77.0596 308.987 76.8492 308.987 76.6754 309.005C76.5016 309.023 76.3461 309.023 76.2363 309.023L76.6114 308.219C76.6114 309.051 76.6205 309.874 76.6114 310.697C76.6114 311.521 76.6114 312.307 76.6114 313.066C76.6114 313.826 76.6297 314.512 76.648 315.152C76.6662 315.783 76.7028 316.314 76.7394 316.744H74.5987C74.5987 316.286 74.617 315.829 74.617 315.372C74.617 314.914 74.617 314.411 74.6262 313.881C74.6262 313.341 74.6262 312.746 74.6262 312.079C74.6262 311.091 74.6262 310.231 74.617 309.508C74.6079 308.786 74.5987 308.081 74.5896 307.414Z" fill="#ABCE77"/>
<path d="M92.6483 316.762H86.4092C86.4458 316.122 86.4641 315.436 86.4732 314.695C86.4732 313.954 86.4824 313.085 86.4824 312.088C86.4824 311.42 86.4824 310.817 86.4732 310.259C86.4641 309.701 86.4641 309.198 86.4641 308.722C86.4641 308.246 86.4458 307.816 86.4183 307.405H92.5202C93.1057 307.405 93.6088 307.451 94.0388 307.551C94.4688 307.643 94.8256 307.789 95.1092 307.972C95.3927 308.164 95.6032 308.402 95.7404 308.713C95.8776 309.024 95.9416 309.381 95.9416 309.81C95.9416 310.149 95.905 310.442 95.8319 310.679C95.7587 310.917 95.6397 311.118 95.4751 311.292C95.3104 311.466 95.1092 311.612 94.8621 311.75C94.6151 311.878 94.2767 311.969 93.8558 312.015C93.435 312.061 92.9685 312.088 92.4379 312.097L93.6088 311.859V312.271L92.4379 312.006C92.9319 312.042 93.3801 312.07 93.7644 312.088C94.1486 312.106 94.4688 312.17 94.7341 312.28C95.0543 312.381 95.3196 312.518 95.5117 312.692C95.7038 312.866 95.8502 313.085 95.9416 313.341C96.0331 313.597 96.0789 313.908 96.0789 314.265C96.0789 314.695 96.0057 315.07 95.8685 315.39C95.7312 315.71 95.5117 315.966 95.2189 316.159C94.9262 316.351 94.5694 316.506 94.1486 316.598C93.7278 316.698 93.2246 316.744 92.6574 316.744L92.6483 316.762ZM88.0376 312.683L88.065 311.338C88.7877 311.365 89.4738 311.375 90.1234 311.384C90.7729 311.393 91.3675 311.384 91.9073 311.384C92.3921 311.384 92.7764 311.32 93.0782 311.219C93.3801 311.118 93.5997 310.972 93.7278 310.78C93.865 310.588 93.929 310.35 93.929 310.057C93.929 309.765 93.865 309.527 93.7369 309.353C93.6088 309.179 93.3984 309.06 93.1057 308.978C92.8129 308.896 92.4379 308.859 91.9805 308.859C91.3767 308.859 90.7454 308.859 90.0776 308.859C89.419 308.859 88.7145 308.877 87.9644 308.905L88.5041 308.082C88.5041 308.283 88.5041 308.521 88.4767 308.804C88.4584 309.088 88.4492 309.399 88.4492 309.746V313.122C88.4492 313.506 88.4492 313.872 88.4675 314.228C88.4858 314.585 88.4858 314.915 88.495 315.226C88.495 315.537 88.5133 315.82 88.5224 316.067L88.0742 315.143C88.8792 315.18 89.6019 315.189 90.2331 315.189C90.8644 315.189 91.4499 315.189 91.9805 315.189C92.3464 315.189 92.6574 315.171 92.9136 315.125C93.1697 315.079 93.3801 315.015 93.5448 314.905C93.7095 314.805 93.8284 314.668 93.9016 314.503C93.9748 314.338 94.0114 314.128 94.0114 313.881C94.0114 313.588 93.9382 313.36 93.801 313.177C93.6637 312.994 93.435 312.866 93.124 312.783C92.8129 312.701 92.4104 312.664 91.9073 312.664C91.5322 312.664 91.1388 312.664 90.7088 312.664C90.288 312.664 89.8489 312.664 89.3915 312.673C88.9341 312.673 88.4767 312.683 88.0193 312.692L88.0376 312.683Z" fill="#ABCE77"/>
<path d="M108.648 312.015C108.648 312.655 108.566 313.231 108.401 313.753C108.237 314.274 108.008 314.732 107.706 315.134C107.404 315.536 107.029 315.875 106.581 316.149C106.132 316.424 105.611 316.634 105.026 316.78C104.44 316.927 103.791 317 103.086 317C102.382 317 101.723 316.927 101.138 316.78C100.552 316.634 100.04 316.424 99.6006 316.149C99.1615 315.875 98.7864 315.536 98.4845 315.134C98.1826 314.732 97.9539 314.274 97.7984 313.753C97.6429 313.231 97.5697 312.655 97.5697 312.015C97.5697 311.375 97.652 310.807 97.8167 310.286C97.9814 309.765 98.2101 309.316 98.5211 308.932C98.8322 308.548 99.2072 308.228 99.6646 307.972C100.113 307.707 100.634 307.514 101.202 307.386C101.778 307.258 102.409 307.194 103.095 307.194C103.955 307.194 104.733 307.295 105.41 307.505C106.087 307.716 106.672 308.018 107.148 308.42C107.624 308.823 107.999 309.316 108.255 309.92C108.511 310.524 108.648 311.219 108.648 312.015ZM103.086 315.225C103.662 315.225 104.166 315.161 104.596 315.024C105.026 314.887 105.391 314.695 105.684 314.43C105.977 314.164 106.196 313.826 106.343 313.423C106.489 313.021 106.572 312.573 106.572 312.07C106.572 311.539 106.498 311.073 106.343 310.689C106.196 310.295 105.977 309.975 105.684 309.71C105.391 309.445 105.026 309.252 104.596 309.124C104.166 308.996 103.662 308.932 103.095 308.932C102.528 308.932 102.034 308.996 101.595 309.124C101.156 309.252 100.799 309.445 100.506 309.701C100.214 309.957 100.003 310.286 99.8476 310.679C99.6921 311.073 99.6189 311.539 99.6189 312.07C99.6189 312.6 99.6921 313.03 99.8476 313.433C99.994 313.835 100.214 314.164 100.506 314.43C100.799 314.695 101.165 314.887 101.595 315.024C102.034 315.152 102.528 315.225 103.095 315.225H103.086Z" fill="#ABCE77"/>
<path d="M110.579 316.762C110.579 316.149 110.597 315.463 110.597 314.713C110.597 313.963 110.597 313.085 110.597 312.088V310.258C110.597 309.7 110.597 309.188 110.597 308.722C110.597 308.255 110.588 307.816 110.579 307.423H113.022C113.095 307.542 113.232 307.725 113.424 307.944C113.616 308.173 113.836 308.438 114.101 308.74C114.357 309.051 114.641 309.38 114.952 309.728C115.263 310.085 115.574 310.441 115.903 310.816C116.224 311.182 116.544 311.548 116.864 311.914C117.184 312.271 117.468 312.618 117.733 312.938C117.916 313.14 118.081 313.359 118.236 313.588C118.392 313.826 118.538 314.063 118.694 314.301C118.84 314.539 118.95 314.777 119.014 315.015L118.474 314.557L118.995 314.32L118.822 315.115C118.803 314.795 118.785 314.484 118.758 314.173C118.73 313.862 118.712 313.551 118.694 313.249C118.684 312.938 118.675 312.646 118.675 312.362C118.675 311.96 118.675 311.557 118.675 311.164C118.675 310.771 118.675 310.386 118.666 310.011C118.666 309.636 118.657 309.28 118.648 308.941C118.648 308.612 118.63 308.31 118.63 308.054C118.63 307.789 118.611 307.578 118.602 307.414H120.523C120.523 307.688 120.505 307.99 120.496 308.319C120.496 308.648 120.477 309.005 120.477 309.398C120.477 309.792 120.477 310.213 120.477 310.661V314.722C120.477 315.454 120.477 316.131 120.505 316.762H118.401C118.282 316.579 118.099 316.332 117.843 316.03C117.587 315.719 117.294 315.372 116.955 314.969C116.617 314.567 116.251 314.146 115.876 313.707C115.501 313.259 115.107 312.819 114.714 312.371C114.321 311.923 113.946 311.502 113.589 311.109C113.378 310.853 113.177 310.597 112.985 310.341C112.793 310.085 112.61 309.828 112.454 309.572C112.299 309.307 112.153 309.06 112.034 308.822L112.756 309.38L112.18 309.517L112.363 308.731C112.4 309.078 112.436 309.417 112.454 309.755C112.473 310.094 112.482 310.414 112.491 310.743C112.491 311.072 112.509 311.393 112.519 311.694C112.519 312.344 112.519 312.938 112.519 313.478C112.519 314.018 112.519 314.503 112.528 314.932C112.528 315.362 112.528 315.728 112.537 316.039C112.537 316.35 112.546 316.588 112.555 316.771H110.597L110.579 316.762Z" fill="#ABCE77"/>
<path d="M127.585 316.762C127.585 316.149 127.604 315.463 127.604 314.713C127.604 313.963 127.604 313.085 127.604 312.088V310.258C127.604 309.7 127.604 309.188 127.604 308.722C127.604 308.255 127.595 307.816 127.585 307.423H130.028C130.101 307.542 130.238 307.725 130.431 307.944C130.623 308.173 130.842 308.438 131.108 308.74C131.373 309.042 131.647 309.38 131.958 309.728C132.269 310.085 132.58 310.441 132.91 310.816C133.23 311.182 133.55 311.548 133.87 311.914C134.181 312.271 134.474 312.618 134.739 312.938C134.922 313.14 135.087 313.359 135.243 313.588C135.398 313.826 135.544 314.063 135.7 314.301C135.846 314.539 135.956 314.777 136.02 315.015L135.48 314.557L136.002 314.32L135.828 315.115C135.81 314.795 135.791 314.484 135.764 314.173C135.737 313.862 135.718 313.551 135.7 313.249C135.682 312.948 135.682 312.646 135.682 312.362C135.682 311.96 135.682 311.557 135.682 311.164C135.682 310.771 135.682 310.386 135.672 310.011C135.672 309.636 135.663 309.28 135.654 308.941C135.654 308.612 135.636 308.31 135.636 308.054C135.636 307.789 135.618 307.578 135.608 307.414H137.53C137.53 307.688 137.511 307.99 137.502 308.319C137.502 308.648 137.484 309.005 137.484 309.398C137.484 309.792 137.484 310.213 137.484 310.661V314.722C137.484 315.454 137.484 316.131 137.511 316.762H135.407C135.288 316.579 135.105 316.332 134.849 316.03C134.593 315.719 134.3 315.372 133.962 314.969C133.623 314.567 133.257 314.146 132.882 313.707C132.507 313.268 132.114 312.819 131.72 312.371C131.327 311.923 130.952 311.502 130.595 311.109C130.385 310.853 130.184 310.597 129.991 310.341C129.799 310.085 129.616 309.828 129.461 309.572C129.305 309.307 129.159 309.06 129.04 308.822L129.763 309.38L129.186 309.517L129.369 308.731C129.415 309.078 129.443 309.417 129.461 309.755C129.479 310.085 129.488 310.414 129.497 310.743C129.497 311.072 129.516 311.393 129.525 311.694C129.525 312.344 129.525 312.938 129.525 313.478C129.525 314.018 129.525 314.503 129.534 314.932C129.534 315.362 129.534 315.728 129.543 316.039C129.543 316.35 129.552 316.588 129.561 316.771H127.604L127.585 316.762Z" fill="#ABCE77"/>
<path d="M148.837 316.762H140.055C140.073 316.35 140.082 315.921 140.091 315.463C140.1 315.006 140.1 314.494 140.1 313.936V310.688C140.1 310.249 140.1 309.829 140.1 309.444C140.1 309.051 140.1 308.694 140.091 308.356C140.082 308.018 140.073 307.707 140.064 307.432H148.846C148.846 307.524 148.846 307.642 148.846 307.789C148.846 307.935 148.846 308.072 148.846 308.191C148.846 308.329 148.846 308.484 148.846 308.649C148.846 308.813 148.846 308.941 148.846 309.024C148.38 309.024 147.895 309.024 147.392 309.024C146.888 309.024 146.376 309.024 145.873 309.024C145.37 309.024 144.876 309.024 144.382 309.024C143.888 309.024 143.43 309.024 142.991 309.024H141.793L142.131 307.889V309.38C142.131 309.691 142.131 310.002 142.131 310.323C142.131 310.643 142.131 310.945 142.131 311.219V314.933C142.131 315.216 142.131 315.482 142.131 315.719C142.131 315.957 142.131 316.158 142.131 316.323L141.811 315.143H144.409C144.903 315.143 145.406 315.143 145.919 315.143C146.431 315.143 146.934 315.143 147.437 315.143H148.855C148.855 315.244 148.855 315.372 148.855 315.536C148.855 315.701 148.855 315.847 148.855 315.994C148.855 316.14 148.855 316.286 148.855 316.433C148.855 316.588 148.855 316.707 148.855 316.808L148.837 316.762ZM141.82 312.747V311.31H144.647C145.141 311.31 145.635 311.31 146.12 311.31C146.605 311.31 147.071 311.31 147.51 311.301C147.95 311.301 148.352 311.301 148.709 311.301V312.792C148.352 312.792 147.95 312.774 147.51 312.774C147.071 312.774 146.605 312.774 146.12 312.774C145.635 312.774 145.141 312.774 144.647 312.774C144.153 312.774 143.659 312.774 143.174 312.774H141.82V312.747Z" fill="#ABCE77"/>
<path d="M159.019 307.414H161.141C161.114 307.789 161.095 308.182 161.086 308.594C161.077 309.005 161.068 309.49 161.068 310.048C161.068 310.286 161.068 310.56 161.077 310.853C161.077 311.155 161.086 311.457 161.086 311.777V312.682C161.086 313.24 161.031 313.743 160.922 314.201C160.812 314.658 160.629 315.051 160.382 315.39C160.135 315.728 159.815 316.012 159.421 316.259C159.028 316.497 158.561 316.68 158.022 316.789C157.482 316.899 156.851 316.954 156.137 316.954C155.424 316.954 154.792 316.899 154.253 316.789C153.704 316.68 153.237 316.497 152.835 316.259C152.432 316.021 152.112 315.728 151.865 315.39C151.618 315.051 151.435 314.658 151.316 314.201C151.197 313.743 151.133 313.24 151.133 312.682C151.133 312.39 151.133 312.088 151.142 311.777C151.142 311.457 151.16 311.155 151.16 310.853C151.16 310.551 151.16 310.286 151.16 310.048C151.16 309.49 151.16 309.005 151.142 308.594C151.133 308.182 151.124 307.789 151.124 307.414H153.246C153.246 307.624 153.228 307.862 153.219 308.145C153.21 308.429 153.201 308.722 153.191 309.033C153.191 309.344 153.191 309.664 153.191 309.984C153.191 310.304 153.191 310.624 153.191 310.944C153.191 311.274 153.191 311.566 153.191 311.85V312.6C153.191 313.204 153.301 313.698 153.512 314.073C153.722 314.448 154.051 314.722 154.49 314.905C154.93 315.088 155.497 315.17 156.183 315.17C156.869 315.17 157.427 315.079 157.848 314.905C158.269 314.731 158.58 314.448 158.781 314.073C158.982 313.698 159.083 313.204 159.083 312.6V311.85C159.083 311.575 159.083 311.274 159.083 310.963C159.083 310.652 159.083 310.322 159.083 310.002C159.083 309.682 159.083 309.353 159.083 309.033C159.083 308.722 159.074 308.42 159.065 308.145C159.065 307.871 159.046 307.624 159.037 307.414H159.019Z" fill="#ABCE77"/>
<path d="M162.577 307.414H171.57C171.57 307.532 171.561 307.661 171.561 307.816V308.74C171.561 308.914 171.561 309.06 171.57 309.188C171.03 309.17 170.49 309.161 169.96 309.152C169.42 309.152 168.917 309.152 168.432 309.142C167.947 309.142 167.499 309.142 167.078 309.142C166.483 309.142 165.788 309.142 165.01 309.142C164.233 309.142 163.419 309.161 162.577 309.188C162.595 309.06 162.604 308.905 162.604 308.749V307.843C162.604 307.688 162.604 307.551 162.577 307.423V307.414ZM166.09 308.209H168.093V315.015C168.093 315.436 168.093 315.801 168.112 316.103C168.13 316.405 168.13 316.625 168.13 316.753C168.029 316.753 167.92 316.753 167.801 316.744C167.682 316.744 167.554 316.734 167.426 316.734H166.739C166.621 316.734 166.502 316.734 166.374 316.744C166.255 316.744 166.136 316.753 166.035 316.753C166.053 316.634 166.063 316.414 166.063 316.103C166.063 315.792 166.063 315.436 166.063 315.024C166.063 314.612 166.062 314.146 166.072 313.615C166.072 313.085 166.072 312.527 166.072 311.941V308.2L166.09 308.209Z" fill="#ABCE77"/>
<path d="M173.107 307.414H178.779C179.373 307.414 179.913 307.468 180.389 307.587C180.864 307.706 181.267 307.88 181.587 308.109C181.907 308.337 182.154 308.621 182.319 308.978C182.484 309.325 182.566 309.746 182.566 310.24C182.566 310.697 182.493 311.1 182.365 311.438C182.227 311.786 182.008 312.069 181.715 312.298C181.422 312.527 181.047 312.701 180.59 312.81C180.133 312.92 179.593 312.984 178.962 312.993L180.032 312.637V313.195L178.971 312.884C179.538 312.92 180.014 312.966 180.398 313.021C180.782 313.076 181.111 313.176 181.377 313.304C181.642 313.432 181.862 313.624 182.035 313.862C182.209 314.109 182.365 314.439 182.493 314.85C182.603 315.125 182.694 315.39 182.776 315.637C182.859 315.884 182.932 316.112 183.005 316.305C183.069 316.497 183.133 316.652 183.188 316.771H181.294C181.157 316.771 181.066 316.744 180.992 316.698C180.928 316.652 180.864 316.561 180.819 316.423C180.773 316.295 180.7 316.085 180.617 315.801C180.498 315.445 180.398 315.134 180.297 314.878C180.206 314.612 180.096 314.402 179.986 314.237C179.876 314.073 179.739 313.945 179.593 313.853C179.446 313.762 179.263 313.698 179.053 313.661C178.843 313.624 178.586 313.606 178.303 313.606H177.69C177.498 313.606 177.306 313.606 177.095 313.606C176.894 313.606 176.684 313.606 176.473 313.606C176.263 313.606 176.034 313.606 175.796 313.606C175.558 313.606 175.284 313.606 174.982 313.606L174.955 312.06C175.064 312.06 175.229 312.06 175.458 312.069C175.686 312.069 175.952 312.088 176.272 312.088C176.583 312.088 176.922 312.088 177.297 312.097C177.663 312.097 178.038 312.097 178.413 312.097C178.934 312.097 179.355 312.033 179.675 311.905C179.986 311.786 180.224 311.603 180.37 311.365C180.517 311.136 180.59 310.853 180.59 310.514C180.59 310.231 180.553 309.993 180.471 309.783C180.389 309.581 180.261 309.426 180.068 309.307C179.876 309.197 179.639 309.115 179.355 309.06C179.071 309.005 178.705 308.978 178.275 308.978H177.836C177.653 308.978 177.443 308.978 177.205 308.978C176.976 308.978 176.739 308.978 176.492 308.987C176.245 308.996 176.016 308.987 175.796 308.987C175.577 308.987 175.366 308.987 175.192 309.005C175.019 309.023 174.863 309.023 174.753 309.023L175.128 308.219C175.128 309.051 175.138 309.874 175.128 310.697C175.128 311.521 175.128 312.307 175.128 313.066C175.128 313.826 175.147 314.512 175.165 315.152C175.183 315.783 175.22 316.314 175.257 316.744H173.116C173.116 316.286 173.134 315.829 173.134 315.372C173.134 314.914 173.134 314.411 173.143 313.881C173.143 313.341 173.143 312.746 173.143 312.079C173.143 311.091 173.143 310.231 173.134 309.508C173.125 308.786 173.116 308.081 173.107 307.414Z" fill="#ABCE77"/>
<path d="M195.163 316.762H192.693C192.648 316.625 192.565 316.414 192.465 316.149C192.364 315.884 192.236 315.573 192.089 315.207C191.943 314.85 191.778 314.457 191.605 314.045C191.422 313.624 191.248 313.204 191.065 312.765C190.882 312.326 190.699 311.896 190.516 311.484C190.333 311.063 190.159 310.679 190.004 310.322C189.83 309.947 189.683 309.627 189.565 309.353C189.446 309.078 189.345 308.831 189.263 308.621C189.18 308.411 189.107 308.228 189.034 308.081L189.583 308.365H188.833L189.391 308.063C189.327 308.219 189.244 308.401 189.153 308.612C189.061 308.822 188.952 309.069 188.833 309.362C188.705 309.655 188.567 309.984 188.394 310.359C188.211 310.789 188.009 311.255 187.799 311.758C187.589 312.252 187.369 312.755 187.149 313.268C186.93 313.771 186.719 314.256 186.518 314.713C186.317 315.17 186.134 315.573 185.988 315.93C185.841 316.286 185.722 316.57 185.649 316.762H183.371C183.536 316.442 183.728 316.058 183.948 315.618C184.167 315.179 184.396 314.704 184.634 314.182C184.872 313.67 185.119 313.14 185.375 312.591C185.631 312.051 185.878 311.511 186.116 310.981C186.354 310.45 186.582 309.956 186.793 309.49C187.003 309.023 187.186 308.621 187.332 308.255C187.479 307.898 187.598 307.615 187.698 307.414H190.754C190.864 307.633 191.001 307.917 191.156 308.273C191.321 308.63 191.504 309.042 191.705 309.49C191.907 309.947 192.135 310.441 192.382 310.972C192.629 311.502 192.876 312.033 193.123 312.563C193.37 313.103 193.617 313.624 193.873 314.137C194.12 314.649 194.358 315.134 194.578 315.582C194.797 316.03 194.999 316.423 195.172 316.753L195.163 316.762ZM185.695 313.167C185.914 313.167 186.171 313.185 186.463 313.185C186.765 313.185 187.076 313.185 187.396 313.195C187.717 313.195 188.037 313.195 188.348 313.195H189.18C189.409 313.195 189.684 313.195 189.995 313.195C190.306 313.195 190.617 313.195 190.937 313.195C191.257 313.195 191.568 313.195 191.861 313.195C192.163 313.195 192.419 313.185 192.648 313.176L192.721 314.685C192.41 314.685 192.108 314.685 191.797 314.676C191.486 314.676 191.175 314.667 190.864 314.667H187.497C187.186 314.667 186.866 314.667 186.546 314.676C186.225 314.676 185.933 314.685 185.658 314.685L185.695 313.176V313.167Z" fill="#ABCE77"/>
<path d="M203.589 316.762H196.289C196.289 316.542 196.307 316.277 196.307 315.957C196.307 315.637 196.307 315.271 196.316 314.859C196.316 314.448 196.316 314.018 196.316 313.542V312.088C196.316 311.338 196.316 310.67 196.316 310.075C196.316 309.481 196.316 308.959 196.316 308.52C196.316 308.072 196.298 307.706 196.289 307.414H198.411C198.393 307.569 198.384 307.761 198.384 307.981C198.384 308.2 198.384 308.465 198.374 308.758C198.374 309.051 198.356 309.362 198.356 309.709C198.356 310.057 198.356 310.423 198.356 310.816V314.256C198.356 314.603 198.356 314.905 198.356 315.179C198.356 315.445 198.356 315.673 198.356 315.847L197.945 314.987H199.17C199.628 314.987 200.113 314.987 200.607 314.987C201.101 314.987 201.604 314.987 202.116 314.987C202.628 314.987 203.113 314.987 203.571 314.96C203.571 315.115 203.571 315.271 203.562 315.408C203.562 315.545 203.552 315.692 203.552 315.847C203.552 316.012 203.552 316.167 203.562 316.323C203.562 316.469 203.571 316.625 203.571 316.771L203.589 316.762Z" fill="#ABCE77"/>
<path d="M74.635 271.85H69.448V285.132C69.448 289.431 72.9335 292.916 77.2331 292.916H86.1069V288.644H74.6259V271.859L74.635 271.85Z" fill="#145559"/>
<path d="M94.3136 273.725L87.178 292.916H92.0174L93.719 288.388H103.846L105.548 292.916H110.671L102.776 271.85H97.0123C95.8048 271.85 94.7344 272.6 94.3136 273.725ZM95.2559 284.235L97.8814 277.146C98.0644 276.661 98.5218 276.341 99.0432 276.341H99.3451L102.3 284.235H95.2559Z" fill="#145559"/>
<path d="M128.454 286.028H127.759L118.958 271.85H112.106V292.44C112.106 292.705 112.317 292.916 112.582 292.916H116.854V278.738H117.577L126.378 292.916H133.23V271.85H128.454V286.028Z" fill="#145559"/>
<path d="M135.718 276.122H143.576V291.544C143.576 292.294 144.189 292.907 144.94 292.907H148.764V276.122H154.875L156.622 271.85H135.709V276.122H135.718Z" fill="#145559"/>
<path d="M170.152 271.566H169.1C161.397 271.566 155.268 275.28 155.268 281.875V282.881C155.268 289.55 161.397 293.19 169.1 293.19H170.152C177.699 293.19 183.7 289.54 183.7 282.881V281.875C183.7 275.271 177.699 271.566 170.152 271.566ZM178.047 282.881C178.047 286.494 174.872 288.443 169.905 288.443H169.1C164.132 288.443 160.958 286.494 160.958 282.881V281.875C160.958 278.289 164.132 276.314 169.1 276.314H169.905C174.872 276.314 178.047 278.299 178.047 281.875V282.881Z" fill="#145559"/>
<path d="M202.564 272.399V286.028H201.868L193.068 271.85H186.216V292.532C186.216 292.742 186.39 292.916 186.6 292.916H190.964V278.738H191.686L200.487 292.916H207.339V271.85H203.112C202.811 271.85 202.564 272.097 202.564 272.399Z" fill="#145559"/>
<path d="M59.6963 271.85H48.1238V292.751C48.1238 292.843 48.197 292.916 48.2884 292.916H53.3108V286.001H59.6963C65.3225 286.001 67.5912 283.577 67.5912 279.46V278.363C67.5912 274.274 65.3316 271.859 59.6963 271.859V271.85ZM62.3401 279.332C62.3401 281.089 61.3064 281.72 59.2572 281.72H53.3108V276.122H59.2572C61.2972 276.122 62.3401 276.78 62.3401 278.482V279.332Z" fill="#145559"/>
<g filter="url(#filter0_in_1571_1172)">
<path d="M196.718 216.41L49.5322 65.0811C49.2852 66.4257 49.0748 67.7794 48.8918 69.1423L194.962 219.319C195.565 218.358 196.16 217.398 196.718 216.41Z" fill="url(#paint0_radial_1571_1172)"/>
<path d="M55.3421 46.5767C54.8664 47.6194 54.4181 48.6805 53.979 49.7507L202.885 202.854C203.278 201.72 203.644 200.567 203.983 199.415L55.3421 46.5767Z" fill="url(#paint1_radial_1571_1172)"/>
<path d="M197.944 173.3C205.501 180.855 206.992 176.072 207.239 172.779V170.766C207.211 170.574 207.211 170.464 207.239 170.428V79.4879C207.239 35.5912 171.643 0 127.732 0C100.726 0 76.8675 13.4645 62.5048 34.0453L197.944 173.3Z" fill="url(#paint2_radial_1571_1172)"/>
<path d="M56.6407 97.0047C49.871 90.7024 48.4714 95.1936 48.2244 98.3402V100.389C48.2518 100.563 48.2518 100.673 48.2244 100.7V176.868C48.2244 220.773 83.8201 256.365 127.732 256.365C150.986 256.365 171.908 246.376 186.454 230.46L56.6407 97.0047Z" fill="url(#paint3_radial_1571_1172)"/>
</g>
<defs>
<filter id="filter0_in_1571_1172" x="48.2244" y="0" width="159.015" height="256.365" filterUnits="userSpaceOnUse" color-interpolation-filters="sRGB">
<feFlood flood-opacity="0" result="BackgroundImageFix"/>
<feBlend mode="normal" in="SourceGraphic" in2="BackgroundImageFix" result="shape"/>
<feColorMatrix in="SourceAlpha" type="matrix" values="0 0 0 0 0 0 0 0 0 0 0 0 0 0 0 0 0 0 127 0" result="hardAlpha"/>
<feOffset dx="-0.492886" dy="1.47866"/>
<feComposite in2="hardAlpha" operator="arithmetic" k2="-1" k3="1"/>
<feColorMatrix type="matrix" values="0 0 0 0 1 0 0 0 0 1 0 0 0 0 1 0 0 0 0.35 0"/>
<feBlend mode="normal" in2="shape" result="effect1_innerShadow_1571_1172"/>
<feTurbulence type="fractalNoise" baseFrequency="4.0577349662780762 4.0577349662780762" stitchTiles="stitch" numOctaves="3" result="noise" seed="6909" />
<feColorMatrix in="noise" type="luminanceToAlpha" result="alphaNoise" />
<feComponentTransfer in="alphaNoise" result="coloredNoise1">
<feFuncA type="discrete" tableValues="1 1 1 1 1 1 1 1 1 1 1 1 1 1 1 1 1 1 1 1 1 1 1 1 1 1 1 1 1 1 1 1 1 1 1 1 1 1 1 1 1 1 1 1 1 1 1 1 1 1 1 0 0 0 0 0 0 0 0 0 0 0 0 0 0 0 0 0 0 0 0 0 0 0 0 0 0 0 0 0 0 0 0 0 0 0 0 0 0 0 0 0 0 0 0 0 0 0 0 0 "/>
</feComponentTransfer>
<feComposite operator="in" in2="effect1_innerShadow_1571_1172" in="coloredNoise1" result="noise1Clipped" />
<feFlood flood-color="rgba(0, 0, 0, 0.25)" result="color1Flood" />
<feComposite operator="in" in2="noise1Clipped" in="color1Flood" result="color1" />
<feMerge result="effect2_noise_1571_1172">
<feMergeNode in="effect1_innerShadow_1571_1172" />
<feMergeNode in="color1" />
</feMerge>
</filter>
<radialGradient id="paint0_radial_1571_1172" cx="0" cy="0" r="1" gradientTransform="matrix(-59.873 98.0221 -173.856 -44.4766 153.743 102.172)" gradientUnits="userSpaceOnUse">
<stop stop-color="#BEE684"/>
<stop offset="1" stop-color="#8BA761"/>
</radialGradient>
<radialGradient id="paint1_radial_1571_1172" cx="0" cy="0" r="1" gradientTransform="matrix(-60.7549 99.3185 -176.417 -45.0648 160.375 84.1586)" gradientUnits="userSpaceOnUse">
<stop stop-color="#BEE684"/>
<stop offset="1" stop-color="#8BA761"/>
</radialGradient>
<radialGradient id="paint2_radial_1571_1172" cx="0" cy="0" r="1" gradientTransform="matrix(-58.6206 112.698 -170.22 -51.1356 165.163 42.6447)" gradientUnits="userSpaceOnUse">
<stop stop-color="#BEE684"/>
<stop offset="1" stop-color="#8BA761"/>
</radialGradient>
<radialGradient id="paint3_radial_1571_1172" cx="0" cy="0" r="1" gradientTransform="matrix(-55.9862 103.297 -162.57 -46.87 146.269 132.915)" gradientUnits="userSpaceOnUse">
<stop stop-color="#BEE684"/>
<stop offset="1" stop-color="#8BA761"/>
</radialGradient>
</defs>
</svg>
