<svg width="255" height="317" viewBox="0 0 255 317" fill="none" xmlns="http://www.w3.org/2000/svg">
<rect y="33.7583" width="254.026" height="196.326" rx="28.5874" fill="#145559"/>
<path d="M58.873 311.228C58.873 311.228 58.8822 311.182 58.8822 311.155V311.009C58.8822 310.524 58.7724 310.14 58.5437 309.838C58.315 309.536 57.9765 309.316 57.5191 309.179C57.0617 309.042 56.4945 308.978 55.8083 308.978C55.3784 308.978 54.985 309.015 54.6374 309.088C54.2897 309.161 53.9787 309.271 53.7043 309.417C53.4298 309.563 53.2102 309.765 53.0181 309.993C52.8352 310.231 52.6888 310.515 52.5882 310.844C52.4875 311.173 52.4418 311.557 52.4418 311.996C52.4418 312.436 52.4875 312.838 52.5882 313.176C52.6888 313.515 52.8352 313.817 53.0273 314.073C53.2194 314.329 53.4572 314.539 53.7408 314.695C54.0153 314.85 54.3355 314.969 54.6923 315.052C55.049 315.134 55.4333 315.17 55.8724 315.17C56.6042 315.17 57.1897 315.088 57.638 314.924C58.0863 314.759 58.4064 314.53 58.6077 314.228C58.809 313.926 58.9096 313.57 58.9096 313.131V313.021C58.9096 313.021 58.9096 312.929 58.9004 312.893C59.0194 312.893 59.1292 312.893 59.2389 312.893C59.3487 312.893 59.4585 312.893 59.5683 312.893H59.9159C60.0897 312.893 60.2635 312.893 60.4282 312.893C60.5929 312.893 60.7667 312.893 60.9405 312.893C60.9405 312.929 60.9405 312.966 60.9314 313.003C60.9314 313.039 60.9314 313.085 60.9314 313.131C60.9314 313.176 60.9497 313.213 60.9497 313.25C60.9497 313.689 60.8856 314.1 60.7575 314.484C60.6295 314.869 60.4373 315.207 60.1903 315.5C59.9433 315.792 59.614 316.049 59.2206 316.259C58.8181 316.469 58.3516 316.634 57.8027 316.753C57.2538 316.872 56.6225 316.927 55.8998 316.927C55.1771 316.927 54.5642 316.863 53.997 316.735C53.4207 316.616 52.9084 316.424 52.4601 316.167C52.0027 315.911 51.6276 315.591 51.3349 315.198C51.033 314.805 50.8043 314.347 50.6487 313.817C50.4932 313.286 50.4109 312.692 50.4109 312.024C50.4109 311.402 50.4841 310.835 50.6396 310.313C50.786 309.801 51.0147 309.344 51.3257 308.96C51.6368 308.575 52.0118 308.255 52.4601 307.99C52.9084 307.734 53.4207 307.542 53.997 307.414C54.5733 307.286 55.1954 307.222 55.8815 307.222C56.5676 307.222 57.1897 307.277 57.7295 307.377C58.2692 307.478 58.7358 307.633 59.1383 307.825C59.5408 308.017 59.8702 308.255 60.1355 308.539C60.4008 308.822 60.602 309.143 60.7392 309.508C60.8765 309.865 60.9405 310.268 60.9405 310.698C60.9405 310.743 60.9405 310.807 60.9405 310.862C60.9405 310.926 60.9405 310.981 60.9405 311.045C60.9405 311.109 60.9405 311.155 60.9314 311.21C60.7758 311.21 60.6112 311.201 60.4373 311.201H59.5957C59.4859 311.201 59.3762 311.201 59.2755 311.201C59.1749 311.201 59.056 311.201 58.9279 311.201L58.873 311.228Z" fill="#ABCE77"/>
<path d="M73.4281 316.762H70.958C70.9123 316.625 70.83 316.414 70.7293 316.149C70.6287 315.884 70.5006 315.573 70.3542 315.207C70.2079 314.85 70.0432 314.457 69.8694 314.045C69.6864 313.624 69.5126 313.204 69.3296 312.765C69.1467 312.326 68.9637 311.896 68.7808 311.484C68.5978 311.063 68.424 310.679 68.2685 310.322C68.0946 309.947 67.9483 309.627 67.8293 309.353C67.7104 309.078 67.6098 308.831 67.5274 308.621C67.4451 308.411 67.3719 308.228 67.2987 308.081L67.8476 308.365H67.0975L67.6555 308.063C67.5915 308.219 67.5092 308.401 67.4177 308.612C67.3262 308.822 67.2164 309.069 67.0975 309.362C66.9694 309.655 66.8322 309.984 66.6584 310.359C66.4754 310.789 66.2741 311.255 66.0637 311.758C65.8533 312.252 65.6338 312.755 65.4142 313.268C65.1946 313.771 64.9842 314.256 64.783 314.713C64.5817 315.17 64.3988 315.573 64.2524 315.93C64.106 316.286 63.9871 316.57 63.9139 316.762H61.636C61.8007 316.442 61.9928 316.058 62.2123 315.618C62.4319 315.179 62.6606 314.704 62.8984 314.182C63.1363 313.67 63.3833 313.14 63.6394 312.591C63.8956 312.051 64.1426 311.511 64.3805 310.981C64.6183 310.45 64.847 309.956 65.0574 309.49C65.2678 309.023 65.4508 308.621 65.5972 308.255C65.7435 307.898 65.8625 307.615 65.9631 307.414H69.0186C69.1284 307.633 69.2656 307.917 69.4211 308.273C69.5858 308.63 69.7688 309.042 69.97 309.49C70.1713 309.947 70.4 310.441 70.647 310.972C70.894 311.502 71.141 312.033 71.388 312.563C71.635 313.103 71.882 313.624 72.1382 314.137C72.3852 314.649 72.623 315.134 72.8426 315.582C73.0621 316.03 73.2634 316.423 73.4372 316.753L73.4281 316.762ZM63.9596 313.167C64.1792 313.167 64.4353 313.185 64.7281 313.185C65.03 313.185 65.341 313.185 65.6612 313.195C65.9814 313.195 66.3016 313.195 66.6126 313.195H67.4451C67.6738 313.195 67.9483 313.195 68.2593 313.195C68.5703 313.195 68.8814 313.195 69.2016 313.195C69.5218 313.195 69.8328 313.195 70.1255 313.195C70.4274 313.195 70.6836 313.185 70.9123 313.176L70.9855 314.685C70.6744 314.685 70.3725 314.685 70.0615 314.676C69.7505 314.676 69.4394 314.667 69.1284 314.667H65.7618C65.4508 314.667 65.1306 314.667 64.8104 314.676C64.4902 314.676 64.1975 314.685 63.923 314.685L63.9596 313.176V313.167Z" fill="#ABCE77"/>
<path d="M74.5898 307.414H80.2617C80.8564 307.414 81.3961 307.468 81.8718 307.587C82.3475 307.706 82.7501 307.88 83.0703 308.109C83.3904 308.337 83.6374 308.621 83.8021 308.978C83.9668 309.325 84.0491 309.746 84.0491 310.24C84.0491 310.697 83.9759 311.1 83.8479 311.438C83.7106 311.786 83.4911 312.069 83.1983 312.298C82.9056 312.527 82.5305 312.701 82.0731 312.81C81.6157 312.92 81.0759 312.984 80.4447 312.993L81.5151 312.637V313.195L80.4539 312.884C81.021 312.92 81.4968 312.966 81.881 313.021C82.2652 313.076 82.5945 313.176 82.8598 313.304C83.1251 313.432 83.3447 313.624 83.5185 313.862C83.6923 314.109 83.8479 314.439 83.9759 314.85C84.0857 315.125 84.1772 315.39 84.2595 315.637C84.3419 315.884 84.415 316.112 84.4882 316.305C84.5523 316.497 84.6163 316.652 84.6712 316.771H82.7775C82.6403 316.771 82.5488 316.744 82.4756 316.698C82.4116 316.652 82.3475 316.561 82.3018 316.423C82.2561 316.295 82.1829 316.085 82.1005 315.801C81.9816 315.445 81.881 315.134 81.7804 314.878C81.6889 314.612 81.5791 314.402 81.4693 314.237C81.3595 314.073 81.2223 313.945 81.0759 313.853C80.9296 313.762 80.7466 313.698 80.5362 313.661C80.3258 313.624 80.0696 313.606 79.786 313.606H79.1731C78.981 313.606 78.7889 313.606 78.5785 313.606C78.3772 313.606 78.1668 313.606 77.9564 313.606C77.746 313.606 77.5173 313.606 77.2794 313.606C77.0416 313.606 76.7671 313.606 76.4652 313.606L76.4378 312.06C76.5476 312.06 76.7122 312.06 76.9409 312.069C77.1696 312.069 77.4349 312.088 77.7551 312.088C78.0662 312.088 78.4047 312.088 78.7797 312.097C79.1457 312.097 79.5207 312.097 79.8958 312.097C80.4173 312.097 80.8381 312.033 81.1583 311.905C81.4693 311.786 81.7072 311.603 81.8535 311.365C81.9999 311.136 82.0731 310.853 82.0731 310.514C82.0731 310.231 82.0365 309.993 81.9542 309.783C81.8718 309.581 81.7438 309.426 81.5516 309.307C81.3595 309.197 81.1217 309.115 80.8381 309.06C80.5545 309.005 80.1886 308.978 79.7586 308.978H79.3195C79.1365 308.978 78.9261 308.978 78.6883 308.978C78.4595 308.978 78.2217 308.978 77.9747 308.987C77.7277 308.996 77.499 308.987 77.2794 308.987C77.0599 308.987 76.8495 308.987 76.6756 309.005C76.5018 309.023 76.3463 309.023 76.2365 309.023L76.6116 308.219C76.6116 309.051 76.6208 309.874 76.6116 310.697C76.6116 311.521 76.6116 312.307 76.6116 313.066C76.6116 313.826 76.6299 314.512 76.6482 315.152C76.6665 315.783 76.7031 316.314 76.7397 316.744H74.599C74.599 316.286 74.6173 315.829 74.6173 315.372C74.6173 314.914 74.6173 314.411 74.6264 313.881C74.6264 313.341 74.6264 312.746 74.6264 312.079C74.6264 311.091 74.6264 310.231 74.6173 309.508C74.6081 308.786 74.599 308.081 74.5898 307.414Z" fill="#ABCE77"/>
<path d="M92.6485 316.762H86.4094C86.446 316.122 86.4643 315.436 86.4735 314.695C86.4735 313.954 86.4826 313.085 86.4826 312.088C86.4826 311.42 86.4826 310.817 86.4735 310.259C86.4643 309.701 86.4643 309.198 86.4643 308.722C86.4643 308.246 86.446 307.816 86.4186 307.405H92.5204C93.1059 307.405 93.6091 307.451 94.039 307.551C94.469 307.643 94.8258 307.789 95.1094 307.972C95.393 308.164 95.6034 308.402 95.7406 308.713C95.8778 309.024 95.9419 309.381 95.9419 309.81C95.9419 310.149 95.9053 310.442 95.8321 310.679C95.7589 310.917 95.64 311.118 95.4753 311.292C95.3107 311.466 95.1094 311.612 94.8624 311.75C94.6154 311.878 94.2769 311.969 93.8561 312.015C93.4353 312.061 92.9687 312.088 92.4381 312.097L93.6091 311.859V312.271L92.4381 312.006C92.9321 312.042 93.3804 312.07 93.7646 312.088C94.1488 312.106 94.469 312.17 94.7343 312.28C95.0545 312.381 95.3198 312.518 95.5119 312.692C95.704 312.866 95.8504 313.085 95.9419 313.341C96.0334 313.597 96.0791 313.908 96.0791 314.265C96.0791 314.695 96.0059 315.07 95.8687 315.39C95.7315 315.71 95.5119 315.966 95.2192 316.159C94.9264 316.351 94.5696 316.506 94.1488 316.598C93.728 316.698 93.2249 316.744 92.6577 316.744L92.6485 316.762ZM88.0378 312.683L88.0653 311.338C88.788 311.365 89.4741 311.375 90.1236 311.384C90.7731 311.393 91.3678 311.384 91.9075 311.384C92.3924 311.384 92.7766 311.32 93.0785 311.219C93.3804 311.118 93.5999 310.972 93.728 310.78C93.8652 310.588 93.9293 310.35 93.9293 310.057C93.9293 309.765 93.8652 309.527 93.7372 309.353C93.6091 309.179 93.3987 309.06 93.1059 308.978C92.8132 308.896 92.4381 308.859 91.9807 308.859C91.3769 308.859 90.7457 308.859 90.0779 308.859C89.4192 308.859 88.7148 308.877 87.9646 308.905L88.5044 308.082C88.5044 308.283 88.5044 308.521 88.4769 308.804C88.4586 309.088 88.4495 309.399 88.4495 309.746V313.122C88.4495 313.506 88.4495 313.872 88.4678 314.228C88.4861 314.585 88.4861 314.915 88.4952 315.226C88.4952 315.537 88.5135 315.82 88.5227 316.067L88.0744 315.143C88.8794 315.18 89.6022 315.189 90.2334 315.189C90.8646 315.189 91.4501 315.189 91.9807 315.189C92.3466 315.189 92.6577 315.171 92.9138 315.125C93.17 315.079 93.3804 315.015 93.545 314.905C93.7097 314.805 93.8286 314.668 93.9018 314.503C93.975 314.338 94.0116 314.128 94.0116 313.881C94.0116 313.588 93.9384 313.36 93.8012 313.177C93.664 312.994 93.4353 312.866 93.1242 312.783C92.8132 312.701 92.4107 312.664 91.9075 312.664C91.5324 312.664 91.1391 312.664 90.7091 312.664C90.2883 312.664 89.8492 312.664 89.3917 312.673C88.9343 312.673 88.4769 312.683 88.0195 312.692L88.0378 312.683Z" fill="#ABCE77"/>
<path d="M108.648 312.015C108.648 312.655 108.566 313.231 108.401 313.753C108.237 314.274 108.008 314.732 107.706 315.134C107.404 315.536 107.029 315.875 106.581 316.149C106.133 316.424 105.611 316.634 105.026 316.78C104.44 316.927 103.791 317 103.086 317C102.382 317 101.723 316.927 101.138 316.78C100.552 316.634 100.04 316.424 99.6007 316.149C99.1616 315.875 98.7865 315.536 98.4846 315.134C98.1828 314.732 97.954 314.274 97.7985 313.753C97.643 313.231 97.5698 312.655 97.5698 312.015C97.5698 311.375 97.6522 310.807 97.8168 310.286C97.9815 309.765 98.2102 309.316 98.5212 308.932C98.8323 308.548 99.2074 308.228 99.6648 307.972C100.113 307.707 100.634 307.514 101.202 307.386C101.778 307.258 102.409 307.194 103.095 307.194C103.955 307.194 104.733 307.295 105.41 307.505C106.087 307.716 106.672 308.018 107.148 308.42C107.624 308.823 107.999 309.316 108.255 309.92C108.511 310.524 108.648 311.219 108.648 312.015ZM103.086 315.225C103.663 315.225 104.166 315.161 104.596 315.024C105.026 314.887 105.392 314.695 105.684 314.43C105.977 314.164 106.197 313.826 106.343 313.423C106.489 313.021 106.572 312.573 106.572 312.07C106.572 311.539 106.498 311.073 106.343 310.689C106.197 310.295 105.977 309.975 105.684 309.71C105.392 309.445 105.026 309.252 104.596 309.124C104.166 308.996 103.663 308.932 103.095 308.932C102.528 308.932 102.034 308.996 101.595 309.124C101.156 309.252 100.799 309.445 100.506 309.701C100.214 309.957 100.003 310.286 99.8477 310.679C99.6922 311.073 99.619 311.539 99.619 312.07C99.619 312.6 99.6922 313.03 99.8477 313.433C99.9941 313.835 100.214 314.164 100.506 314.43C100.799 314.695 101.165 314.887 101.595 315.024C102.034 315.152 102.528 315.225 103.095 315.225H103.086Z" fill="#ABCE77"/>
<path d="M110.579 316.762C110.579 316.149 110.597 315.463 110.597 314.713C110.597 313.963 110.597 313.085 110.597 312.088V310.258C110.597 309.7 110.597 309.188 110.597 308.722C110.597 308.255 110.588 307.816 110.579 307.423H113.022C113.095 307.542 113.232 307.725 113.424 307.944C113.616 308.173 113.836 308.438 114.101 308.74C114.357 309.051 114.641 309.38 114.952 309.728C115.263 310.085 115.574 310.441 115.903 310.816C116.224 311.182 116.544 311.548 116.864 311.914C117.184 312.271 117.468 312.618 117.733 312.938C117.916 313.14 118.081 313.359 118.236 313.588C118.392 313.826 118.538 314.063 118.694 314.301C118.84 314.539 118.95 314.777 119.014 315.015L118.474 314.557L118.995 314.32L118.822 315.115C118.803 314.795 118.785 314.484 118.758 314.173C118.73 313.862 118.712 313.551 118.694 313.249C118.684 312.938 118.675 312.646 118.675 312.362C118.675 311.96 118.675 311.557 118.675 311.164C118.675 310.771 118.675 310.386 118.666 310.011C118.666 309.636 118.657 309.28 118.648 308.941C118.648 308.612 118.63 308.31 118.63 308.054C118.63 307.789 118.611 307.578 118.602 307.414H120.523C120.523 307.688 120.505 307.99 120.496 308.319C120.496 308.648 120.477 309.005 120.477 309.398C120.477 309.792 120.477 310.213 120.477 310.661V314.722C120.477 315.454 120.477 316.131 120.505 316.762H118.401C118.282 316.579 118.099 316.332 117.843 316.03C117.587 315.719 117.294 315.372 116.955 314.969C116.617 314.567 116.251 314.146 115.876 313.707C115.501 313.259 115.107 312.819 114.714 312.371C114.321 311.923 113.946 311.502 113.589 311.109C113.378 310.853 113.177 310.597 112.985 310.341C112.793 310.085 112.61 309.828 112.454 309.572C112.299 309.307 112.153 309.06 112.034 308.822L112.756 309.38L112.18 309.517L112.363 308.731C112.4 309.078 112.436 309.417 112.454 309.755C112.473 310.094 112.482 310.414 112.491 310.743C112.491 311.072 112.509 311.393 112.519 311.694C112.519 312.344 112.519 312.938 112.519 313.478C112.519 314.018 112.519 314.503 112.528 314.932C112.528 315.362 112.528 315.728 112.537 316.039C112.537 316.35 112.546 316.588 112.555 316.771H110.597L110.579 316.762Z" fill="#ABCE77"/>
<path d="M127.585 316.762C127.585 316.149 127.604 315.463 127.604 314.713C127.604 313.963 127.604 313.085 127.604 312.088V310.258C127.604 309.7 127.604 309.188 127.604 308.722C127.604 308.255 127.595 307.816 127.585 307.423H130.028C130.101 307.542 130.238 307.725 130.431 307.944C130.623 308.173 130.842 308.438 131.108 308.74C131.373 309.042 131.647 309.38 131.958 309.728C132.269 310.085 132.58 310.441 132.91 310.816C133.23 311.182 133.55 311.548 133.87 311.914C134.181 312.271 134.474 312.618 134.739 312.938C134.922 313.14 135.087 313.359 135.243 313.588C135.398 313.826 135.544 314.063 135.7 314.301C135.846 314.539 135.956 314.777 136.02 315.015L135.48 314.557L136.002 314.32L135.828 315.115C135.81 314.795 135.791 314.484 135.764 314.173C135.737 313.862 135.718 313.551 135.7 313.249C135.682 312.948 135.682 312.646 135.682 312.362C135.682 311.96 135.682 311.557 135.682 311.164C135.682 310.771 135.682 310.386 135.672 310.011C135.672 309.636 135.663 309.28 135.654 308.941C135.654 308.612 135.636 308.31 135.636 308.054C135.636 307.789 135.618 307.578 135.608 307.414H137.53C137.53 307.688 137.511 307.99 137.502 308.319C137.502 308.648 137.484 309.005 137.484 309.398C137.484 309.792 137.484 310.213 137.484 310.661V314.722C137.484 315.454 137.484 316.131 137.511 316.762H135.407C135.288 316.579 135.105 316.332 134.849 316.03C134.593 315.719 134.3 315.372 133.962 314.969C133.623 314.567 133.257 314.146 132.882 313.707C132.507 313.268 132.114 312.819 131.72 312.371C131.327 311.923 130.952 311.502 130.595 311.109C130.385 310.853 130.184 310.597 129.991 310.341C129.799 310.085 129.616 309.828 129.461 309.572C129.305 309.307 129.159 309.06 129.04 308.822L129.763 309.38L129.186 309.517L129.369 308.731C129.415 309.078 129.443 309.417 129.461 309.755C129.479 310.085 129.488 310.414 129.497 310.743C129.497 311.072 129.516 311.393 129.525 311.694C129.525 312.344 129.525 312.938 129.525 313.478C129.525 314.018 129.525 314.503 129.534 314.932C129.534 315.362 129.534 315.728 129.543 316.039C129.543 316.35 129.552 316.588 129.561 316.771H127.604L127.585 316.762Z" fill="#ABCE77"/>
<path d="M148.837 316.762H140.055C140.073 316.35 140.082 315.921 140.091 315.463C140.1 315.006 140.1 314.494 140.1 313.936V310.688C140.1 310.249 140.1 309.829 140.1 309.444C140.1 309.051 140.1 308.694 140.091 308.356C140.082 308.018 140.073 307.707 140.064 307.432H148.846C148.846 307.524 148.846 307.642 148.846 307.789C148.846 307.935 148.846 308.072 148.846 308.191C148.846 308.329 148.846 308.484 148.846 308.649C148.846 308.813 148.846 308.941 148.846 309.024C148.38 309.024 147.895 309.024 147.392 309.024C146.888 309.024 146.376 309.024 145.873 309.024C145.37 309.024 144.876 309.024 144.382 309.024C143.888 309.024 143.43 309.024 142.991 309.024H141.793L142.131 307.889V309.38C142.131 309.691 142.131 310.002 142.131 310.323C142.131 310.643 142.131 310.945 142.131 311.219V314.933C142.131 315.216 142.131 315.482 142.131 315.719C142.131 315.957 142.131 316.158 142.131 316.323L141.811 315.143H144.409C144.903 315.143 145.406 315.143 145.919 315.143C146.431 315.143 146.934 315.143 147.437 315.143H148.855C148.855 315.244 148.855 315.372 148.855 315.536C148.855 315.701 148.855 315.847 148.855 315.994C148.855 316.14 148.855 316.286 148.855 316.433C148.855 316.588 148.855 316.707 148.855 316.808L148.837 316.762ZM141.82 312.747V311.31H144.647C145.141 311.31 145.635 311.31 146.12 311.31C146.605 311.31 147.071 311.31 147.51 311.301C147.95 311.301 148.352 311.301 148.709 311.301V312.792C148.352 312.792 147.95 312.774 147.51 312.774C147.071 312.774 146.605 312.774 146.12 312.774C145.635 312.774 145.141 312.774 144.647 312.774C144.153 312.774 143.659 312.774 143.174 312.774H141.82V312.747Z" fill="#ABCE77"/>
<path d="M159.019 307.414H161.141C161.114 307.789 161.096 308.182 161.086 308.594C161.077 309.005 161.068 309.49 161.068 310.048C161.068 310.286 161.068 310.56 161.077 310.853C161.077 311.155 161.086 311.457 161.086 311.777V312.682C161.086 313.24 161.032 313.743 160.922 314.201C160.812 314.658 160.629 315.051 160.382 315.39C160.135 315.728 159.815 316.012 159.421 316.259C159.028 316.497 158.562 316.68 158.022 316.789C157.482 316.899 156.851 316.954 156.137 316.954C155.424 316.954 154.792 316.899 154.253 316.789C153.704 316.68 153.237 316.497 152.835 316.259C152.432 316.021 152.112 315.728 151.865 315.39C151.618 315.051 151.435 314.658 151.316 314.201C151.197 313.743 151.133 313.24 151.133 312.682C151.133 312.39 151.133 312.088 151.142 311.777C151.142 311.457 151.161 311.155 151.161 310.853C151.161 310.551 151.161 310.286 151.161 310.048C151.161 309.49 151.161 309.005 151.142 308.594C151.133 308.182 151.124 307.789 151.124 307.414H153.246C153.246 307.624 153.228 307.862 153.219 308.145C153.21 308.429 153.201 308.722 153.192 309.033C153.192 309.344 153.192 309.664 153.192 309.984C153.192 310.304 153.192 310.624 153.192 310.944C153.192 311.274 153.192 311.566 153.192 311.85V312.6C153.192 313.204 153.301 313.698 153.512 314.073C153.722 314.448 154.051 314.722 154.491 314.905C154.93 315.088 155.497 315.17 156.183 315.17C156.869 315.17 157.427 315.079 157.848 314.905C158.269 314.731 158.58 314.448 158.781 314.073C158.982 313.698 159.083 313.204 159.083 312.6V311.85C159.083 311.575 159.083 311.274 159.083 310.963C159.083 310.652 159.083 310.322 159.083 310.002C159.083 309.682 159.083 309.353 159.083 309.033C159.083 308.722 159.074 308.42 159.065 308.145C159.065 307.871 159.046 307.624 159.037 307.414H159.019Z" fill="#ABCE77"/>
<path d="M162.577 307.414H171.57C171.57 307.532 171.561 307.661 171.561 307.816V308.74C171.561 308.914 171.561 309.06 171.57 309.188C171.03 309.17 170.49 309.161 169.96 309.152C169.42 309.152 168.917 309.152 168.432 309.142C167.947 309.142 167.499 309.142 167.078 309.142C166.483 309.142 165.788 309.142 165.011 309.142C164.233 309.142 163.419 309.161 162.577 309.188C162.595 309.06 162.605 308.905 162.605 308.749V307.843C162.605 307.688 162.605 307.551 162.577 307.423V307.414ZM166.09 308.209H168.094V315.015C168.094 315.436 168.094 315.801 168.112 316.103C168.13 316.405 168.13 316.625 168.13 316.753C168.029 316.753 167.92 316.753 167.801 316.744C167.682 316.744 167.554 316.734 167.426 316.734H166.74C166.621 316.734 166.502 316.734 166.374 316.744C166.255 316.744 166.136 316.753 166.035 316.753C166.053 316.634 166.063 316.414 166.063 316.103C166.063 315.792 166.063 315.436 166.063 315.024C166.063 314.612 166.063 314.146 166.072 313.615C166.072 313.085 166.072 312.527 166.072 311.941V308.2L166.09 308.209Z" fill="#ABCE77"/>
<path d="M173.107 307.414H178.779C179.373 307.414 179.913 307.468 180.389 307.587C180.865 307.706 181.267 307.88 181.587 308.109C181.908 308.337 182.155 308.621 182.319 308.978C182.484 309.325 182.566 309.746 182.566 310.24C182.566 310.697 182.493 311.1 182.365 311.438C182.228 311.786 182.008 312.069 181.715 312.298C181.423 312.527 181.048 312.701 180.59 312.81C180.133 312.92 179.593 312.984 178.962 312.993L180.032 312.637V313.195L178.971 312.884C179.538 312.92 180.014 312.966 180.398 313.021C180.782 313.076 181.112 313.176 181.377 313.304C181.642 313.432 181.862 313.624 182.036 313.862C182.209 314.109 182.365 314.439 182.493 314.85C182.603 315.125 182.694 315.39 182.777 315.637C182.859 315.884 182.932 316.112 183.005 316.305C183.069 316.497 183.133 316.652 183.188 316.771H181.295C181.157 316.771 181.066 316.744 180.993 316.698C180.929 316.652 180.865 316.561 180.819 316.423C180.773 316.295 180.7 316.085 180.618 315.801C180.499 315.445 180.398 315.134 180.297 314.878C180.206 314.612 180.096 314.402 179.986 314.237C179.877 314.073 179.739 313.945 179.593 313.853C179.447 313.762 179.264 313.698 179.053 313.661C178.843 313.624 178.587 313.606 178.303 313.606H177.69C177.498 313.606 177.306 313.606 177.096 313.606C176.894 313.606 176.684 313.606 176.473 313.606C176.263 313.606 176.034 313.606 175.797 313.606C175.559 313.606 175.284 313.606 174.982 313.606L174.955 312.06C175.065 312.06 175.229 312.06 175.458 312.069C175.687 312.069 175.952 312.088 176.272 312.088C176.583 312.088 176.922 312.088 177.297 312.097C177.663 312.097 178.038 312.097 178.413 312.097C178.934 312.097 179.355 312.033 179.675 311.905C179.986 311.786 180.224 311.603 180.371 311.365C180.517 311.136 180.59 310.853 180.59 310.514C180.59 310.231 180.554 309.993 180.471 309.783C180.389 309.581 180.261 309.426 180.069 309.307C179.877 309.197 179.639 309.115 179.355 309.06C179.072 309.005 178.706 308.978 178.276 308.978H177.837C177.654 308.978 177.443 308.978 177.205 308.978C176.977 308.978 176.739 308.978 176.492 308.987C176.245 308.996 176.016 308.987 175.797 308.987C175.577 308.987 175.367 308.987 175.193 309.005C175.019 309.023 174.863 309.023 174.754 309.023L175.129 308.219C175.129 309.051 175.138 309.874 175.129 310.697C175.129 311.521 175.129 312.307 175.129 313.066C175.129 313.826 175.147 314.512 175.165 315.152C175.184 315.783 175.22 316.314 175.257 316.744H173.116C173.116 316.286 173.134 315.829 173.134 315.372C173.134 314.914 173.134 314.411 173.144 313.881C173.144 313.341 173.144 312.746 173.144 312.079C173.144 311.091 173.144 310.231 173.134 309.508C173.125 308.786 173.116 308.081 173.107 307.414Z" fill="#ABCE77"/>
<path d="M195.163 316.762H192.693C192.648 316.625 192.565 316.414 192.465 316.149C192.364 315.884 192.236 315.573 192.09 315.207C191.943 314.85 191.779 314.457 191.605 314.045C191.422 313.624 191.248 313.204 191.065 312.765C190.882 312.326 190.699 311.896 190.516 311.484C190.333 311.063 190.159 310.679 190.004 310.322C189.83 309.947 189.684 309.627 189.565 309.353C189.446 309.078 189.345 308.831 189.263 308.621C189.18 308.411 189.107 308.228 189.034 308.081L189.583 308.365H188.833L189.391 308.063C189.327 308.219 189.245 308.401 189.153 308.612C189.062 308.822 188.952 309.069 188.833 309.362C188.705 309.655 188.568 309.984 188.394 310.359C188.211 310.789 188.009 311.255 187.799 311.758C187.589 312.252 187.369 312.755 187.15 313.268C186.93 313.771 186.72 314.256 186.518 314.713C186.317 315.17 186.134 315.573 185.988 315.93C185.841 316.286 185.722 316.57 185.649 316.762H183.371C183.536 316.442 183.728 316.058 183.948 315.618C184.167 315.179 184.396 314.704 184.634 314.182C184.872 313.67 185.119 313.14 185.375 312.591C185.631 312.051 185.878 311.511 186.116 310.981C186.354 310.45 186.582 309.956 186.793 309.49C187.003 309.023 187.186 308.621 187.333 308.255C187.479 307.898 187.598 307.615 187.698 307.414H190.754C190.864 307.633 191.001 307.917 191.156 308.273C191.321 308.63 191.504 309.042 191.705 309.49C191.907 309.947 192.135 310.441 192.382 310.972C192.629 311.502 192.876 312.033 193.123 312.563C193.37 313.103 193.617 313.624 193.874 314.137C194.121 314.649 194.358 315.134 194.578 315.582C194.797 316.03 194.999 316.423 195.173 316.753L195.163 316.762ZM185.695 313.167C185.915 313.167 186.171 313.185 186.463 313.185C186.765 313.185 187.076 313.185 187.397 313.195C187.717 313.195 188.037 313.195 188.348 313.195H189.18C189.409 313.195 189.684 313.195 189.995 313.195C190.306 313.195 190.617 313.195 190.937 313.195C191.257 313.195 191.568 313.195 191.861 313.195C192.163 313.195 192.419 313.185 192.648 313.176L192.721 314.685C192.41 314.685 192.108 314.685 191.797 314.676C191.486 314.676 191.175 314.667 190.864 314.667H187.497C187.186 314.667 186.866 314.667 186.546 314.676C186.226 314.676 185.933 314.685 185.658 314.685L185.695 313.176V313.167Z" fill="#ABCE77"/>
<path d="M203.589 316.762H196.289C196.289 316.542 196.307 316.277 196.307 315.957C196.307 315.637 196.307 315.271 196.316 314.859C196.316 314.448 196.316 314.018 196.316 313.542V312.088C196.316 311.338 196.316 310.67 196.316 310.075C196.316 309.481 196.316 308.959 196.316 308.52C196.316 308.072 196.298 307.706 196.289 307.414H198.411C198.393 307.569 198.384 307.761 198.384 307.981C198.384 308.2 198.384 308.465 198.375 308.758C198.375 309.051 198.356 309.362 198.356 309.709C198.356 310.057 198.356 310.423 198.356 310.816V314.256C198.356 314.603 198.356 314.905 198.356 315.179C198.356 315.445 198.356 315.673 198.356 315.847L197.945 314.987H199.171C199.628 314.987 200.113 314.987 200.607 314.987C201.101 314.987 201.604 314.987 202.116 314.987C202.629 314.987 203.113 314.987 203.571 314.96C203.571 315.115 203.571 315.271 203.562 315.408C203.562 315.545 203.553 315.692 203.553 315.847C203.553 316.012 203.553 316.167 203.562 316.323C203.562 316.469 203.571 316.625 203.571 316.771L203.589 316.762Z" fill="#ABCE77"/>
<path d="M74.6348 271.85H69.4478V285.132C69.4478 289.431 72.9332 292.916 77.2329 292.916H86.1067V288.644H74.6257V271.859L74.6348 271.85Z" fill="white"/>
<path d="M94.3134 273.725L87.1777 292.916H92.0171L93.7187 288.388H103.846L105.547 292.916H110.67L102.775 271.85H97.0121C95.8045 271.85 94.7342 272.6 94.3134 273.725ZM95.2556 284.235L97.8812 277.146C98.0641 276.661 98.5215 276.341 99.043 276.341H99.3449L102.3 284.235H95.2556Z" fill="white"/>
<path d="M128.454 286.028H127.759L118.958 271.85H112.106V292.44C112.106 292.705 112.317 292.916 112.582 292.916H116.854V278.738H117.577L126.378 292.916H133.23V271.85H128.454V286.028Z" fill="white"/>
<path d="M135.718 276.122H143.576V291.544C143.576 292.294 144.189 292.907 144.939 292.907H148.763V276.122H154.874L156.622 271.85H135.709V276.122H135.718Z" fill="white"/>
<path d="M170.152 271.566H169.1C161.397 271.566 155.268 275.28 155.268 281.875V282.881C155.268 289.55 161.397 293.19 169.1 293.19H170.152C177.699 293.19 183.7 289.54 183.7 282.881V281.875C183.7 275.271 177.699 271.566 170.152 271.566ZM178.047 282.881C178.047 286.494 174.872 288.443 169.905 288.443H169.1C164.132 288.443 160.958 286.494 160.958 282.881V281.875C160.958 278.289 164.132 276.314 169.1 276.314H169.905C174.872 276.314 178.047 278.299 178.047 281.875V282.881Z" fill="white"/>
<path d="M202.563 272.399V286.028H201.868L193.068 271.85H186.216V292.532C186.216 292.742 186.389 292.916 186.6 292.916H190.964V278.738H191.686L200.487 292.916H207.339V271.85H203.112C202.81 271.85 202.563 272.097 202.563 272.399Z" fill="white"/>
<path d="M59.696 271.85H48.1235V292.751C48.1235 292.843 48.1967 292.916 48.2882 292.916H53.3106V286.001H59.696C65.3222 286.001 67.591 283.577 67.591 279.46V278.363C67.591 274.274 65.3314 271.859 59.696 271.859V271.85ZM62.3399 279.332C62.3399 281.089 61.3061 281.72 59.2569 281.72H53.3106V276.122H59.2569C61.297 276.122 62.3399 276.78 62.3399 278.482V279.332Z" fill="white"/>
<g filter="url(#filter0_in_1571_1083)">
<path d="M196.718 216.41L49.5325 65.0811C49.2855 66.4257 49.0751 67.7794 48.8921 69.1423L194.962 219.319C195.566 218.358 196.16 217.398 196.718 216.41Z" fill="url(#paint0_radial_1571_1083)"/>
<path d="M55.3423 46.5767C54.8666 47.6194 54.4184 48.6805 53.9792 49.7507L202.885 202.854C203.278 201.72 203.644 200.567 203.983 199.415L55.3423 46.5767Z" fill="url(#paint1_radial_1571_1083)"/>
<path d="M197.944 173.3C205.501 180.855 206.992 176.072 207.239 172.779V170.766C207.212 170.574 207.212 170.464 207.239 170.428V79.4879C207.239 35.5912 171.643 0 127.732 0C100.726 0 76.8676 13.4645 62.5049 34.0453L197.944 173.3Z" fill="url(#paint2_radial_1571_1083)"/>
<path d="M56.641 97.0047C49.8713 90.7024 48.4716 95.1936 48.2246 98.3402V100.389C48.2521 100.563 48.2521 100.673 48.2246 100.7V176.868C48.2246 220.773 83.8204 256.365 127.732 256.365C150.987 256.365 171.909 246.376 186.454 230.46L56.641 97.0047Z" fill="url(#paint3_radial_1571_1083)"/>
</g>
<defs>
<filter id="filter0_in_1571_1083" x="48.2246" y="0" width="159.014" height="256.365" filterUnits="userSpaceOnUse" color-interpolation-filters="sRGB">
<feFlood flood-opacity="0" result="BackgroundImageFix"/>
<feBlend mode="normal" in="SourceGraphic" in2="BackgroundImageFix" result="shape"/>
<feColorMatrix in="SourceAlpha" type="matrix" values="0 0 0 0 0 0 0 0 0 0 0 0 0 0 0 0 0 0 127 0" result="hardAlpha"/>
<feOffset dx="-0.492886" dy="1.47866"/>
<feComposite in2="hardAlpha" operator="arithmetic" k2="-1" k3="1"/>
<feColorMatrix type="matrix" values="0 0 0 0 1 0 0 0 0 1 0 0 0 0 1 0 0 0 0.35 0"/>
<feBlend mode="normal" in2="shape" result="effect1_innerShadow_1571_1083"/>
<feTurbulence type="fractalNoise" baseFrequency="4.0577349662780762 4.0577349662780762" stitchTiles="stitch" numOctaves="3" result="noise" seed="6909" />
<feColorMatrix in="noise" type="luminanceToAlpha" result="alphaNoise" />
<feComponentTransfer in="alphaNoise" result="coloredNoise1">
<feFuncA type="discrete" tableValues="1 1 1 1 1 1 1 1 1 1 1 1 1 1 1 1 1 1 1 1 1 1 1 1 1 1 1 1 1 1 1 1 1 1 1 1 1 1 1 1 1 1 1 1 1 1 1 1 1 1 1 0 0 0 0 0 0 0 0 0 0 0 0 0 0 0 0 0 0 0 0 0 0 0 0 0 0 0 0 0 0 0 0 0 0 0 0 0 0 0 0 0 0 0 0 0 0 0 0 0 "/>
</feComponentTransfer>
<feComposite operator="in" in2="effect1_innerShadow_1571_1083" in="coloredNoise1" result="noise1Clipped" />
<feFlood flood-color="rgba(0, 0, 0, 0.25)" result="color1Flood" />
<feComposite operator="in" in2="noise1Clipped" in="color1Flood" result="color1" />
<feMerge result="effect2_noise_1571_1083">
<feMergeNode in="effect1_innerShadow_1571_1083" />
<feMergeNode in="color1" />
</feMerge>
</filter>
<radialGradient id="paint0_radial_1571_1083" cx="0" cy="0" r="1" gradientTransform="matrix(-59.873 98.0221 -173.856 -44.4766 153.743 102.172)" gradientUnits="userSpaceOnUse">
<stop stop-color="#BEE684"/>
<stop offset="1" stop-color="#8BA761"/>
</radialGradient>
<radialGradient id="paint1_radial_1571_1083" cx="0" cy="0" r="1" gradientTransform="matrix(-60.7549 99.3185 -176.417 -45.0648 160.375 84.1586)" gradientUnits="userSpaceOnUse">
<stop stop-color="#BEE684"/>
<stop offset="1" stop-color="#8BA761"/>
</radialGradient>
<radialGradient id="paint2_radial_1571_1083" cx="0" cy="0" r="1" gradientTransform="matrix(-58.6206 112.698 -170.22 -51.1356 165.163 42.6447)" gradientUnits="userSpaceOnUse">
<stop stop-color="#BEE684"/>
<stop offset="1" stop-color="#8BA761"/>
</radialGradient>
<radialGradient id="paint3_radial_1571_1083" cx="0" cy="0" r="1" gradientTransform="matrix(-55.9862 103.297 -162.57 -46.87 146.269 132.915)" gradientUnits="userSpaceOnUse">
<stop stop-color="#BEE684"/>
<stop offset="1" stop-color="#8BA761"/>
</radialGradient>
</defs>
</svg>
