<svg width="160" height="317" viewBox="0 0 160 317" fill="none" xmlns="http://www.w3.org/2000/svg">
<path d="M10.7495 311.228C10.7495 311.228 10.7586 311.182 10.7586 311.155V311.009C10.7586 310.524 10.6488 310.14 10.4201 309.838C10.1914 309.536 9.85294 309.316 9.39553 309.179C8.93812 309.042 8.37093 308.978 7.68481 308.978C7.25484 308.978 6.86147 309.015 6.51384 309.088C6.1662 309.161 5.85516 309.271 5.58072 309.417C5.30627 309.563 5.08671 309.765 4.8946 309.993C4.71163 310.231 4.56526 310.515 4.46463 310.844C4.364 311.173 4.31826 311.557 4.31826 311.996C4.31826 312.436 4.364 312.838 4.46463 313.176C4.56526 313.515 4.71163 313.817 4.90375 314.073C5.09586 314.329 5.33371 314.539 5.61731 314.695C5.89176 314.85 6.21194 314.969 6.56873 315.052C6.92551 315.134 7.30973 315.17 7.74885 315.17C8.48071 315.17 9.06619 315.088 9.51446 314.924C9.96272 314.759 10.2829 314.53 10.4842 314.228C10.6854 313.926 10.7861 313.57 10.7861 313.131V313.021C10.7861 313.021 10.7861 312.929 10.7769 312.893C10.8958 312.893 11.0056 312.893 11.1154 312.893C11.2252 312.893 11.335 312.893 11.4447 312.893H11.7924C11.9662 312.893 12.14 312.893 12.3047 312.893C12.4693 312.893 12.6432 312.893 12.817 312.893C12.817 312.929 12.817 312.966 12.8078 313.003C12.8078 313.039 12.8078 313.085 12.8078 313.131C12.8078 313.176 12.8261 313.213 12.8261 313.25C12.8261 313.689 12.7621 314.1 12.634 314.484C12.5059 314.869 12.3138 315.207 12.0668 315.5C11.8198 315.792 11.4905 316.049 11.0971 316.259C10.6946 316.469 10.228 316.634 9.67912 316.753C9.13023 316.872 8.499 316.927 7.77629 316.927C7.05358 316.927 6.44065 316.863 5.87346 316.735C5.29712 316.616 4.78482 316.424 4.33656 316.167C3.87915 315.911 3.50407 315.591 3.21132 315.198C2.90943 314.805 2.68073 314.347 2.52521 313.817C2.36969 313.286 2.28735 312.692 2.28735 312.024C2.28735 311.402 2.36054 310.835 2.51606 310.313C2.66243 309.801 2.89114 309.344 3.20218 308.96C3.51322 308.575 3.88829 308.255 4.33656 307.99C4.78482 307.734 5.29712 307.542 5.87346 307.414C6.4498 307.286 7.07188 307.222 7.758 307.222C8.44411 307.222 9.06619 307.277 9.60594 307.377C10.1457 307.478 10.6122 307.633 11.0148 307.825C11.4173 308.017 11.7466 308.255 12.0119 308.539C12.2772 308.822 12.4785 309.143 12.6157 309.508C12.7529 309.865 12.817 310.268 12.817 310.698C12.817 310.743 12.817 310.807 12.817 310.862C12.817 310.926 12.817 310.981 12.817 311.045C12.817 311.109 12.817 311.155 12.8078 311.21C12.6523 311.21 12.4876 311.201 12.3138 311.201H11.4722C11.3624 311.201 11.2526 311.201 11.152 311.201C11.0514 311.201 10.9324 311.201 10.8044 311.201L10.7495 311.228Z" fill="white"/>
<path d="M25.3044 316.762H22.8344C22.7886 316.625 22.7063 316.414 22.6057 316.149C22.505 315.884 22.377 315.573 22.2306 315.207C22.0842 314.85 21.9196 314.457 21.7457 314.045C21.5628 313.624 21.389 313.204 21.206 312.765C21.023 312.326 20.8401 311.896 20.6571 311.484C20.4741 311.063 20.3003 310.679 20.1448 310.322C19.971 309.947 19.8246 309.627 19.7057 309.353C19.5868 309.078 19.4861 308.831 19.4038 308.621C19.3215 308.411 19.2483 308.228 19.1751 308.081L19.724 308.365H18.9738L19.5319 308.063C19.4678 308.219 19.3855 308.401 19.294 308.612C19.2025 308.822 19.0927 309.069 18.9738 309.362C18.8457 309.655 18.7085 309.984 18.5347 310.359C18.3517 310.789 18.1505 311.255 17.9401 311.758C17.7297 312.252 17.5101 312.755 17.2905 313.268C17.071 313.771 16.8606 314.256 16.6593 314.713C16.4581 315.17 16.2751 315.573 16.1287 315.93C15.9824 316.286 15.8634 316.57 15.7902 316.762H13.5123C13.677 316.442 13.8691 316.058 14.0887 315.618C14.3082 315.179 14.5369 314.704 14.7748 314.182C15.0126 313.67 15.2596 313.14 15.5158 312.591C15.7719 312.051 16.0189 311.511 16.2568 310.981C16.4947 310.45 16.7234 309.956 16.9338 309.49C17.1442 309.023 17.3271 308.621 17.4735 308.255C17.6199 307.898 17.7388 307.615 17.8394 307.414H20.895C21.0047 307.633 21.142 307.917 21.2975 308.273C21.4621 308.63 21.6451 309.042 21.8464 309.49C22.0476 309.947 22.2763 310.441 22.5233 310.972C22.7703 311.502 23.0173 312.033 23.2643 312.563C23.5113 313.103 23.7583 313.624 24.0145 314.137C24.2615 314.649 24.4994 315.134 24.7189 315.582C24.9385 316.03 25.1397 316.423 25.3135 316.753L25.3044 316.762ZM15.836 313.167C16.0555 313.167 16.3117 313.185 16.6044 313.185C16.9063 313.185 17.2174 313.185 17.5375 313.195C17.8577 313.195 18.1779 313.195 18.489 313.195H19.3215C19.5502 313.195 19.8246 313.195 20.1356 313.195C20.4467 313.195 20.7577 313.195 21.0779 313.195C21.3981 313.195 21.7091 313.195 22.0019 313.195C22.3038 313.195 22.5599 313.185 22.7886 313.176L22.8618 314.685C22.5508 314.685 22.2489 314.685 21.9378 314.676C21.6268 314.676 21.3158 314.667 21.0047 314.667H17.6382C17.3271 314.667 17.007 314.667 16.6868 314.676C16.3666 314.676 16.0738 314.685 15.7994 314.685L15.836 313.176V313.167Z" fill="white"/>
<path d="M26.4661 307.414H32.138C32.7326 307.414 33.2723 307.468 33.7481 307.587C34.2238 307.706 34.6263 307.88 34.9465 308.109C35.2667 308.337 35.5137 308.621 35.6783 308.978C35.843 309.325 35.9253 309.746 35.9253 310.24C35.9253 310.697 35.8521 311.1 35.7241 311.438C35.5868 311.786 35.3673 312.069 35.0745 312.298C34.7818 312.527 34.4067 312.701 33.9493 312.81C33.4919 312.92 32.9522 312.984 32.3209 312.993L33.3913 312.637V313.195L32.3301 312.884C32.8973 312.92 33.373 312.966 33.7572 313.021C34.1414 313.076 34.4708 313.176 34.7361 313.304C35.0014 313.432 35.2209 313.624 35.3947 313.862C35.5686 314.109 35.7241 314.439 35.8521 314.85C35.9619 315.125 36.0534 315.39 36.1357 315.637C36.2181 315.884 36.2913 316.112 36.3644 316.305C36.4285 316.497 36.4925 316.652 36.5474 316.771H34.6537C34.5165 316.771 34.425 316.744 34.3518 316.698C34.2878 316.652 34.2238 316.561 34.178 316.423C34.1323 316.295 34.0591 316.085 33.9768 315.801C33.8578 315.445 33.7572 315.134 33.6566 314.878C33.5651 314.612 33.4553 314.402 33.3455 314.237C33.2358 314.073 33.0985 313.945 32.9522 313.853C32.8058 313.762 32.6228 313.698 32.4124 313.661C32.202 313.624 31.9459 313.606 31.6623 313.606H31.0493C30.8572 313.606 30.6651 313.606 30.4547 313.606C30.2534 313.606 30.043 313.606 29.8326 313.606C29.6222 313.606 29.3935 313.606 29.1556 313.606C28.9178 313.606 28.6433 313.606 28.3415 313.606L28.314 312.06C28.4238 312.06 28.5885 312.06 28.8172 312.069C29.0459 312.069 29.3112 312.088 29.6314 312.088C29.9424 312.088 30.2809 312.088 30.656 312.097C31.0219 312.097 31.397 312.097 31.772 312.097C32.2935 312.097 32.7143 312.033 33.0345 311.905C33.3455 311.786 33.5834 311.603 33.7298 311.365C33.8761 311.136 33.9493 310.853 33.9493 310.514C33.9493 310.231 33.9127 309.993 33.8304 309.783C33.7481 309.581 33.62 309.426 33.4279 309.307C33.2358 309.197 32.9979 309.115 32.7143 309.06C32.4307 309.005 32.0648 308.978 31.6348 308.978H31.1957C31.0127 308.978 30.8023 308.978 30.5645 308.978C30.3358 308.978 30.0979 308.978 29.8509 308.987C29.6039 308.996 29.3752 308.987 29.1556 308.987C28.9361 308.987 28.7257 308.987 28.5519 309.005C28.378 309.023 28.2225 309.023 28.1127 309.023L28.4878 308.219C28.4878 309.051 28.497 309.874 28.4878 310.697C28.4878 311.521 28.4878 312.307 28.4878 313.066C28.4878 313.826 28.5061 314.512 28.5244 315.152C28.5427 315.783 28.5793 316.314 28.6159 316.744H26.4752C26.4752 316.286 26.4935 315.829 26.4935 315.372C26.4935 314.914 26.4935 314.411 26.5027 313.881C26.5027 313.341 26.5027 312.746 26.5027 312.079C26.5027 311.091 26.5027 310.231 26.4935 309.508C26.4844 308.786 26.4752 308.081 26.4661 307.414Z" fill="white"/>
<path d="M44.5247 316.762H38.2856C38.3222 316.122 38.3405 315.436 38.3497 314.695C38.3497 313.954 38.3588 313.085 38.3588 312.088C38.3588 311.42 38.3588 310.817 38.3497 310.259C38.3405 309.701 38.3405 309.198 38.3405 308.722C38.3405 308.246 38.3222 307.816 38.2948 307.405H44.3967C44.9822 307.405 45.4853 307.451 45.9153 307.551C46.3452 307.643 46.702 307.789 46.9856 307.972C47.2692 308.164 47.4796 308.402 47.6168 308.713C47.7541 309.024 47.8181 309.381 47.8181 309.81C47.8181 310.149 47.7815 310.442 47.7083 310.679C47.6351 310.917 47.5162 311.118 47.3515 311.292C47.1869 311.466 46.9856 311.612 46.7386 311.75C46.4916 311.878 46.1531 311.969 45.7323 312.015C45.3115 312.061 44.8449 312.088 44.3143 312.097L45.4853 311.859V312.271L44.3143 312.006C44.8083 312.042 45.2566 312.07 45.6408 312.088C46.025 312.106 46.3452 312.17 46.6105 312.28C46.9307 312.381 47.196 312.518 47.3881 312.692C47.5802 312.866 47.7266 313.085 47.8181 313.341C47.9096 313.597 47.9553 313.908 47.9553 314.265C47.9553 314.695 47.8821 315.07 47.7449 315.39C47.6077 315.71 47.3881 315.966 47.0954 316.159C46.8026 316.351 46.4459 316.506 46.0251 316.598C45.6042 316.698 45.1011 316.744 44.5339 316.744L44.5247 316.762ZM39.914 312.683L39.9415 311.338C40.6642 311.365 41.3503 311.375 41.9998 311.384C42.6494 311.393 43.244 311.384 43.7837 311.384C44.2686 311.384 44.6528 311.32 44.9547 311.219C45.2566 311.118 45.4762 310.972 45.6042 310.78C45.7415 310.588 45.8055 310.35 45.8055 310.057C45.8055 309.765 45.7415 309.527 45.6134 309.353C45.4853 309.179 45.2749 309.06 44.9822 308.978C44.6894 308.896 44.3143 308.859 43.8569 308.859C43.2531 308.859 42.6219 308.859 41.9541 308.859C41.2954 308.859 40.591 308.877 39.8408 308.905L40.3806 308.082C40.3806 308.283 40.3806 308.521 40.3531 308.804C40.3349 309.088 40.3257 309.399 40.3257 309.746V313.122C40.3257 313.506 40.3257 313.872 40.344 314.228C40.3623 314.585 40.3623 314.915 40.3714 315.226C40.3714 315.537 40.3897 315.82 40.3989 316.067L39.9506 315.143C40.7557 315.18 41.4784 315.189 42.1096 315.189C42.7408 315.189 43.3263 315.189 43.8569 315.189C44.2228 315.189 44.5339 315.171 44.79 315.125C45.0462 315.079 45.2566 315.015 45.4213 314.905C45.5859 314.805 45.7049 314.668 45.778 314.503C45.8512 314.338 45.8878 314.128 45.8878 313.881C45.8878 313.588 45.8146 313.36 45.6774 313.177C45.5402 312.994 45.3115 312.866 45.0004 312.783C44.6894 312.701 44.2869 312.664 43.7837 312.664C43.4087 312.664 43.0153 312.664 42.5853 312.664C42.1645 312.664 41.7254 312.664 41.268 312.673C40.8106 312.673 40.3531 312.683 39.8957 312.692L39.914 312.683Z" fill="white"/>
<path d="M60.5247 312.015C60.5247 312.655 60.4423 313.231 60.2777 313.753C60.113 314.274 59.8843 314.732 59.5824 315.134C59.2805 315.536 58.9054 315.875 58.4572 316.149C58.0089 316.424 57.4875 316.634 56.902 316.78C56.3165 316.927 55.667 317 54.9626 317C54.2581 317 53.5995 316.927 53.014 316.78C52.4285 316.634 51.9162 316.424 51.4771 316.149C51.038 315.875 50.6629 315.536 50.361 315.134C50.0591 314.732 49.8304 314.274 49.6749 313.753C49.5194 313.231 49.4462 312.655 49.4462 312.015C49.4462 311.375 49.5285 310.807 49.6932 310.286C49.8578 309.765 50.0865 309.316 50.3976 308.932C50.7086 308.548 51.0837 308.228 51.5411 307.972C51.9894 307.707 52.5108 307.514 53.078 307.386C53.6544 307.258 54.2856 307.194 54.9717 307.194C55.8316 307.194 56.6092 307.295 57.2862 307.505C57.9632 307.716 58.5487 308.018 59.0244 308.42C59.5001 308.823 59.8752 309.316 60.1313 309.92C60.3875 310.524 60.5247 311.219 60.5247 312.015ZM54.9626 315.225C55.5389 315.225 56.042 315.161 56.472 315.024C56.902 314.887 57.2679 314.695 57.5606 314.43C57.8534 314.164 58.073 313.826 58.2193 313.423C58.3657 313.021 58.448 312.573 58.448 312.07C58.448 311.539 58.3748 311.073 58.2193 310.689C58.073 310.295 57.8534 309.975 57.5606 309.71C57.2679 309.445 56.902 309.252 56.472 309.124C56.042 308.996 55.5389 308.932 54.9717 308.932C54.4045 308.932 53.9105 308.996 53.4714 309.124C53.0323 309.252 52.6755 309.445 52.3827 309.701C52.09 309.957 51.8796 310.286 51.7241 310.679C51.5686 311.073 51.4954 311.539 51.4954 312.07C51.4954 312.6 51.5686 313.03 51.7241 313.433C51.8705 313.835 52.09 314.164 52.3827 314.43C52.6755 314.695 53.0414 314.887 53.4714 315.024C53.9105 315.152 54.4045 315.225 54.9717 315.225H54.9626Z" fill="white"/>
<path d="M62.4556 316.762C62.4556 316.149 62.4739 315.463 62.4739 314.713C62.4739 313.963 62.4739 313.085 62.4739 312.088V310.258C62.4739 309.7 62.4739 309.188 62.4739 308.722C62.4739 308.255 62.4647 307.816 62.4556 307.423H64.8981C64.9713 307.542 65.1086 307.725 65.3007 307.944C65.4928 308.173 65.7123 308.438 65.9776 308.74C66.2338 309.051 66.5174 309.38 66.8284 309.728C67.1395 310.085 67.4505 310.441 67.7798 310.816C68.1 311.182 68.4202 311.548 68.7404 311.914C69.0606 312.271 69.3442 312.618 69.6095 312.938C69.7924 313.14 69.9571 313.359 70.1126 313.588C70.2682 313.826 70.4145 314.063 70.5701 314.301C70.7164 314.539 70.8262 314.777 70.8902 315.015L70.3505 314.557L70.8719 314.32L70.6981 315.115C70.6798 314.795 70.6615 314.484 70.6341 314.173C70.6066 313.862 70.5883 313.551 70.5701 313.249C70.5609 312.938 70.5518 312.646 70.5518 312.362C70.5518 311.96 70.5518 311.557 70.5518 311.164C70.5518 310.771 70.5518 310.386 70.5426 310.011C70.5426 309.636 70.5335 309.28 70.5243 308.941C70.5243 308.612 70.506 308.31 70.506 308.054C70.506 307.789 70.4877 307.578 70.4786 307.414H72.3997C72.3997 307.688 72.3814 307.99 72.3723 308.319C72.3723 308.648 72.354 309.005 72.354 309.398C72.354 309.792 72.354 310.213 72.354 310.661V314.722C72.354 315.454 72.354 316.131 72.3814 316.762H70.2773C70.1584 316.579 69.9754 316.332 69.7193 316.03C69.4631 315.719 69.1704 315.372 68.8319 314.969C68.4934 314.567 68.1275 314.146 67.7524 313.707C67.3773 313.259 66.9839 312.819 66.5906 312.371C66.1972 311.923 65.8221 311.502 65.4653 311.109C65.2549 310.853 65.0537 310.597 64.8616 310.341C64.6694 310.085 64.4865 309.828 64.331 309.572C64.1754 309.307 64.0291 309.06 63.9101 308.822L64.6328 309.38L64.0565 309.517L64.2395 308.731C64.2761 309.078 64.3127 309.417 64.331 309.755C64.3493 310.094 64.3584 310.414 64.3676 310.743C64.3676 311.072 64.3858 311.393 64.395 311.694C64.395 312.344 64.395 312.938 64.395 313.478C64.395 314.018 64.395 314.503 64.4041 314.932C64.4041 315.362 64.4041 315.728 64.4133 316.039C64.4133 316.35 64.4224 316.588 64.4316 316.771H62.4739L62.4556 316.762Z" fill="white"/>
<path d="M79.4619 316.762C79.4619 316.149 79.4802 315.463 79.4802 314.713C79.4802 313.963 79.4802 313.085 79.4802 312.088V310.258C79.4802 309.7 79.4802 309.188 79.4802 308.722C79.4802 308.255 79.4711 307.816 79.4619 307.423H81.9045C81.9777 307.542 82.1149 307.725 82.307 307.944C82.4991 308.173 82.7187 308.438 82.984 308.74C83.2493 309.042 83.5237 309.38 83.8348 309.728C84.1458 310.085 84.4568 310.441 84.7862 310.816C85.1064 311.182 85.4266 311.548 85.7468 311.914C86.0578 312.271 86.3505 312.618 86.6158 312.938C86.7988 313.14 86.9635 313.359 87.119 313.588C87.2745 313.826 87.4209 314.063 87.5764 314.301C87.7228 314.539 87.8325 314.777 87.8966 315.015L87.3568 314.557L87.8783 314.32L87.7045 315.115C87.6862 314.795 87.6679 314.484 87.6404 314.173C87.613 313.862 87.5947 313.551 87.5764 313.249C87.5581 312.948 87.5581 312.646 87.5581 312.362C87.5581 311.96 87.5581 311.557 87.5581 311.164C87.5581 310.771 87.5581 310.386 87.5489 310.011C87.5489 309.636 87.5398 309.28 87.5307 308.941C87.5307 308.612 87.5124 308.31 87.5124 308.054C87.5124 307.789 87.4941 307.578 87.4849 307.414H89.406C89.406 307.688 89.3877 307.99 89.3786 308.319C89.3786 308.648 89.3603 309.005 89.3603 309.398C89.3603 309.792 89.3603 310.213 89.3603 310.661V314.722C89.3603 315.454 89.3603 316.131 89.3877 316.762H87.2837C87.1647 316.579 86.9818 316.332 86.7256 316.03C86.4695 315.719 86.1767 315.372 85.8382 314.969C85.4997 314.567 85.1338 314.146 84.7587 313.707C84.3837 313.268 83.9903 312.819 83.5969 312.371C83.2035 311.923 82.8285 311.502 82.4717 311.109C82.2613 310.853 82.06 310.597 81.8679 310.341C81.6758 310.085 81.4928 309.828 81.3373 309.572C81.1818 309.307 81.0354 309.06 80.9165 308.822L81.6392 309.38L81.0629 309.517L81.2458 308.731C81.2916 309.078 81.319 309.417 81.3373 309.755C81.3556 310.085 81.3647 310.414 81.3739 310.743C81.3739 311.072 81.3922 311.393 81.4013 311.694C81.4013 312.344 81.4013 312.938 81.4013 313.478C81.4013 314.018 81.4013 314.503 81.4105 314.932C81.4105 315.362 81.4105 315.728 81.4196 316.039C81.4196 316.35 81.4288 316.588 81.4379 316.771H79.4802L79.4619 316.762Z" fill="white"/>
<path d="M100.713 316.762H91.9312C91.9494 316.35 91.9586 315.921 91.9677 315.463C91.9769 315.006 91.9769 314.494 91.9769 313.936V310.688C91.9769 310.249 91.9769 309.829 91.9769 309.444C91.9769 309.051 91.9769 308.694 91.9677 308.356C91.9586 308.018 91.9495 307.707 91.9403 307.432H100.723C100.723 307.524 100.723 307.642 100.723 307.789C100.723 307.935 100.723 308.072 100.723 308.191C100.723 308.329 100.723 308.484 100.723 308.649C100.723 308.813 100.723 308.941 100.723 309.024C100.256 309.024 99.7712 309.024 99.268 309.024C98.7649 309.024 98.2526 309.024 97.7494 309.024C97.2463 309.024 96.7523 309.024 96.2583 309.024C95.7643 309.024 95.3068 309.024 94.8677 309.024H93.6693L94.0078 307.889V309.38C94.0078 309.691 94.0078 310.002 94.0078 310.323C94.0078 310.643 94.0078 310.945 94.0078 311.219V314.933C94.0078 315.216 94.0078 315.482 94.0078 315.719C94.0078 315.957 94.0078 316.158 94.0078 316.323L93.6876 315.143H96.2857C96.7797 315.143 97.2829 315.143 97.7952 315.143C98.3075 315.143 98.8106 315.143 99.3138 315.143H100.732C100.732 315.244 100.732 315.372 100.732 315.536C100.732 315.701 100.732 315.847 100.732 315.994C100.732 316.14 100.732 316.286 100.732 316.433C100.732 316.588 100.732 316.707 100.732 316.808L100.713 316.762ZM93.6968 312.747V311.31H96.5236C97.0176 311.31 97.5116 311.31 97.9964 311.31C98.4813 311.31 98.9478 311.31 99.387 311.301C99.8261 311.301 100.229 311.301 100.585 311.301V312.792C100.229 312.792 99.8261 312.774 99.387 312.774C98.9478 312.774 98.4813 312.774 97.9964 312.774C97.5116 312.774 97.0176 312.774 96.5236 312.774C96.0296 312.774 95.5356 312.774 95.0507 312.774H93.6968V312.747Z" fill="white"/>
<path d="M110.895 307.414H113.018C112.99 307.789 112.972 308.182 112.963 308.594C112.954 309.005 112.945 309.49 112.945 310.048C112.945 310.286 112.945 310.56 112.954 310.853C112.954 311.155 112.963 311.457 112.963 311.777V312.682C112.963 313.24 112.908 313.743 112.798 314.201C112.688 314.658 112.506 315.051 112.259 315.39C112.011 315.728 111.691 316.012 111.298 316.259C110.905 316.497 110.438 316.68 109.898 316.789C109.359 316.899 108.727 316.954 108.014 316.954C107.3 316.954 106.669 316.899 106.129 316.789C105.58 316.68 105.114 316.497 104.711 316.259C104.309 316.021 103.989 315.728 103.741 315.39C103.494 315.051 103.312 314.658 103.193 314.201C103.074 313.743 103.01 313.24 103.01 312.682C103.01 312.39 103.01 312.088 103.019 311.777C103.019 311.457 103.037 311.155 103.037 310.853C103.037 310.551 103.037 310.286 103.037 310.048C103.037 309.49 103.037 309.005 103.019 308.594C103.01 308.182 103 307.789 103 307.414H105.123C105.123 307.624 105.105 307.862 105.095 308.145C105.086 308.429 105.077 308.722 105.068 309.033C105.068 309.344 105.068 309.664 105.068 309.984C105.068 310.304 105.068 310.624 105.068 310.944C105.068 311.274 105.068 311.566 105.068 311.85V312.6C105.068 313.204 105.178 313.698 105.388 314.073C105.599 314.448 105.928 314.722 106.367 314.905C106.806 315.088 107.373 315.17 108.059 315.17C108.746 315.17 109.304 315.079 109.724 314.905C110.145 314.731 110.456 314.448 110.658 314.073C110.859 313.698 110.959 313.204 110.959 312.6V311.85C110.959 311.575 110.959 311.274 110.959 310.963C110.959 310.652 110.959 310.322 110.959 310.002C110.959 309.682 110.959 309.353 110.959 309.033C110.959 308.722 110.95 308.42 110.941 308.145C110.941 307.871 110.923 307.624 110.914 307.414H110.895Z" fill="white"/>
<path d="M114.453 307.414H123.446C123.446 307.532 123.437 307.661 123.437 307.816V308.74C123.437 308.914 123.437 309.06 123.446 309.188C122.906 309.17 122.367 309.161 121.836 309.152C121.296 309.152 120.793 309.152 120.308 309.142C119.823 309.142 119.375 309.142 118.954 309.142C118.36 309.142 117.664 309.142 116.887 309.142C116.109 309.142 115.295 309.161 114.453 309.188C114.472 309.06 114.481 308.905 114.481 308.749V307.843C114.481 307.688 114.481 307.551 114.453 307.423V307.414ZM117.966 308.209H119.97V315.015C119.97 315.436 119.97 315.801 119.988 316.103C120.006 316.405 120.006 316.625 120.006 316.753C119.906 316.753 119.796 316.753 119.677 316.744C119.558 316.744 119.43 316.734 119.302 316.734H118.616C118.497 316.734 118.378 316.734 118.25 316.744C118.131 316.744 118.012 316.753 117.911 316.753C117.93 316.634 117.939 316.414 117.939 316.103C117.939 315.792 117.939 315.436 117.939 315.024C117.939 314.612 117.939 314.146 117.948 313.615C117.948 313.085 117.948 312.527 117.948 311.941V308.2L117.966 308.209Z" fill="white"/>
<path d="M124.983 307.414H130.655C131.25 307.414 131.789 307.468 132.265 307.587C132.741 307.706 133.143 307.88 133.464 308.109C133.784 308.337 134.031 308.621 134.195 308.978C134.36 309.325 134.442 309.746 134.442 310.24C134.442 310.697 134.369 311.1 134.241 311.438C134.104 311.786 133.884 312.069 133.592 312.298C133.299 312.527 132.924 312.701 132.466 312.81C132.009 312.92 131.469 312.984 130.838 312.993L131.908 312.637V313.195L130.847 312.884C131.414 312.92 131.89 312.966 132.274 313.021C132.659 313.076 132.988 313.176 133.253 313.304C133.518 313.432 133.738 313.624 133.912 313.862C134.086 314.109 134.241 314.439 134.369 314.85C134.479 315.125 134.571 315.39 134.653 315.637C134.735 315.884 134.808 316.112 134.882 316.305C134.946 316.497 135.01 316.652 135.065 316.771H133.171C133.034 316.771 132.942 316.744 132.869 316.698C132.805 316.652 132.741 316.561 132.695 316.423C132.649 316.295 132.576 316.085 132.494 315.801C132.375 315.445 132.274 315.134 132.174 314.878C132.082 314.612 131.972 314.402 131.863 314.237C131.753 314.073 131.616 313.945 131.469 313.853C131.323 313.762 131.14 313.698 130.93 313.661C130.719 313.624 130.463 313.606 130.179 313.606H129.566C129.374 313.606 129.182 313.606 128.972 313.606C128.771 313.606 128.56 313.606 128.35 313.606C128.139 313.606 127.911 313.606 127.673 313.606C127.435 313.606 127.16 313.606 126.859 313.606L126.831 312.06C126.941 312.06 127.106 312.06 127.334 312.069C127.563 312.069 127.828 312.088 128.148 312.088C128.459 312.088 128.798 312.088 129.173 312.097C129.539 312.097 129.914 312.097 130.289 312.097C130.811 312.097 131.231 312.033 131.552 311.905C131.863 311.786 132.1 311.603 132.247 311.365C132.393 311.136 132.466 310.853 132.466 310.514C132.466 310.231 132.43 309.993 132.347 309.783C132.265 309.581 132.137 309.426 131.945 309.307C131.753 309.197 131.515 309.115 131.231 309.06C130.948 309.005 130.582 308.978 130.152 308.978H129.713C129.53 308.978 129.319 308.978 129.082 308.978C128.853 308.978 128.615 308.978 128.368 308.987C128.121 308.996 127.892 308.987 127.673 308.987C127.453 308.987 127.243 308.987 127.069 309.005C126.895 309.023 126.74 309.023 126.63 309.023L127.005 308.219C127.005 309.051 127.014 309.874 127.005 310.697C127.005 311.521 127.005 312.307 127.005 313.066C127.005 313.826 127.023 314.512 127.042 315.152C127.06 315.783 127.096 316.314 127.133 316.744H124.992C124.992 316.286 125.011 315.829 125.011 315.372C125.011 314.914 125.011 314.411 125.02 313.881C125.02 313.341 125.02 312.746 125.02 312.079C125.02 311.091 125.02 310.231 125.011 309.508C125.001 308.786 124.992 308.081 124.983 307.414Z" fill="white"/>
<path d="M147.04 316.762H144.57C144.524 316.625 144.442 316.414 144.341 316.149C144.24 315.884 144.112 315.573 143.966 315.207C143.819 314.85 143.655 314.457 143.481 314.045C143.298 313.624 143.124 313.204 142.941 312.765C142.758 312.326 142.575 311.896 142.392 311.484C142.209 311.063 142.036 310.679 141.88 310.322C141.706 309.947 141.56 309.627 141.441 309.353C141.322 309.078 141.221 308.831 141.139 308.621C141.057 308.411 140.984 308.228 140.91 308.081L141.459 308.365H140.709L141.267 308.063C141.203 308.219 141.121 308.401 141.029 308.612C140.938 308.822 140.828 309.069 140.709 309.362C140.581 309.655 140.444 309.984 140.27 310.359C140.087 310.789 139.886 311.255 139.675 311.758C139.465 312.252 139.245 312.755 139.026 313.268C138.806 313.771 138.596 314.256 138.395 314.713C138.193 315.17 138.01 315.573 137.864 315.93C137.718 316.286 137.599 316.57 137.525 316.762H135.248C135.412 316.442 135.604 316.058 135.824 315.618C136.043 315.179 136.272 314.704 136.51 314.182C136.748 313.67 136.995 313.14 137.251 312.591C137.507 312.051 137.754 311.511 137.992 310.981C138.23 310.45 138.459 309.956 138.669 309.49C138.879 309.023 139.062 308.621 139.209 308.255C139.355 307.898 139.474 307.615 139.575 307.414H142.63C142.74 307.633 142.877 307.917 143.033 308.273C143.197 308.63 143.38 309.042 143.582 309.49C143.783 309.947 144.012 310.441 144.259 310.972C144.506 311.502 144.753 312.033 145 312.563C145.247 313.103 145.494 313.624 145.75 314.137C145.997 314.649 146.235 315.134 146.454 315.582C146.674 316.03 146.875 316.423 147.049 316.753L147.04 316.762ZM137.571 313.167C137.791 313.167 138.047 313.185 138.34 313.185C138.642 313.185 138.953 313.185 139.273 313.195C139.593 313.195 139.913 313.195 140.224 313.195H141.057C141.285 313.195 141.56 313.195 141.871 313.195C142.182 313.195 142.493 313.195 142.813 313.195C143.133 313.195 143.444 313.195 143.737 313.195C144.039 313.195 144.295 313.185 144.524 313.176L144.597 314.685C144.286 314.685 143.984 314.685 143.673 314.676C143.362 314.676 143.051 314.667 142.74 314.667H139.373C139.062 314.667 138.742 314.667 138.422 314.676C138.102 314.676 137.809 314.685 137.535 314.685L137.571 313.176V313.167Z" fill="white"/>
<path d="M155.466 316.762H148.165C148.165 316.542 148.184 316.277 148.184 315.957C148.184 315.637 148.184 315.271 148.193 314.859C148.193 314.448 148.193 314.018 148.193 313.542V312.088C148.193 311.338 148.193 310.67 148.193 310.075C148.193 309.481 148.193 308.959 148.193 308.52C148.193 308.072 148.174 307.706 148.165 307.414H150.288C150.269 307.569 150.26 307.761 150.26 307.981C150.26 308.2 150.26 308.465 150.251 308.758C150.251 309.051 150.233 309.362 150.233 309.709C150.233 310.057 150.233 310.423 150.233 310.816V314.256C150.233 314.603 150.233 314.905 150.233 315.179C150.233 315.445 150.233 315.673 150.233 315.847L149.821 314.987H151.047C151.504 314.987 151.989 314.987 152.483 314.987C152.977 314.987 153.48 314.987 153.993 314.987C154.505 314.987 154.99 314.987 155.447 314.96C155.447 315.115 155.447 315.271 155.438 315.408C155.438 315.545 155.429 315.692 155.429 315.847C155.429 316.012 155.429 316.167 155.438 316.323C155.438 316.469 155.447 316.625 155.447 316.771L155.466 316.762Z" fill="white"/>
<path d="M26.5115 271.85H21.3245V285.132C21.3245 289.431 24.8099 292.916 29.1096 292.916H37.9834V288.644H26.5024V271.859L26.5115 271.85Z" fill="white"/>
<path d="M46.1901 273.725L39.0544 292.916H43.8939L45.5954 288.388H55.7225L57.4241 292.916H62.5471L54.6522 271.85H48.8888C47.6812 271.85 46.6109 272.6 46.1901 273.725ZM47.1323 284.235L49.7579 277.146C49.9408 276.661 50.3983 276.341 50.9197 276.341H51.2216L54.1765 284.235H47.1323Z" fill="white"/>
<path d="M80.3308 286.028H79.6355L70.8349 271.85H63.9829V292.44C63.9829 292.705 64.1933 292.916 64.4586 292.916H68.7308V278.738H69.4535L78.2541 292.916H85.1062V271.85H80.3308V286.028Z" fill="white"/>
<path d="M87.5946 276.122H95.4529V291.544C95.4529 292.294 96.0659 292.907 96.816 292.907H100.64V276.122H106.751L108.498 271.85H87.5854V276.122H87.5946Z" fill="white"/>
<path d="M122.028 271.566H120.976C113.274 271.566 107.144 275.28 107.144 281.875V282.881C107.144 289.55 113.274 293.19 120.976 293.19H122.028C129.576 293.19 135.577 289.54 135.577 282.881V281.875C135.577 275.271 129.576 271.566 122.028 271.566ZM129.923 282.881C129.923 286.494 126.749 288.443 121.781 288.443H120.976C116.009 288.443 112.834 286.494 112.834 282.881V281.875C112.834 278.289 116.009 276.314 120.976 276.314H121.781C126.749 276.314 129.923 278.299 129.923 281.875V282.881Z" fill="white"/>
<path d="M154.44 272.399V286.028H153.745L144.944 271.85H138.092V292.532C138.092 292.742 138.266 292.916 138.476 292.916H142.84V278.738H143.563L152.363 292.916H159.215V271.85H154.989C154.687 271.85 154.44 272.097 154.44 272.399Z" fill="white"/>
<path d="M11.5728 271.85H0.000244141V292.751C0.000244141 292.843 0.07343 292.916 0.164912 292.916H5.18729V286.001H11.5728C17.1989 286.001 19.4677 283.577 19.4677 279.46V278.363C19.4677 274.274 17.2081 271.859 11.5728 271.859V271.85ZM14.2166 279.332C14.2166 281.089 13.1828 281.72 11.1336 281.72H5.18729V276.122H11.1336C13.1737 276.122 14.2166 276.78 14.2166 278.482V279.332Z" fill="white"/>
<path d="M148.595 216.41L1.40869 65.0811C1.16168 66.4257 0.951275 67.7794 0.768311 69.1423L146.838 219.319C147.442 218.358 148.037 217.398 148.595 216.41Z" fill="white"/>
<path d="M7.21855 46.5767C6.74285 47.6194 6.29458 48.6805 5.85547 49.7507L154.761 202.854C155.155 201.72 155.521 200.567 155.859 199.415L7.21855 46.5767Z" fill="white"/>
<path d="M149.821 173.3C157.377 180.855 158.868 176.072 159.115 172.779V170.766C159.088 170.574 159.088 170.464 159.115 170.428V79.4879C159.115 35.5912 123.52 0 79.6081 0C52.6025 0 28.7439 13.4645 14.3812 34.0453L149.821 173.3Z" fill="white"/>
<path d="M8.5172 97.0047C1.74751 90.7024 0.347832 95.1936 0.10083 98.3402V100.389C0.128275 100.563 0.128275 100.673 0.10083 100.7V176.868C0.10083 220.773 35.6966 256.365 79.6081 256.365C102.863 256.365 123.785 246.376 138.331 230.46L8.5172 97.0047Z" fill="white"/>
</svg>
