<svg width="276" height="40" viewBox="0 0 276 40" fill="none" xmlns="http://www.w3.org/2000/svg">
<path d="M1.32 31.46L2.2 25.3H0V19.14H3.08L3.96 12.98H1.76V6.82H4.84L5.72 0.659999H11.66L10.956 5.72L10.516 6.82H13.156L12.936 5.72L13.64 0.659999H19.58L18.7 6.82H20.9V12.98H17.82L16.94 19.14H19.14V25.3H16.06L15.18 31.46H9.24L9.944 26.4L10.384 25.3H7.744L7.964 26.4L7.26 31.46H1.32ZM8.712 19.14H11.352L11.132 18.04L11.748 14.08L12.188 12.98H9.548L9.768 14.08L9.152 18.04L8.712 19.14Z" fill="white"/>
<path d="M22.6652 31.46V0.659999H29.4852L32.1252 14.3H32.5652L35.2052 0.659999H42.0252V31.46H34.9852L37.6252 9.46H36.9652L33.4452 23.54H31.2452L27.7252 9.46H27.0652L29.7052 31.46H22.6652Z" fill="white"/>
<path d="M51.9252 31.9C47.7452 31.9 44.0052 28.16 44.0052 19.36C44.0052 10.56 47.7452 6.82 51.9252 6.82C56.1052 6.82 59.8452 10.56 59.8452 19.36C59.8452 28.16 56.1052 31.9 51.9252 31.9ZM51.9252 27.28C52.5852 27.28 53.2452 26.62 53.2452 19.36C53.2452 12.1 52.5852 11.44 51.9252 11.44C51.2652 11.44 50.6052 12.1 50.6052 19.36C50.6052 26.62 51.2652 27.28 51.9252 27.28Z" fill="white"/>
<path d="M68.6297 31.9C63.7897 31.9 61.1497 29.26 61.1497 25.74C61.1497 24.2 61.5897 23.32 61.5897 23.32H67.0897V24.64C67.0897 26.752 67.6177 27.28 68.5417 27.28C69.1137 27.28 69.7297 26.884 69.7297 25.96C69.7297 22.22 61.1497 20.68 61.1497 13.42C61.1497 9.68 64.0097 6.82 68.4097 6.82C73.0297 6.82 75.6697 9.46 75.6697 12.98C75.6697 14.3 75.2297 15.18 75.2297 15.18H69.7297V13.86C69.7297 11.968 69.2017 11.44 68.4977 11.44C67.9257 11.44 67.3097 11.836 67.3097 12.76C67.3097 16.5 76.1097 18.26 76.1097 24.86C76.1097 29.04 73.2497 31.9 68.6297 31.9Z" fill="white"/>
<path d="M85.8 31.9C81.4 31.9 78.98 29.48 78.98 24.2V12.1H76.78V7.26H78.98L81.84 2.42H85.14V7.26H91.52V12.1H85.14V24.42C85.14 26.928 85.492 27.28 85.888 27.28C86.24 27.28 86.46 27.06 86.46 26.18C86.46 23.98 85.14 22 85.14 22H90.64C90.64 22 91.96 23.32 91.96 25.96C91.96 29.26 89.76 31.9 85.8 31.9Z" fill="white"/>
<path d="M93.3006 31.46V7.26H99.6806V7.7L98.1406 12.54H98.8006C98.8006 12.54 101.001 6.82 104.301 6.82C106.061 6.82 107.381 8.14 107.381 11.44C107.381 14.3 106.941 16.06 106.941 16.06H101.221V14.52C101.221 12.892 100.869 12.54 100.561 12.54C99.9006 12.54 99.4606 14.3 99.4606 14.3V31.46H93.3006Z" fill="white"/>
<path d="M112.912 31.9C110.272 31.9 107.852 29.48 107.852 24.64C107.852 19.8 110.272 17.38 112.912 17.38C116.652 17.38 117.532 23.1 117.532 23.1H118.192L116.652 17.38V14.08C116.652 11.88 116.212 11.44 115.64 11.44C115.112 11.44 114.672 11.88 114.672 14.08V15.62H109.172C109.172 15.62 108.732 14.74 108.732 12.98C108.732 9.68 111.592 6.82 115.552 6.82C120.172 6.82 122.812 9.46 122.812 15.62V28.82C122.812 31.02 123.912 31.02 123.912 31.02V31.46H116.652L118.192 26.18H117.532C117.532 26.18 116.652 31.9 112.912 31.9ZM115.112 27.28C115.684 27.28 116.212 26.752 116.212 24.64C116.212 22.528 115.684 22 115.112 22C114.54 22 114.012 22.528 114.012 24.64C114.012 26.752 114.54 27.28 115.112 27.28Z" fill="white"/>
<path d="M132.492 32.12C127.872 32.12 124.792 29.04 124.792 24.42C124.792 22.44 125.232 21.12 125.232 21.12H131.172V23.1C131.172 26.18 131.832 26.84 132.492 26.84C133.064 26.84 133.592 26.312 133.592 24.86C133.592 19.36 124.792 16.72 124.792 8.58C124.792 3.3 128.092 0 132.492 0C136.892 0 140.192 3.3 140.192 8.14C140.192 9.9 139.752 11 139.752 11H133.812V9.02C133.812 5.94 133.152 5.28 132.492 5.28C131.92 5.28 131.392 5.808 131.392 7.26C131.392 12.76 140.192 15.4 140.192 23.76C140.192 28.82 136.892 32.12 132.492 32.12Z" fill="white"/>
<path d="M145.241 31.9C143.481 31.9 141.941 30.36 141.941 26.62V7.26H148.101V25.3C148.101 26.312 148.409 26.62 148.761 26.62C149.641 26.62 150.301 24.42 150.301 24.42V7.26H156.461V28.82C156.461 31.02 157.561 31.02 157.561 31.02V31.46H150.081V31.02L151.621 26.18H150.961C150.961 26.18 148.761 31.9 145.241 31.9Z" fill="white"/>
<path d="M163.056 31.9C160.416 31.9 157.996 29.48 157.996 24.64C157.996 19.8 160.416 17.38 163.056 17.38C166.796 17.38 167.676 23.1 167.676 23.1H168.336L166.796 17.38V14.08C166.796 11.88 166.356 11.44 165.784 11.44C165.256 11.44 164.816 11.88 164.816 14.08V15.62H159.316C159.316 15.62 158.876 14.74 158.876 12.98C158.876 9.68 161.736 6.82 165.696 6.82C170.316 6.82 172.956 9.46 172.956 15.62V28.82C172.956 31.02 174.056 31.02 174.056 31.02V31.46H166.796L168.336 26.18H167.676C167.676 26.18 166.796 31.9 163.056 31.9ZM165.256 27.28C165.828 27.28 166.356 26.752 166.356 24.64C166.356 22.528 165.828 22 165.256 22C164.684 22 164.156 22.528 164.156 24.64C164.156 26.752 164.684 27.28 165.256 27.28Z" fill="white"/>
<path d="M175.376 31.46V0.659999H181.976C187.256 0.659999 190.556 3.96 190.556 11C190.556 17.6 187.256 21.34 181.976 21.34V31.46H175.376ZM181.976 16.28H182.196C183.208 16.28 183.956 15.532 183.956 11C183.956 6.468 183.208 5.72 182.196 5.72H181.976V16.28Z" fill="white"/>
<path d="M199.576 31.9C194.956 31.9 191.216 28.16 191.216 19.36C191.216 10.56 194.956 6.82 199.576 6.82C203.536 6.82 206.616 9.9 206.616 16.5C206.616 19.8 205.956 21.12 205.956 21.12H197.816C197.904 26.62 198.696 27.28 199.356 27.28C199.884 27.28 200.456 26.708 200.456 23.98V23.1H205.956C205.956 23.1 206.176 23.76 206.176 24.86C206.176 29.04 203.316 31.9 199.576 31.9ZM197.816 17.6H200.456V16.5C200.456 12.012 199.884 11.44 199.356 11.44C198.696 11.44 198.036 12.1 197.816 17.6Z" fill="white"/>
<path d="M215.631 39.82C210.351 39.82 207.931 37.4 207.931 34.76C207.931 32.12 209.911 30.58 212.991 30.36V29.92C212.991 29.92 207.711 29.04 207.711 25.52C207.711 23.1 209.779 22.22 209.779 22.22C209.779 22.22 207.931 20.02 207.931 16.06C207.931 10.34 211.451 6.82 215.631 6.82C218.931 6.82 220.471 8.8 220.471 8.8H221.571C221.571 8.8 222.011 6.82 223.991 6.82C224.871 6.82 225.531 7.26 225.531 7.26V14.3H224.431L222.583 10.12H221.571C221.571 10.12 223.331 12.54 223.331 16.06C223.331 21.78 219.811 25.3 215.631 25.3C213.431 25.3 211.891 24.2 211.891 24.2C211.891 24.2 211.671 24.376 211.671 24.772C211.671 27.5 223.771 25.96 223.771 33.88C223.771 37.18 221.131 39.82 215.631 39.82ZM215.851 36.08C216.731 36.08 217.391 35.42 217.391 33.66C217.391 31.46 216.731 30.8 215.851 30.8C214.971 30.8 214.311 31.46 214.311 33.66C214.311 35.42 214.971 36.08 215.851 36.08ZM215.631 20.9C216.291 20.9 216.951 20.24 216.951 16.06C216.951 11.88 216.291 11.22 215.631 11.22C214.971 11.22 214.311 11.88 214.311 16.06C214.311 20.24 214.971 20.9 215.631 20.9Z" fill="white"/>
<path d="M230.603 31.9C227.963 31.9 225.543 29.48 225.543 24.64C225.543 19.8 227.963 17.38 230.603 17.38C234.343 17.38 235.223 23.1 235.223 23.1H235.883L234.343 17.38V14.08C234.343 11.88 233.903 11.44 233.331 11.44C232.803 11.44 232.363 11.88 232.363 14.08V15.62H226.863C226.863 15.62 226.423 14.74 226.423 12.98C226.423 9.68 229.283 6.82 233.243 6.82C237.863 6.82 240.503 9.46 240.503 15.62V28.82C240.503 31.02 241.603 31.02 241.603 31.02V31.46H234.343L235.883 26.18H235.223C235.223 26.18 234.343 31.9 230.603 31.9ZM232.803 27.28C233.375 27.28 233.903 26.752 233.903 24.64C233.903 22.528 233.375 22 232.803 22C232.231 22 231.703 22.528 231.703 24.64C231.703 26.752 232.231 27.28 232.803 27.28Z" fill="white"/>
<path d="M247.763 31.9C245.343 31.9 242.263 28.82 242.263 19.36C242.263 9.9 245.343 6.82 247.763 6.82C251.283 6.82 252.383 12.54 252.383 12.54H253.043L251.503 6.82V0.659999H257.663V28.82C257.663 31.02 258.763 31.02 258.763 31.02V31.46H251.503V31.02L253.043 26.18H252.383C252.383 26.18 251.283 31.9 247.763 31.9ZM250.183 27.06C250.843 27.06 251.503 26.4 251.503 19.36C251.503 12.32 250.843 11.66 250.183 11.66C249.523 11.66 248.863 12.32 248.863 19.36C248.863 26.4 249.523 27.06 250.183 27.06Z" fill="white"/>
<path d="M264.247 31.9C261.607 31.9 259.188 29.48 259.188 24.64C259.188 19.8 261.607 17.38 264.247 17.38C267.987 17.38 268.867 23.1 268.867 23.1H269.527L267.987 17.38V14.08C267.987 11.88 267.547 11.44 266.975 11.44C266.447 11.44 266.008 11.88 266.008 14.08V15.62H260.508C260.508 15.62 260.068 14.74 260.068 12.98C260.068 9.68 262.928 6.82 266.888 6.82C271.508 6.82 274.147 9.46 274.147 15.62V28.82C274.147 31.02 275.247 31.02 275.247 31.02V31.46H267.987L269.527 26.18H268.867C268.867 26.18 267.987 31.9 264.247 31.9ZM266.448 27.28C267.02 27.28 267.547 26.752 267.547 24.64C267.547 22.528 267.02 22 266.448 22C265.876 22 265.348 22.528 265.348 24.64C265.348 26.752 265.876 27.28 266.448 27.28Z" fill="white"/>
</svg>
