<svg width="394" height="133" viewBox="0 0 394 133" fill="none" xmlns="http://www.w3.org/2000/svg">
<path d="M66.6967 62.9752C66.6967 68.548 62.1659 73.0592 56.5593 73.0592C50.9527 73.0592 46.4219 68.548 46.4219 62.9752C46.4219 57.4021 50.9626 52.8909 56.5593 52.8909C62.156 52.8909 66.6967 57.4021 66.6967 62.9752Z" fill="#A5CC61"/>
<path d="M97.0655 62.9752C97.0655 68.548 92.5248 73.0592 86.9338 73.0592C81.3425 73.0592 76.7921 68.548 76.7921 62.9752C76.7921 57.4021 81.3272 52.8909 86.9338 52.8909C92.5401 52.8909 97.0655 57.4021 97.0655 62.9752Z" fill="#A5CC61"/>
<path d="M142.576 81.9795L130.671 66.9792C129.513 65.4637 127.615 65.4595 126.443 66.9693L114.374 82.5314C113.211 84.037 113.817 85.2693 115.728 85.2653H121.042C113.35 105.616 93.0317 119.419 70.5567 118.395C45.2691 117.238 24.4241 97.6435 21.7882 72.7076H21.7854V68.6921C21.7854 67.1164 20.5053 65.839 18.9254 65.839H10.8076C9.22775 65.839 7.94763 67.1164 7.94763 68.6921C7.94763 74.0242 8.5961 79.3478 10.0163 84.4892C13.1032 95.6647 19.1803 105.906 27.7058 114.06C39.1064 124.98 54.097 131.385 69.9277 132.106C85.7446 132.833 101.263 127.819 113.625 117.988C124.226 109.556 131.873 98.5905 135.583 85.7624L135.716 85.2037L141.208 85.2247C143.125 85.2247 143.739 83.4892 142.576 81.9795Z" fill="#A5CC61"/>
<path d="M75.8995 0.116527C46.8317 -1.64401 18.3228 16.7611 7.54669 40.6608C7.50468 40.7531 7.41364 40.8121 7.31279 40.8121H1.97797C0.0325557 40.8121 -0.582302 42.4227 0.603994 43.9241L12.8703 59.6764C14.0524 61.1862 15.988 61.2731 17.1603 59.7578L29.2628 43.9003C30.4408 42.3904 29.8103 40.8133 27.8692 40.8133H23.5918C23.3887 40.8133 23.2599 40.5893 23.3649 40.4155C33.1858 24.2193 53.703 12.5257 75.034 13.8199C93.7262 14.9543 109.935 25.7655 118.21 41.4465C121.08 46.8863 122.512 52.9663 122.512 59.112C122.512 60.0715 123.291 60.8473 124.253 60.8473H135.12C136.081 60.8473 136.861 60.0701 136.861 59.112V58.4132C136.861 53.4341 136.081 48.4731 134.419 43.7785C125.764 19.3424 102.866 1.75661 75.8995 0.116527Z" fill="#5A5A5A"/>
<path d="M193.171 73.4604H173.981C173.761 73.4604 173.597 73.6593 173.635 73.8751C174.542 78.9773 178.708 81.1133 183.349 81.1133C186.58 81.1133 189.122 80.5235 191.95 79.0516C191.999 79.0264 192.055 79.0124 192.111 79.0124H192.127C192.32 79.0124 192.477 79.1692 192.477 79.3625V82.4129C192.477 82.5375 192.41 82.6553 192.302 82.7169C189.397 84.3906 186.384 85.0153 182.696 85.0153C174.42 85.0153 169.004 79.8135 169.004 71.7112C169.004 63.6088 174.772 58.4561 181.794 58.4561C188.817 58.4561 193.932 62.9071 193.932 69.8595C193.932 70.8272 193.804 72.1775 193.509 73.2054C193.466 73.3567 193.33 73.4604 193.171 73.4604ZM189.719 69.1592C189.519 65.2081 186.861 62.1072 181.845 62.1072C178.035 62.1072 174.462 64.4309 173.63 69.4491C173.595 69.6634 173.759 69.8595 173.976 69.8595H189.369C189.562 69.8595 189.719 69.7026 189.719 69.5095V69.1592Z" fill="#5A5A5A"/>
<path d="M198.534 73.8112V59.6049C198.534 59.4116 198.69 59.2549 198.884 59.2549H203.048C203.241 59.2549 203.398 59.4116 203.398 59.6049V73.4107C203.398 78.0618 205.856 80.513 210.219 80.513C214.582 80.513 217.04 78.013 217.04 73.4609V59.6554C217.04 59.4621 217.196 59.3052 217.39 59.3052H221.554C221.747 59.3052 221.904 59.4621 221.904 59.6554V73.8112C221.904 80.9135 217.139 84.9149 210.167 84.9149C203.195 84.9149 198.531 80.863 198.531 73.8112H198.534Z" fill="#5A5A5A"/>
<path d="M230.242 58.8554H235.388C235.548 58.8554 235.688 58.9633 235.727 59.1172L236.38 61.6328C236.399 61.7055 236.465 61.756 236.54 61.756H236.729C236.781 61.756 236.83 61.7307 236.861 61.6887C238.325 59.6718 240.859 58.1537 244.036 58.1046H244.537C244.73 58.1046 244.886 58.2616 244.886 58.4549V64.8583C244.886 65.0516 244.73 65.2083 244.537 65.2083H243.985C240.524 65.2083 237.163 67.0586 237.163 72.1105V83.8657C237.163 84.059 237.008 84.2157 236.814 84.2157H230.242C230.049 84.2157 229.892 84.059 229.892 83.8657V59.2069C229.892 59.0136 230.049 58.8554 230.242 58.8554Z" fill="#A5CC61"/>
<path d="M271.434 73.7099H253.907C253.675 73.7099 253.506 73.9296 253.567 74.151C254.636 77.9957 258.304 79.1119 261.835 79.1119C265.366 79.1119 267.563 78.6202 270.195 77.4899C270.24 77.4717 270.285 77.462 270.332 77.462H270.412C270.606 77.462 270.764 77.6187 270.764 77.8121V82.6063C270.764 82.7337 270.693 82.8529 270.58 82.9145C267.865 84.3935 264.804 85.014 260.733 85.014C252.205 85.014 246.538 79.8122 246.538 71.6104C246.538 63.4084 252.356 58.1058 259.98 58.1058C267.603 58.1058 272.468 63.0584 272.468 69.3597C272.468 70.6859 272.289 72.2364 271.758 73.501C271.706 73.6299 271.576 73.7111 271.437 73.7111L271.434 73.7099ZM266.147 68.6579C266.048 65.8568 263.792 63.5052 260.079 63.5052C257.136 63.5052 254.518 64.9856 253.609 68.5697C253.553 68.7908 253.723 69.008 253.949 69.008H265.798C265.991 69.008 266.147 68.8512 266.147 68.6579Z" fill="#A5CC61"/>
<path d="M275.277 71.559C275.277 63.7059 280.845 58.1035 289.321 58.1035C292.382 58.1035 295.021 58.7618 296.916 59.8039C297.027 59.8655 297.095 59.9832 297.095 60.1107V66.1079C297.095 66.3012 296.937 66.4582 296.746 66.4582H296.638C296.576 66.4582 296.517 66.4426 296.465 66.4119C294.86 65.4874 292.54 64.8572 289.974 64.8572C285.811 64.8572 282.953 67.5085 282.953 71.559C282.953 75.6095 285.712 78.3113 290.024 78.3113C292.59 78.3113 294.865 77.6334 296.465 76.7075C296.517 76.6768 296.576 76.6615 296.638 76.6615H296.737C296.937 76.6615 297.095 76.8182 297.095 77.0115V83.0047C297.095 83.1336 297.025 83.254 296.911 83.3141C295.021 84.3128 292.431 85.0159 289.373 85.0159C280.795 85.0159 275.279 79.3644 275.279 71.5618L275.277 71.559Z" fill="#A5CC61"/>
<path d="M301.313 50.8143C301.632 48.6573 303.518 47.163 305.529 47.163C307.884 47.163 309.893 49.0635 309.893 51.4641C309.893 53.8647 307.955 55.6954 305.567 55.715C302.965 55.736 300.933 53.3788 301.313 50.8143ZM302.116 58.8565H308.939C309.131 58.8565 309.289 59.0132 309.289 59.2065V83.8653C309.289 84.0586 309.131 84.2153 308.939 84.2153H302.116C301.922 84.2153 301.766 84.0586 301.766 83.8653V59.2065C301.766 59.0132 301.922 58.8565 302.116 58.8565Z" fill="#A5CC61"/>
<path d="M313.273 71.559C313.273 63.7059 318.839 58.1035 327.317 58.1035C330.378 58.1035 333.017 58.7618 334.912 59.8039C335.023 59.8655 335.091 59.9832 335.091 60.1107V66.1079C335.091 66.3012 334.933 66.4582 334.74 66.4582H334.631C334.57 66.4582 334.511 66.4426 334.459 66.4119C332.856 65.4874 330.534 64.8572 327.971 64.8572C323.807 64.8572 320.946 67.5085 320.946 71.559C320.946 75.6095 323.706 78.3113 328.02 78.3113C330.586 78.3113 332.859 77.6334 334.459 76.7075C334.513 76.6768 334.572 76.6615 334.631 76.6615H334.733C334.933 76.6615 335.091 76.8182 335.091 77.0115V83.0047C335.091 83.1336 335.021 83.254 334.907 83.3141C333.017 84.3128 330.428 85.0159 327.369 85.0159C318.791 85.0159 313.273 79.3644 313.273 71.5618V71.559Z" fill="#A5CC61"/>
<path d="M340.326 49.0011H346.999C347.193 49.0011 347.348 49.1581 347.348 49.3514V83.8646C347.348 84.0579 347.193 84.2148 346.999 84.2148H340.326C340.133 84.2148 339.977 84.0579 339.977 83.8646V49.3514C339.977 49.1581 340.133 49.0011 340.326 49.0011Z" fill="#A5CC61"/>
<path d="M351.465 71.5096C351.465 63.8569 357.835 58.1046 365.558 58.1046C373.281 58.1046 379.602 63.8569 379.602 71.5096C379.602 79.1626 373.382 85.0142 365.508 85.0142C357.632 85.0142 351.465 79.2128 351.465 71.5096ZM372.228 71.5096C372.228 67.7086 369.32 64.8569 365.558 64.8569C361.796 64.8569 358.838 67.7072 358.838 71.5096C358.838 75.3122 361.798 78.2114 365.508 78.2114C369.219 78.2114 372.228 75.3599 372.228 71.5096Z" fill="#A5CC61"/>
<path d="M384.417 59.1323C384.388 59.1042 384.377 59.0665 384.377 59.0176V52.4726C384.377 52.4235 384.388 52.3857 384.417 52.3576C384.445 52.3298 384.483 52.317 384.532 52.317H386.886C387.461 52.317 387.952 52.418 388.358 52.621C388.762 52.824 389.066 53.0973 389.267 53.4417C389.47 53.7863 389.569 54.1672 389.569 54.586C389.569 54.8718 389.515 55.1449 389.402 55.4069C389.291 55.6672 389.116 55.9025 388.882 56.11C388.649 56.3172 388.354 56.4754 388 56.5818L389.815 58.9867C389.838 59.0188 389.85 59.0497 389.85 59.0792C389.85 59.1057 389.838 59.1267 389.817 59.1448C389.796 59.1632 389.765 59.1715 389.727 59.1715H388.087C388.037 59.1715 387.995 59.1632 387.962 59.1448C387.929 59.1267 387.896 59.0946 387.863 59.0455L386.432 56.9517H386.038V59.0162C386.038 59.0651 386.024 59.1028 385.996 59.1309C385.967 59.159 385.93 59.1715 385.88 59.1715H384.535C384.485 59.1715 384.447 59.1576 384.419 59.1309L384.417 59.1323ZM387.624 55.2752C387.775 55.1435 387.853 54.9655 387.853 54.7415C387.853 54.5819 387.813 54.4361 387.735 54.3004C387.655 54.1658 387.535 54.058 387.376 53.9768C387.216 53.8956 387.025 53.855 386.801 53.855H386.038V55.4713H386.985C387.258 55.4713 387.471 55.4069 387.624 55.2752Z" fill="#A5CC61"/>
<path d="M386.793 63.2345C382.826 63.2345 379.599 60.016 379.599 56.0607C379.599 52.1056 382.826 48.8871 386.793 48.8871C390.758 48.8871 393.987 52.1056 393.987 56.0607C393.987 60.016 390.758 63.2345 386.793 63.2345ZM386.793 50.4248C383.678 50.4248 381.14 52.9529 381.14 56.0607C381.14 59.1687 383.678 61.6968 386.793 61.6968C389.909 61.6968 392.444 59.1687 392.444 56.0607C392.444 52.9529 389.909 50.4248 386.793 50.4248Z" fill="#A5CC61"/>
</svg>
