<svg id="Layer_1" data-name="Layer 1" xmlns="http://www.w3.org/2000/svg" viewBox="0 0 4075.3 728.6">
  <title>FGV-Logo</title>
  <g>
    <path d="M3370.5,415.6c-66.3,5.3-124.3,23.6-177.1,55.9-41.6,25.4-79,61.7-107,103.5-32.2,48.2-51.5,100.4-59.1,159.5-2.5,19.8-2.5,72.8,0,93.5q13.6,111.2,85.3,193c51.2,58.5,126.9,100.1,210.2,115.6,53.1,9.8,118.8,9.7,174.2-.2,68.8-12.4,139.9-44.2,200.6-89.7l13.4-10V720H3389V863h138v84l-5.7,3.7c-18.3,11.7-46.4,20.7-76.3,24.5-14.7,1.8-47.3,1.5-61-.6-29-4.4-53.7-13.6-76.5-28.4-49.2-32-78.4-83.3-83.6-146.7-4.5-56.2,12.2-108.8,48.3-151.3,23.2-27.4,60.7-49.7,95.3-56.6,29.2-5.8,64.7-4.4,98,4,30.5,7.7,64.3,25.7,97.4,51.8,4.7,3.6,8.8,6.5,9.2,6.4S3686,517.7,3686,516.8s-25.2-20.7-38.5-29.7a424,424,0,0,0-47.7-28.4c-45.2-23.1-86.8-35.3-140.8-41.3C3445.2,415.9,3382.9,414.6,3370.5,415.6Z" transform="translate(-436.7 -415.2)" style="fill: #003e7e"/>
    <path d="M2400,779.5V1130h194V880h332V717H2594l.2-58.8.3-58.7,183.3-.3L2961,599V429H2400Z" transform="translate(-436.7 -415.2)" style="fill: #003e7e"/>
    <path d="M3780.6,472.2l141.7,350.3,124.3,307,90.5.3,90.4.2,142.3-349.8C4448,587.9,4512,430.1,4512,429.7s-48-.6-106.7-.5l-106.6.3-79,220c-43.4,121-79.2,220.3-79.6,220.7s-35.5-96.3-78-215-78.3-218.1-79.4-221l-2-5.2H3763.1Z" transform="translate(-436.7 -415.2)" style="fill: #003e7e"/>
    <path d="M439.1,434c1.3,1.6,138.3,159.1,304.4,350l302,346.9h560.7l-2.9-3.5c-1.5-1.9-138.5-159.4-304.3-350L997.5,431.1H436.7Z" transform="translate(-436.7 -415.2)" style="fill: #003e7e"/>
    <path d="M1558.5,543.5c-66,61.9-120.1,112.9-120.2,113.3s71.4,45.1,159,99.5L1759.6,857l3.1,2,224.4-208.6c123.4-114.7,226.9-211,229.9-214l5.5-5.4h-544Z" transform="translate(-436.7 -415.2)" style="fill: #0091d6"/>
  </g>
</svg>
