<svg width="2356" height="507" viewBox="0 0 2356 507" fill="none" xmlns="http://www.w3.org/2000/svg">
<path d="M973.65 296.62H922.75V426.9C922.75 469.1 956.96 503.3 999.15 503.3H1086.24V461.35H973.65V296.62Z" fill="#ACCF77"/>
<path d="M1166.71 315.03L1096.74 503.3H1144.25L1160.91 458.88H1260.24L1276.9 503.3H1327.18L1249.75 296.62H1193.19C1181.38 296.62 1170.82 303.96 1166.71 315.03ZM1176.02 418.16L1201.78 348.64C1203.54 343.89 1208.07 340.73 1213.14 340.73H1216.12L1245.12 418.16H1176.02Z" fill="#ACCF77"/>
<path d="M1501.67 435.74H1494.88L1408.51 296.62H1341.26V498.66C1341.26 501.22 1343.34 503.3 1345.9 503.3H1387.84V364.18H1394.94L1481.31 503.3H1548.56V305.35C1548.56 300.53 1544.65 296.62 1539.83 296.62H1501.67V435.74Z" fill="#ACCF77"/>
<path d="M1572.93 338.57H1650.05V489.93C1650.05 497.31 1656.04 503.3 1663.42 503.3H1700.95V338.57H1760.93L1778.07 296.62H1572.93V338.57Z" fill="#ACCF77"/>
<path d="M1910.79 293.84H1900.46C1824.88 293.84 1764.73 330.24 1764.73 395.02V404.89C1764.73 470.29 1824.88 506.07 1900.46 506.07H1910.79C1984.82 506.07 2043.74 470.29 2043.74 404.89V395.02C2043.74 330.24 1984.82 293.84 1910.79 293.84ZM1988.22 404.89C1988.22 440.37 1957.06 459.49 1908.32 459.49H1900.46C1851.72 459.49 1820.56 440.36 1820.56 404.89V395.02C1820.56 359.85 1851.72 340.42 1900.46 340.42H1908.32C1957.06 340.42 1988.22 359.85 1988.22 395.02V404.89Z" fill="#ACCF77"/>
<path d="M2228.73 302.03V435.75H2221.94L2135.56 296.63H2068.31V499.53C2068.31 501.62 2070 503.31 2072.09 503.31H2114.89V364.19H2121.99L2208.36 503.31H2275.61V296.63H2234.13C2231.14 296.63 2228.72 299.05 2228.72 302.04L2228.73 302.03Z" fill="#ACCF77"/>
<path d="M827.12 296.619H713.6V501.689C713.6 502.579 714.32 503.299 715.21 503.299H764.5V435.429H827.12C882.34 435.429 904.55 411.679 904.55 371.269V360.469C904.55 320.369 882.34 296.619 827.12 296.619ZM853.03 370.039C853.03 387.319 842.85 393.489 822.8 393.489H764.5V338.579H822.8C842.85 338.579 853.03 345.059 853.03 361.719V370.049V370.039Z" fill="#ACCF77"/>
<path d="M2337.58 314.559C2337.58 312.049 2335.93 310.499 2333.19 310.499H2326.23V318.619H2333.19C2335.93 318.619 2337.58 317.099 2337.58 314.559Z" fill="#ACCF77"/>
<path d="M2331.46 295.449C2318.33 295.449 2307.69 306.089 2307.69 319.219C2307.69 332.349 2318.33 342.989 2331.46 342.989C2344.59 342.989 2355.23 332.349 2355.23 319.219C2355.23 306.089 2344.59 295.449 2331.46 295.449ZM2337.65 330.039L2330.95 322.149H2326.26V330.039H2322.4V306.929H2333.23C2338.18 306.929 2341.42 309.969 2341.42 314.549C2341.42 318.379 2339.14 321.119 2335.45 321.909L2342.48 330.029H2337.66L2337.65 330.039Z" fill="#ACCF77"/>
<path d="M465.87 0.0300293H39.25C17.57 0.0300293 0 17.6 0 39.28V464.05C0 485.73 17.57 503.3 39.25 503.3H92.4099L38.8899 264.48C34.3199 244.1 38.0498 222.73 49.3398 205.16C54.1798 197.63 60.2199 189.57 67.6199 181.84L76.96 230.88L68.96 180.47C76.72 172.58 85.91 165.1 96.72 158.95L116.95 286.4L100.5 156.89C108.9 152.51 118.22 148.95 128.53 146.6L153.15 340.52L134.57 145.37C141.11 144.22 148.03 143.54 155.34 143.44C157.55 143.41 159.74 143.44 161.93 143.5L185.73 393.42L169.89 143.9C178.78 144.56 187.47 145.9 195.91 147.78L214.79 445.19L205.42 150.15C213.81 152.46 221.93 155.27 229.73 158.43L240.45 496.02V163.07C248.29 166.68 255.75 170.6 262.79 174.65V503.29H264.15L274.36 181.63C281.7 186.27 288.46 190.94 294.59 195.41L284.82 503.29H287.75L306.72 204.57C314.32 210.51 320.42 215.61 324.8 219.1L306.76 503.29H311.24L337.43 228.24C342.01 231.43 347.48 235.12 353.77 238.91L328.59 503.28H334.61L367.23 246.42C371.87 248.8 376.82 251.12 382.07 253.28L350.32 503.28H357.89L396.73 258.57C401.07 259.92 405.57 261.14 410.23 262.16L371.96 503.28H381.07L426.49 264.84C428.6 265.08 430.73 265.29 432.89 265.44C434.95 265.58 436.9 265.61 438.78 265.55L393.5 503.28H406.31L460.62 258.88C468.55 254.02 472.86 247.2 475.02 242.54L417.08 503.27H465.89C487.57 503.27 505.14 485.7 505.14 464.02V39.25C505.14 17.57 487.57 0 465.89 0L465.87 0.0300293ZM278.98 164.38C282.61 163.48 286.29 162.64 290.02 161.85L291.19 172.62C287.33 169.9 283.26 167.14 278.97 164.38H278.98ZM304.32 182.26L302.21 159.52C306.58 158.77 311.01 158.13 315.47 157.58L318.82 193.74C314.73 190.41 309.87 186.5 304.32 182.26ZM330.65 203.12C330.54 203.04 330.41 202.95 330.29 202.87L326.75 156.43C331.57 156.04 336.43 155.8 341.29 155.7L345.7 213.53C339.53 209.45 334.47 205.78 330.64 203.12H330.65ZM355.43 219.66L351.61 155.7C356.89 155.83 362.17 156.17 367.43 156.71L371.72 228.51C365.8 225.63 360.37 222.62 355.43 219.66ZM379.9 232.24L376.68 157.85C382.73 158.76 388.41 159.84 393.75 161.04L397.11 238.6C391.05 236.72 385.31 234.56 379.91 232.24H379.9ZM403.9 240.54L401.83 163.02C408.5 164.81 414.56 166.8 420.08 168.95L422.09 244.2C415.77 243.32 409.7 242.06 403.9 240.53V240.54ZM432.53 245.32C430.88 245.21 429.26 245.06 427.64 244.9L426.9 171.81C434.47 175.2 440.87 178.87 446.28 182.61L446.91 244.45C442.73 245.34 437.97 245.7 432.54 245.33L432.53 245.32ZM471.9 226.08C468.68 231.89 462.51 239.51 451.35 243.23L451.72 186.63C462.96 195.59 468.93 204.54 472.01 210.66L471.91 226.07L471.9 226.08Z" fill="#ACCF77"/>
</svg>
