<svg width="524" height="73" viewBox="0 0 524 73" fill="none" xmlns="http://www.w3.org/2000/svg">
<path d="M50.8264 15.6035H40.8775V41.068C40.8775 49.3164 47.5642 56.0011 55.8106 56.0011H72.8331V47.8015H50.8264V15.6035Z" fill="#145559"/>
<path d="M88.5638 19.2019L74.8875 56.0011H84.1738L87.4301 47.3188H106.845L110.101 56.0011H119.929L104.795 15.6035H93.7396C91.4312 15.6035 89.3672 17.0382 88.5638 19.2019ZM90.3836 39.3597L95.4186 25.7713C95.7626 24.8429 96.6481 24.2252 97.639 24.2252H98.2215L103.89 39.3597H90.3836Z" fill="#145559"/>
<path d="M154.033 42.7958H152.706L135.824 15.6035H122.68V55.0941C122.68 55.5945 123.086 56.0011 123.587 56.0011H131.784V28.8087H133.172L150.054 56.0011H163.199V17.3099C163.199 16.3678 162.434 15.6035 161.492 15.6035H154.033V42.7958Z" fill="#145559"/>
<path d="M167.963 23.803H183.037V53.3878C183.037 54.8303 184.208 56.0011 185.65 56.0011H192.986V23.803H204.709L208.06 15.6035H167.963V23.803Z" fill="#145559"/>
<path d="M234 15.0591H231.981C217.209 15.0591 205.452 22.1738 205.452 34.8357V36.7649C205.452 49.5479 217.209 56.5414 231.981 56.5414H234C248.47 56.5414 259.987 49.5479 259.987 36.7649V34.8357C259.987 22.1738 248.47 15.0591 234 15.0591ZM249.135 36.7649C249.135 43.6998 243.044 47.4369 233.518 47.4369H231.981C222.455 47.4369 216.364 43.6978 216.364 36.7649V34.8357C216.364 27.9614 222.455 24.1636 231.981 24.1636H233.518C243.044 24.1636 249.135 27.9614 249.135 34.8357V36.7649Z" fill="#145559"/>
<path d="M296.146 16.659V42.7958H294.818L277.935 15.6035H264.79V55.2622C264.79 55.6707 265.12 56.0011 265.529 56.0011H273.895V28.8087H275.282L292.164 56.0011H305.309V15.6035H297.201C296.617 15.6035 296.144 16.0765 296.144 16.6609L296.146 16.659Z" fill="#145559"/>
<path d="M22.1886 15.6006H0V55.6834C0 55.8574 0.140752 55.9981 0.314711 55.9981H9.94891V42.7323H22.1886C32.9819 42.7323 37.323 38.0902 37.323 30.1916V28.0807C37.323 20.2427 32.9819 15.6006 22.1886 15.6006ZM27.2529 29.9512C27.2529 33.3287 25.2631 34.5347 21.3442 34.5347H9.94891V23.8021H21.3442C25.2631 23.8021 27.2529 25.0686 27.2529 28.325V29.9532V29.9512Z" fill="#145559"/>
<path d="M356.862 12.9224C356.702 15.9647 353.42 18.3665 349.897 19.2472C352.619 21.4889 353.98 24.5312 353.98 27.7336C353.98 36.9406 345.414 43.4255 335.166 43.4255C332.043 43.4255 329.321 42.9452 327.08 41.9844C325.879 42.6249 324.278 43.9059 324.037 45.5071C323.557 49.4301 328.441 50.3108 333.084 50.3108C337.488 50.3108 342.211 49.8304 345.013 49.8304C352.859 49.8304 356.382 53.6733 355.581 58.6371C354.541 66.483 345.734 72.0873 331.083 72.0873C321.876 72.0873 313.549 69.125 314.59 61.9996C314.91 59.5177 316.992 56.3954 320.915 54.7942C318.513 53.5132 316.432 51.2715 316.912 47.8289C317.232 45.5071 319.314 42.4648 324.678 40.7035C321.475 38.6219 319.794 35.4195 319.794 31.8167C319.794 23.4103 328.761 15.9647 339.249 15.9647H339.329C342.291 15.9647 343.172 16.2849 344.933 16.2849C346.775 16.2849 349.176 14.6837 351.338 11.8015C352.219 10.8408 353.019 10.0402 354.22 10.0402C355.581 10.0402 356.942 11.1611 356.862 12.9224ZM336.287 40.143C342.451 40.143 346.534 34.3787 346.534 28.3741C346.534 23.3303 343.652 19.0871 338.288 19.0871C332.043 19.0871 327.4 24.6113 327.4 31.0161C327.4 36.2201 330.602 40.143 336.287 40.143ZM328.921 56.4754C325.719 56.4754 322.036 58.2368 321.475 61.6794C320.835 66.2428 325.799 68.7247 333.404 68.7247C341.33 68.7247 347.495 66.1628 348.136 61.199C348.536 58.7171 347.575 55.6748 341.09 56.0751C337.968 56.2353 334.045 56.4754 328.921 56.4754Z" fill="url(#paint0_linear_441_261)"/>
<path d="M384.396 44.4663C385.917 43.1053 387.598 43.9059 386.477 45.9074C384.316 49.9105 377.51 55.915 368.624 55.915C360.377 55.915 352.852 50.4709 352.852 39.5026C352.852 29.1747 361.738 15.8846 376.31 15.8846C382.634 15.8846 387.838 19.0871 387.838 25.0116C387.838 35.0192 375.589 40.3032 361.098 42.3847C362.299 47.0283 366.222 50.4709 371.426 50.4709C376.87 50.4709 381.113 47.5086 384.396 44.4663ZM373.748 19.6475C366.782 19.6475 360.538 27.1732 360.538 36.8606C360.538 37.9013 361.018 38.8621 363.019 38.5418C373.267 36.9406 380.633 32.6173 380.633 26.2125C380.633 22.3696 377.831 19.6475 373.748 19.6475Z" fill="url(#paint1_linear_441_261)"/>
<path d="M430.012 48.1491C430.492 48.1491 430.892 48.5494 430.812 49.27C430.492 52.2322 427.289 55.6748 423.126 55.6748C418.803 55.6748 417.602 52.4724 417.922 47.8289L418.883 30.0554C419.123 24.9315 417.762 21.4088 413.359 21.4088C406.874 21.4088 400.149 31.4965 397.987 44.1461L396.466 52.8727C396.306 53.9135 395.826 54.3939 394.945 54.634L390.862 55.6748C389.741 55.9951 389.02 55.3546 389.181 54.0736L393.184 26.3726C393.824 21.9693 390.462 22.7699 390.462 20.8484C390.462 19.7275 391.182 19.1671 394.945 17.4858C397.507 16.365 398.708 16.2049 399.749 16.2049C400.869 16.2049 401.43 16.8454 401.27 17.9662L399.668 28.6944C403.832 20.9285 409.836 16.1248 416.641 16.1248C423.286 16.1248 426.649 20.7683 426.169 29.575L425.208 47.4286C425.128 49.1098 425.128 50.3908 426.489 50.3908C428.01 50.3908 429.051 48.1491 430.012 48.1491Z" fill="url(#paint2_linear_441_261)"/>
<path d="M442.427 9.88008C440.265 9.71996 438.664 8.11874 438.824 5.87704C438.984 2.99486 442.587 -0.367695 445.789 0.0326082C447.951 0.192728 449.472 2.19425 449.392 4.19577C449.152 6.99789 445.549 10.1203 442.427 9.88008ZM439.544 55.6748C435.141 55.6748 433.54 52.4724 434.26 47.8289L437.463 26.3726C438.103 22.1294 434.741 22.6097 434.741 20.6082C434.741 19.7275 435.301 18.9269 439.224 17.4858C442.266 16.365 443.227 16.1248 444.268 16.1248C445.389 16.1248 445.949 16.8454 445.789 17.9662L441.546 47.4286C441.306 49.1098 441.546 50.3908 442.907 50.3908C444.428 50.3908 445.469 48.1491 446.43 48.1491C446.91 48.1491 447.31 48.5494 447.23 49.27C446.91 52.2322 443.708 55.6748 439.544 55.6748Z" fill="url(#paint3_linear_441_261)"/>
<path d="M490.083 48.1491C490.563 48.1491 490.963 48.5494 490.883 49.27C490.563 52.2322 487.361 55.6748 483.198 55.6748C479.435 55.6748 476.713 53.3531 478.234 44.8666C474.151 51.4316 468.947 55.915 462.542 55.915C454.696 55.915 451.013 50.631 452.294 40.8636L454.296 25.9723C454.936 21.649 451.574 22.7699 451.574 20.8484C451.574 19.7275 452.214 19.0871 456.057 17.4858C458.619 16.4451 460.38 16.0448 461.421 16.0448C462.542 16.0448 463.182 16.8454 462.942 17.9662L459.9 39.1823C459.259 43.8258 458.379 51.1914 464.703 51.1914C471.349 51.1914 478.634 40.7035 480.716 28.0539L482.157 19.1671C482.317 17.9662 483.117 17.646 483.998 17.4058L487.841 16.2849C489.202 15.8846 489.843 17.0055 489.682 17.9662L485.279 47.3485C484.959 49.1098 485.199 50.3908 486.56 50.3908C488.081 50.3908 489.042 48.1491 490.083 48.1491Z" fill="url(#paint4_linear_441_261)"/>
<path d="M506.67 55.915C502.427 55.915 494.341 55.4346 493.38 52.1522C492.74 49.9104 492.179 47.9089 491.699 44.7065C491.539 43.5857 491.939 42.785 492.9 42.5449C493.7 42.3047 494.501 42.785 495.302 44.066C499.705 50.9512 504.268 52.3123 508.432 52.3123C512.515 52.3123 515.157 49.9905 515.477 47.5887C516.198 43.6657 512.435 41.344 506.43 38.7019C499.945 35.9799 494.421 32.3771 495.622 25.8122C496.823 18.6067 504.829 15.8846 511.314 15.8846C515.717 15.8846 521.161 16.7653 522.362 19.8076C523.003 21.3288 523.403 22.3696 523.723 23.7306C524.204 25.8122 523.963 26.4527 522.923 26.853C521.802 27.2533 520.921 26.1324 518.359 23.6505C515.797 21.0886 512.835 19.4073 509.232 19.4073C505.549 19.4073 502.667 21.5689 502.267 24.0508C501.546 27.8937 504.589 29.6551 511.394 32.6173C518.599 35.6596 523.723 39.3424 522.682 45.2669C521.562 51.2715 515.557 55.915 506.67 55.915Z" fill="url(#paint5_linear_441_261)"/>
<defs>
<linearGradient id="paint0_linear_441_261" x1="362.988" y1="10.5786" x2="506.438" y2="62.0593" gradientUnits="userSpaceOnUse">
<stop stop-color="#44A767"/>
<stop offset="1" stop-color="#00A4A3"/>
</linearGradient>
<linearGradient id="paint1_linear_441_261" x1="362.988" y1="10.5786" x2="506.438" y2="62.0593" gradientUnits="userSpaceOnUse">
<stop stop-color="#44A767"/>
<stop offset="1" stop-color="#00A4A3"/>
</linearGradient>
<linearGradient id="paint2_linear_441_261" x1="362.988" y1="10.5786" x2="506.438" y2="62.0593" gradientUnits="userSpaceOnUse">
<stop stop-color="#44A767"/>
<stop offset="1" stop-color="#00A4A3"/>
</linearGradient>
<linearGradient id="paint3_linear_441_261" x1="362.988" y1="10.5786" x2="506.438" y2="62.0593" gradientUnits="userSpaceOnUse">
<stop stop-color="#44A767"/>
<stop offset="1" stop-color="#00A4A3"/>
</linearGradient>
<linearGradient id="paint4_linear_441_261" x1="362.988" y1="10.5786" x2="506.438" y2="62.0593" gradientUnits="userSpaceOnUse">
<stop stop-color="#44A767"/>
<stop offset="1" stop-color="#00A4A3"/>
</linearGradient>
<linearGradient id="paint5_linear_441_261" x1="362.988" y1="10.5786" x2="506.438" y2="62.0593" gradientUnits="userSpaceOnUse">
<stop stop-color="#44A767"/>
<stop offset="1" stop-color="#00A4A3"/>
</linearGradient>
</defs>
</svg>
