<svg width="524" height="124" viewBox="0 0 524 124" fill="none" xmlns="http://www.w3.org/2000/svg">
<path d="M3.44 39V10.2H14.88C16.9333 10.2 18.68 10.5333 20.12 11.2C21.56 11.8667 22.6533 12.8267 23.4 14.08C24.1733 15.3333 24.56 16.84 24.56 18.6C24.56 20.36 24.1733 21.88 23.4 23.16C22.6533 24.4133 21.56 25.3867 20.12 26.08C18.68 26.7733 16.9333 27.12 14.88 27.12H5.84V24.24H14.76C16.8933 24.24 18.5067 23.76 19.6 22.8C20.72 21.8133 21.28 20.4133 21.28 18.6C21.28 16.7867 20.7333 15.4133 19.64 14.48C18.5467 13.5467 16.92 13.08 14.76 13.08H6.72V39H3.44ZM38.7191 39.4C36.7191 39.4 34.9591 38.9333 33.4391 38C31.9191 37.0667 30.7324 35.8 29.8791 34.2C29.0524 32.5733 28.6391 30.7467 28.6391 28.72C28.6391 26.6667 29.0657 24.8533 29.9191 23.28C30.7724 21.7067 31.9457 20.4667 33.4391 19.56C34.9591 18.6533 36.7191 18.2 38.7191 18.2C40.7457 18.2 42.5057 18.6533 43.9991 19.56C45.5191 20.4667 46.6924 21.7067 47.5191 23.28C48.3724 24.8533 48.7991 26.6667 48.7991 28.72C48.7991 30.7467 48.3724 32.5733 47.5191 34.2C46.6924 35.8 45.5191 37.0667 43.9991 38C42.5057 38.9333 40.7457 39.4 38.7191 39.4ZM38.7191 36.68C40.1057 36.68 41.3057 36.3467 42.3191 35.68C43.3324 34.9867 44.1191 34.04 44.6791 32.84C45.2391 31.64 45.5191 30.2533 45.5191 28.68C45.5191 26.3333 44.8924 24.4533 43.6391 23.04C42.4124 21.6267 40.7724 20.92 38.7191 20.92C36.6924 20.92 35.0524 21.6267 33.7991 23.04C32.5457 24.4533 31.9191 26.3333 31.9191 28.68C31.9191 30.2533 32.1991 31.64 32.7591 32.84C33.3191 34.04 34.1057 34.9867 35.1191 35.68C36.1591 36.3467 37.3591 36.68 38.7191 36.68ZM59.3678 39L53.1278 18.6H56.3678L61.1678 36.08H60.3678L66.1278 18.6H68.7278L74.5278 36.08H73.7278L78.4878 18.6H81.5678L75.3278 39H72.7278L66.9678 21.92H67.8078L61.9678 39H59.3678ZM95.8413 39.4C93.8946 39.4 92.1746 38.9467 90.6813 38.04C89.1879 37.1067 88.0146 35.84 87.1613 34.24C86.3079 32.64 85.8813 30.8 85.8813 28.72C85.8813 26.64 86.2946 24.8133 87.1213 23.24C87.9746 21.64 89.1613 20.4 90.6813 19.52C92.2013 18.64 93.9479 18.2 95.9213 18.2C97.8146 18.2 99.4546 18.6133 100.841 19.44C102.255 20.2667 103.335 21.4267 104.081 22.92C104.855 24.4133 105.241 26.1733 105.241 28.2C105.241 28.4667 105.228 28.72 105.201 28.96C105.201 29.2 105.175 29.4667 105.121 29.76H88.2813V27.08H103.161L102.121 28.56C102.121 26.1067 101.575 24.2267 100.481 22.92C99.4146 21.5867 97.8946 20.92 95.9213 20.92C93.8946 20.92 92.2546 21.6267 91.0013 23.04C89.7746 24.4267 89.1613 26.3067 89.1613 28.68C89.1613 31.1067 89.7746 33.0533 91.0013 34.52C92.2546 35.96 93.9213 36.68 96.0013 36.68C97.3079 36.68 98.4546 36.4 99.4413 35.84C100.428 35.2533 101.148 34.4267 101.601 33.36H104.641C103.975 35.2267 102.855 36.7067 101.281 37.8C99.7346 38.8667 97.9213 39.4 95.8413 39.4ZM112.059 39V18.6H115.059V23.8H115.259V39H112.059ZM115.259 28.36L114.739 23.52C115.219 21.7867 116.073 20.4667 117.299 19.56C118.526 18.6533 119.939 18.2 121.539 18.2C122.206 18.2 122.659 18.2533 122.899 18.36V21.44C122.766 21.3867 122.579 21.36 122.339 21.36C122.099 21.3333 121.806 21.32 121.459 21.32C119.433 21.32 117.886 21.9333 116.819 23.16C115.779 24.36 115.259 26.0933 115.259 28.36ZM136.716 39.4C134.77 39.4 133.05 38.9467 131.556 38.04C130.063 37.1067 128.89 35.84 128.036 34.24C127.183 32.64 126.756 30.8 126.756 28.72C126.756 26.64 127.17 24.8133 127.996 23.24C128.85 21.64 130.036 20.4 131.556 19.52C133.076 18.64 134.823 18.2 136.796 18.2C138.69 18.2 140.33 18.6133 141.716 19.44C143.13 20.2667 144.21 21.4267 144.956 22.92C145.73 24.4133 146.116 26.1733 146.116 28.2C146.116 28.4667 146.103 28.72 146.076 28.96C146.076 29.2 146.05 29.4667 145.996 29.76H129.156V27.08H144.036L142.996 28.56C142.996 26.1067 142.45 24.2267 141.356 22.92C140.29 21.5867 138.77 20.92 136.796 20.92C134.77 20.92 133.13 21.6267 131.876 23.04C130.65 24.4267 130.036 26.3067 130.036 28.68C130.036 31.1067 130.65 33.0533 131.876 34.52C133.13 35.96 134.796 36.68 136.876 36.68C138.183 36.68 139.33 36.4 140.316 35.84C141.303 35.2533 142.023 34.4267 142.476 33.36H145.516C144.85 35.2267 143.73 36.7067 142.156 37.8C140.61 38.8667 138.796 39.4 136.716 39.4ZM167.774 39V34.24L168.174 34.36C167.668 35.9067 166.734 37.1333 165.374 38.04C164.041 38.9467 162.441 39.4 160.574 39.4C158.734 39.4 157.121 38.96 155.734 38.08C154.374 37.2 153.308 35.9733 152.534 34.4C151.788 32.8267 151.414 30.9867 151.414 28.88C151.414 26.7467 151.801 24.88 152.574 23.28C153.348 21.68 154.428 20.44 155.814 19.56C157.201 18.68 158.828 18.24 160.694 18.24C162.614 18.24 164.228 18.7067 165.534 19.64C166.841 20.5733 167.734 21.8933 168.214 23.6L167.574 23.68V10.2H170.774V39H167.774ZM161.174 36.6C163.228 36.6 164.828 35.9067 165.974 34.52C167.148 33.1067 167.734 31.1867 167.734 28.76C167.734 26.3867 167.148 24.5067 165.974 23.12C164.801 21.7333 163.201 21.04 161.174 21.04C159.148 21.04 157.561 21.7333 156.414 23.12C155.268 24.5067 154.694 26.4267 154.694 28.88C154.694 31.28 155.268 33.1733 156.414 34.56C157.561 35.92 159.148 36.6 161.174 36.6ZM199.28 39.36C197.36 39.36 195.747 38.8933 194.44 37.96C193.133 37.0267 192.24 35.7067 191.76 34L192.2 33.92V39H189.2V10.2H192.4V23.36L191.96 23.24C192.467 21.6667 193.387 20.44 194.72 19.56C196.08 18.6533 197.693 18.2 199.56 18.2C201.373 18.2 202.947 18.64 204.28 19.52C205.64 20.4 206.693 21.6267 207.44 23.2C208.187 24.7733 208.56 26.6133 208.56 28.72C208.56 30.8533 208.173 32.72 207.4 34.32C206.627 35.92 205.547 37.16 204.16 38.04C202.773 38.92 201.147 39.36 199.28 39.36ZM198.8 36.56C200.827 36.56 202.413 35.8667 203.56 34.48C204.707 33.0667 205.28 31.1467 205.28 28.72C205.28 26.32 204.707 24.44 203.56 23.08C202.413 21.6933 200.827 21 198.8 21C196.773 21 195.173 21.7067 194 23.12C192.827 24.5067 192.24 26.4133 192.24 28.84C192.24 31.2133 192.827 33.0933 194 34.48C195.173 35.8667 196.773 36.56 198.8 36.56ZM216.632 47.2L221.192 36.6L221.912 35.48L228.592 18.6H231.872L220.032 47.2H216.632ZM221.552 39.2L212.392 18.6H215.912L223.792 37.04L221.552 39.2Z" fill="#145559" fill-opacity="0.6"/>
<path d="M50.8264 67.5239H40.8775V92.9884C40.8775 101.237 47.5642 107.921 55.8106 107.921H72.8331V99.722H50.8264V67.5239Z" fill="#145559"/>
<path d="M88.5638 71.1223L74.8875 107.921H84.1738L87.4301 99.2392H106.845L110.101 107.921H119.929L104.795 67.5239H93.7396C91.4312 67.5239 89.3672 68.9586 88.5638 71.1223ZM90.3836 91.2801L95.4185 77.6917C95.7626 76.7633 96.6481 76.1456 97.639 76.1456H98.2215L103.89 91.2801H90.3836Z" fill="#145559"/>
<path d="M154.033 94.7162H152.706L135.824 67.5239H122.68V107.015C122.68 107.515 123.086 107.921 123.587 107.921H131.784V80.7292H133.172L150.054 107.921H163.199V69.2303C163.199 68.2882 162.434 67.5239 161.492 67.5239H154.033V94.7162Z" fill="#145559"/>
<path d="M167.963 75.7234H183.037V105.308C183.037 106.751 184.208 107.921 185.65 107.921H192.986V75.7234H204.709L208.06 67.5239H167.963V75.7234Z" fill="#145559"/>
<path d="M234 66.9795H231.981C217.208 66.9795 205.452 74.0942 205.452 86.7561V88.6853C205.452 101.468 217.208 108.462 231.981 108.462H234C248.47 108.462 259.987 101.468 259.987 88.6853V86.7561C259.987 74.0942 248.47 66.9795 234 66.9795ZM249.135 88.6853C249.135 95.6202 243.044 99.3573 233.518 99.3573H231.981C222.455 99.3573 216.364 95.6182 216.364 88.6853V86.7561C216.364 79.8818 222.455 76.084 231.981 76.084H233.518C243.044 76.084 249.135 79.8818 249.135 86.7561V88.6853Z" fill="#145559"/>
<path d="M296.146 68.5794V94.7162H294.818L277.935 67.5239H264.79V107.183C264.79 107.591 265.12 107.921 265.529 107.921H273.894V80.7292H275.282L292.164 107.921H305.309V67.5239H297.201C296.617 67.5239 296.144 67.9969 296.144 68.5813L296.146 68.5794Z" fill="#145559"/>
<path d="M22.1886 67.521H0V107.604C0 107.778 0.140752 107.919 0.314711 107.919H9.94891V94.6527H22.1886C32.9819 94.6527 37.323 90.0106 37.323 82.112V80.0011C37.323 72.1632 32.9819 67.521 22.1886 67.521ZM27.2529 81.8716C27.2529 85.2492 25.2631 86.4551 21.3442 86.4551H9.94891V75.7225H21.3442C25.2631 75.7225 27.2529 76.989 27.2529 80.2454V81.8736V81.8716Z" fill="#145559"/>
<path d="M356.862 64.8428C356.702 67.8851 353.42 70.2869 349.897 71.1676C352.619 73.4093 353.98 76.4516 353.98 79.654C353.98 88.861 345.414 95.3459 335.166 95.3459C332.043 95.3459 329.321 94.8656 327.08 93.9048C325.879 94.5453 324.278 95.8263 324.037 97.4275C323.557 101.35 328.441 102.231 333.084 102.231C337.488 102.231 342.211 101.751 345.013 101.751C352.859 101.751 356.382 105.594 355.581 110.557C354.541 118.403 345.734 124.008 331.083 124.008C321.876 124.008 313.549 121.045 314.59 113.92C314.91 111.438 316.992 108.316 320.915 106.715C318.513 105.434 316.432 103.192 316.912 99.7493C317.232 97.4275 319.314 94.3852 324.678 92.6239C321.475 90.5423 319.794 87.3399 319.794 83.7371C319.794 75.3308 328.761 67.8851 339.249 67.8851H339.329C342.291 67.8851 343.172 68.2053 344.933 68.2053C346.775 68.2053 349.176 66.6041 351.338 63.7219C352.219 62.7612 353.019 61.9606 354.22 61.9606C355.581 61.9606 356.942 63.0815 356.862 64.8428ZM336.287 92.0635C342.451 92.0635 346.534 86.2991 346.534 80.2945C346.534 75.2507 343.652 71.0075 338.288 71.0075C332.043 71.0075 327.4 76.5317 327.4 82.9365C327.4 88.1405 330.602 92.0635 336.287 92.0635ZM328.921 108.396C325.719 108.396 322.036 110.157 321.475 113.6C320.835 118.163 325.799 120.645 333.404 120.645C341.33 120.645 347.495 118.083 348.136 113.119C348.536 110.638 347.575 107.595 341.09 107.996C337.968 108.156 334.045 108.396 328.921 108.396Z" fill="url(#paint0_linear_441_254)"/>
<path d="M384.396 96.3867C385.917 95.0257 387.598 95.8263 386.477 97.8278C384.316 101.831 377.51 107.835 368.624 107.835C360.377 107.835 352.852 102.391 352.852 91.423C352.852 81.0951 361.738 67.805 376.31 67.805C382.634 67.805 387.838 71.0075 387.838 76.932C387.838 86.9396 375.589 92.2236 361.098 94.3052C362.299 98.9487 366.222 102.391 371.426 102.391C376.87 102.391 381.113 99.429 384.396 96.3867ZM373.748 71.5679C366.782 71.5679 360.538 79.0936 360.538 88.781C360.538 89.8218 361.018 90.7825 363.019 90.4622C373.267 88.861 380.633 84.5377 380.633 78.1329C380.633 74.29 377.831 71.5679 373.748 71.5679Z" fill="url(#paint1_linear_441_254)"/>
<path d="M430.012 100.07C430.492 100.07 430.892 100.47 430.812 101.19C430.492 104.153 427.289 107.595 423.126 107.595C418.803 107.595 417.602 104.393 417.922 99.7493L418.883 81.9758C419.123 76.8519 417.762 73.3292 413.359 73.3292C406.874 73.3292 400.149 83.4169 397.987 96.0665L396.466 104.793C396.306 105.834 395.826 106.314 394.945 106.554L390.862 107.595C389.741 107.915 389.02 107.275 389.181 105.994L393.184 78.293C393.824 73.8897 390.462 74.6903 390.462 72.7688C390.462 71.648 391.182 71.0875 394.945 69.4063C397.507 68.2854 398.708 68.1253 399.749 68.1253C400.869 68.1253 401.43 68.7658 401.27 69.8866L399.668 80.6148C403.832 72.8489 409.836 68.0452 416.641 68.0452C423.286 68.0452 426.649 72.6887 426.169 81.4954L425.208 99.349C425.128 101.03 425.128 102.311 426.489 102.311C428.01 102.311 429.051 100.07 430.012 100.07Z" fill="url(#paint2_linear_441_254)"/>
<path d="M442.427 61.8005C440.265 61.6404 438.664 60.0392 438.824 57.7975C438.984 54.9153 442.587 51.5527 445.789 51.953C447.951 52.1131 449.472 54.1147 449.392 56.1162C449.152 58.9183 445.549 62.0407 442.427 61.8005ZM439.544 107.595C435.141 107.595 433.54 104.393 434.26 99.7493L437.463 78.293C438.103 74.0498 434.741 74.5301 434.741 72.5286C434.741 71.648 435.301 70.8474 439.224 69.4063C442.266 68.2854 443.227 68.0452 444.268 68.0452C445.389 68.0452 445.949 68.7658 445.789 69.8866L441.546 99.349C441.306 101.03 441.546 102.311 442.907 102.311C444.428 102.311 445.469 100.07 446.43 100.07C446.91 100.07 447.31 100.47 447.23 101.19C446.91 104.153 443.708 107.595 439.544 107.595Z" fill="url(#paint3_linear_441_254)"/>
<path d="M490.083 100.07C490.563 100.07 490.963 100.47 490.883 101.19C490.563 104.153 487.361 107.595 483.198 107.595C479.435 107.595 476.713 105.273 478.234 96.787C474.151 103.352 468.947 107.835 462.542 107.835C454.696 107.835 451.013 102.551 452.294 92.784L454.296 77.8927C454.936 73.5694 451.574 74.6903 451.574 72.7688C451.574 71.648 452.214 71.0075 456.057 69.4063C458.619 68.3655 460.38 67.9652 461.421 67.9652C462.542 67.9652 463.182 68.7658 462.942 69.8866L459.9 91.1027C459.259 95.7462 458.379 103.112 464.703 103.112C471.349 103.112 478.634 92.6239 480.716 79.9743L482.157 71.0875C482.317 69.8866 483.117 69.5664 483.998 69.3262L487.841 68.2053C489.202 67.805 489.843 68.9259 489.682 69.8866L485.279 99.2689C484.959 101.03 485.199 102.311 486.56 102.311C488.081 102.311 489.042 100.07 490.083 100.07Z" fill="url(#paint4_linear_441_254)"/>
<path d="M506.67 107.835C502.427 107.835 494.341 107.355 493.38 104.073C492.74 101.831 492.179 99.8293 491.699 96.6269C491.539 95.5061 491.939 94.7055 492.9 94.4653C493.7 94.2251 494.501 94.7055 495.302 95.9864C499.705 102.872 504.268 104.233 508.432 104.233C512.515 104.233 515.157 101.911 515.477 99.5091C516.198 95.5861 512.435 93.2644 506.43 90.6224C499.945 87.9003 494.421 84.2976 495.622 77.7326C496.823 70.5271 504.829 67.805 511.314 67.805C515.717 67.805 521.161 68.6857 522.362 71.728C523.003 73.2492 523.403 74.29 523.723 75.651C524.204 77.7326 523.963 78.3731 522.923 78.7734C521.802 79.1737 520.921 78.0528 518.359 75.5709C515.797 73.009 512.835 71.3277 509.232 71.3277C505.549 71.3277 502.667 73.4894 502.267 75.9712C501.546 79.8142 504.589 81.5755 511.394 84.5377C518.599 87.58 523.723 91.2628 522.682 97.1873C521.562 103.192 515.557 107.835 506.67 107.835Z" fill="url(#paint5_linear_441_254)"/>
<defs>
<linearGradient id="paint0_linear_441_254" x1="362.988" y1="62.4991" x2="506.438" y2="113.98" gradientUnits="userSpaceOnUse">
<stop stop-color="#44A767"/>
<stop offset="1" stop-color="#00A4A3"/>
</linearGradient>
<linearGradient id="paint1_linear_441_254" x1="362.988" y1="62.4991" x2="506.438" y2="113.98" gradientUnits="userSpaceOnUse">
<stop stop-color="#44A767"/>
<stop offset="1" stop-color="#00A4A3"/>
</linearGradient>
<linearGradient id="paint2_linear_441_254" x1="362.988" y1="62.4991" x2="506.438" y2="113.98" gradientUnits="userSpaceOnUse">
<stop stop-color="#44A767"/>
<stop offset="1" stop-color="#00A4A3"/>
</linearGradient>
<linearGradient id="paint3_linear_441_254" x1="362.988" y1="62.4991" x2="506.438" y2="113.98" gradientUnits="userSpaceOnUse">
<stop stop-color="#44A767"/>
<stop offset="1" stop-color="#00A4A3"/>
</linearGradient>
<linearGradient id="paint4_linear_441_254" x1="362.988" y1="62.4991" x2="506.438" y2="113.98" gradientUnits="userSpaceOnUse">
<stop stop-color="#44A767"/>
<stop offset="1" stop-color="#00A4A3"/>
</linearGradient>
<linearGradient id="paint5_linear_441_254" x1="362.988" y1="62.4991" x2="506.438" y2="113.98" gradientUnits="userSpaceOnUse">
<stop stop-color="#44A767"/>
<stop offset="1" stop-color="#00A4A3"/>
</linearGradient>
</defs>
</svg>
