<svg width="814" height="73" viewBox="0 0 814 73" fill="none" xmlns="http://www.w3.org/2000/svg">
<path d="M3.784 56.5415V24.8615H16.368C18.6267 24.8615 20.548 25.2282 22.132 25.9615C23.716 26.6948 24.9187 27.7508 25.74 29.1295C26.5907 30.5082 27.016 32.1655 27.016 34.1015C27.016 36.0375 26.5907 37.7095 25.74 39.1175C24.9187 40.4962 23.716 41.5668 22.132 42.3295C20.548 43.0922 18.6267 43.4735 16.368 43.4735H6.424V40.3055H16.236C18.5827 40.3055 20.3573 39.7775 21.56 38.7215C22.792 37.6362 23.408 36.0962 23.408 34.1015C23.408 32.1068 22.8067 30.5962 21.604 29.5695C20.4013 28.5428 18.612 28.0295 16.236 28.0295H7.392V56.5415H3.784ZM42.591 56.9815C40.391 56.9815 38.455 56.4682 36.783 55.4415C35.111 54.4148 33.8056 53.0215 32.867 51.2615C31.9576 49.4722 31.503 47.4628 31.503 45.2335C31.503 42.9748 31.9723 40.9802 32.911 39.2495C33.8496 37.5188 35.1403 36.1548 36.783 35.1575C38.455 34.1602 40.391 33.6615 42.591 33.6615C44.8203 33.6615 46.7563 34.1602 48.399 35.1575C50.071 36.1548 51.3616 37.5188 52.271 39.2495C53.2096 40.9802 53.679 42.9748 53.679 45.2335C53.679 47.4628 53.2096 49.4722 52.271 51.2615C51.3616 53.0215 50.071 54.4148 48.399 55.4415C46.7563 56.4682 44.8203 56.9815 42.591 56.9815ZM42.591 53.9895C44.1163 53.9895 45.4363 53.6228 46.551 52.8895C47.6656 52.1268 48.531 51.0855 49.147 49.7655C49.763 48.4455 50.071 46.9202 50.071 45.1895C50.071 42.6082 49.3816 40.5402 48.003 38.9855C46.6536 37.4308 44.8496 36.6535 42.591 36.6535C40.3616 36.6535 38.5576 37.4308 37.179 38.9855C35.8003 40.5402 35.111 42.6082 35.111 45.1895C35.111 46.9202 35.419 48.4455 36.035 49.7655C36.651 51.0855 37.5163 52.1268 38.631 52.8895C39.775 53.6228 41.095 53.9895 42.591 53.9895ZM65.3046 56.5415L58.4406 34.1015H62.0046L67.2846 53.3295H66.4046L72.7406 34.1015H75.6006L81.9806 53.3295H81.1006L86.3366 34.1015H89.7246L82.8606 56.5415H80.0006L73.6646 37.7535H74.5886L68.1646 56.5415H65.3046ZM105.425 56.9815C103.284 56.9815 101.392 56.4828 99.7494 55.4855C98.1067 54.4588 96.816 53.0655 95.8774 51.3055C94.9387 49.5455 94.4694 47.5215 94.4694 45.2335C94.4694 42.9455 94.924 40.9362 95.8334 39.2055C96.772 37.4455 98.0774 36.0815 99.7494 35.1135C101.421 34.1455 103.343 33.6615 105.513 33.6615C107.596 33.6615 109.4 34.1162 110.925 35.0255C112.48 35.9348 113.668 37.2108 114.489 38.8535C115.34 40.4962 115.765 42.4322 115.765 44.6615C115.765 44.9548 115.751 45.2335 115.721 45.4975C115.721 45.7615 115.692 46.0548 115.633 46.3775H97.1094V43.4295H113.477L112.333 45.0575C112.333 42.3588 111.732 40.2908 110.529 38.8535C109.356 37.3868 107.684 36.6535 105.513 36.6535C103.284 36.6535 101.48 37.4308 100.101 38.9855C98.752 40.5108 98.0774 42.5788 98.0774 45.1895C98.0774 47.8588 98.752 50.0002 100.101 51.6135C101.48 53.1975 103.313 53.9895 105.601 53.9895C107.039 53.9895 108.3 53.6815 109.385 53.0655C110.471 52.4202 111.263 51.5108 111.761 50.3375H115.105C114.372 52.3908 113.14 54.0188 111.409 55.2215C109.708 56.3948 107.713 56.9815 105.425 56.9815ZM123.265 56.5415V34.1015H126.565V39.8215H126.785V56.5415H123.265ZM126.785 44.8375L126.213 39.5135C126.741 37.6068 127.68 36.1548 129.029 35.1575C130.379 34.1602 131.933 33.6615 133.693 33.6615C134.427 33.6615 134.925 33.7202 135.189 33.8375V37.2255C135.043 37.1668 134.837 37.1375 134.573 37.1375C134.309 37.1082 133.987 37.0935 133.605 37.0935C131.376 37.0935 129.675 37.7682 128.501 39.1175C127.357 40.4375 126.785 42.3442 126.785 44.8375ZM150.388 56.9815C148.247 56.9815 146.355 56.4828 144.712 55.4855C143.069 54.4588 141.779 53.0655 140.84 51.3055C139.901 49.5455 139.432 47.5215 139.432 45.2335C139.432 42.9455 139.887 40.9362 140.796 39.2055C141.735 37.4455 143.04 36.0815 144.712 35.1135C146.384 34.1455 148.305 33.6615 150.476 33.6615C152.559 33.6615 154.363 34.1162 155.888 35.0255C157.443 35.9348 158.631 37.2108 159.452 38.8535C160.303 40.4962 160.728 42.4322 160.728 44.6615C160.728 44.9548 160.713 45.2335 160.684 45.4975C160.684 45.7615 160.655 46.0548 160.596 46.3775H142.072V43.4295H158.44L157.296 45.0575C157.296 42.3588 156.695 40.2908 155.492 38.8535C154.319 37.3868 152.647 36.6535 150.476 36.6535C148.247 36.6535 146.443 37.4308 145.064 38.9855C143.715 40.5108 143.04 42.5788 143.04 45.1895C143.04 47.8588 143.715 50.0002 145.064 51.6135C146.443 53.1975 148.276 53.9895 150.564 53.9895C152.001 53.9895 153.263 53.6815 154.348 53.0655C155.433 52.4202 156.225 51.5108 156.724 50.3375H160.068C159.335 52.3908 158.103 54.0188 156.372 55.2215C154.671 56.3948 152.676 56.9815 150.388 56.9815ZM184.552 56.5415V51.3055L184.992 51.4375C184.434 53.1388 183.408 54.4882 181.912 55.4855C180.445 56.4828 178.685 56.9815 176.632 56.9815C174.608 56.9815 172.833 56.4975 171.308 55.5295C169.812 54.5615 168.638 53.2122 167.788 51.4815C166.966 49.7508 166.556 47.7268 166.556 45.4095C166.556 43.0628 166.981 41.0095 167.832 39.2495C168.682 37.4895 169.87 36.1255 171.396 35.1575C172.921 34.1895 174.71 33.7055 176.764 33.7055C178.876 33.7055 180.65 34.2188 182.088 35.2455C183.525 36.2722 184.508 37.7242 185.036 39.6015L184.332 39.6895V24.8615H187.852V56.5415H184.552ZM177.292 53.9015C179.55 53.9015 181.31 53.1388 182.572 51.6135C183.862 50.0588 184.508 47.9468 184.508 45.2775C184.508 42.6668 183.862 40.5988 182.572 39.0735C181.281 37.5482 179.521 36.7855 177.292 36.7855C175.062 36.7855 173.317 37.5482 172.056 39.0735C170.794 40.5988 170.164 42.7108 170.164 45.4095C170.164 48.0495 170.794 50.1322 172.056 51.6575C173.317 53.1535 175.062 53.9015 177.292 53.9015ZM219.208 56.9375C217.096 56.9375 215.321 56.4242 213.884 55.3975C212.447 54.3708 211.464 52.9188 210.936 51.0415L211.42 50.9535V56.5415H208.12V24.8615H211.64V39.3375L211.156 39.2055C211.713 37.4748 212.725 36.1255 214.192 35.1575C215.688 34.1602 217.463 33.6615 219.516 33.6615C221.511 33.6615 223.241 34.1455 224.708 35.1135C226.204 36.0815 227.363 37.4308 228.184 39.1615C229.005 40.8922 229.416 42.9162 229.416 45.2335C229.416 47.5802 228.991 49.6335 228.14 51.3935C227.289 53.1535 226.101 54.5175 224.576 55.4855C223.051 56.4535 221.261 56.9375 219.208 56.9375ZM218.68 53.8575C220.909 53.8575 222.655 53.0948 223.916 51.5695C225.177 50.0148 225.808 47.9028 225.808 45.2335C225.808 42.5935 225.177 40.5255 223.916 39.0295C222.655 37.5042 220.909 36.7415 218.68 36.7415C216.451 36.7415 214.691 37.5188 213.4 39.0735C212.109 40.5988 211.464 42.6962 211.464 45.3655C211.464 47.9762 212.109 50.0442 213.4 51.5695C214.691 53.0948 216.451 53.8575 218.68 53.8575ZM238.295 65.5615L243.311 53.9015L244.103 52.6695L251.451 34.1015H255.059L242.035 65.5615H238.295ZM243.707 56.7615L233.631 34.1015H237.503L246.171 54.3855L243.707 56.7615Z" fill="#145559" fill-opacity="0.6"/>
<path d="M340.74 15.6035H330.791V41.068C330.791 49.3164 337.478 56.0011 345.724 56.0011H362.747V47.8015H340.74V15.6035Z" fill="#145559"/>
<path d="M378.478 19.2019L364.801 56.0011H374.088L377.344 47.3188H396.759L400.015 56.0011H409.843L394.709 15.6035H383.653C381.345 15.6035 379.281 17.0382 378.478 19.2019ZM380.297 39.3597L385.332 25.7713C385.676 24.8429 386.562 24.2252 387.553 24.2252H388.135L393.804 39.3597H380.297Z" fill="#145559"/>
<path d="M443.947 42.7958H442.62L425.738 15.6035H412.594V55.0941C412.594 55.5945 413 56.0011 413.501 56.0011H421.698V28.8087H423.086L439.968 56.0011H453.112V17.3099C453.112 16.3678 452.348 15.6035 451.406 15.6035H443.947V42.7958Z" fill="#145559"/>
<path d="M457.877 23.803H472.951V53.3878C472.951 54.8303 474.122 56.0011 475.564 56.0011H482.9V23.803H494.623L497.974 15.6035H457.877V23.803Z" fill="#145559"/>
<path d="M523.914 15.0591H521.895C507.122 15.0591 495.365 22.1738 495.365 34.8357V36.7649C495.365 49.5479 507.122 56.5414 521.895 56.5414H523.914C538.384 56.5414 549.901 49.5479 549.901 36.7649V34.8357C549.901 22.1738 538.384 15.0591 523.914 15.0591ZM539.049 36.7649C539.049 43.6998 532.958 47.4369 523.431 47.4369H521.895C512.369 47.4369 506.278 43.6978 506.278 36.7649V34.8357C506.278 27.9614 512.369 24.1636 521.895 24.1636H523.431C532.958 24.1636 539.049 27.9614 539.049 34.8357V36.7649Z" fill="#145559"/>
<path d="M586.059 16.659V42.7958H584.732L567.849 15.6035H554.704V55.2622C554.704 55.6707 555.034 56.0011 555.443 56.0011H563.808V28.8087H565.196L582.078 56.0011H595.223V15.6035H587.115C586.53 15.6035 586.057 16.0765 586.057 16.6609L586.059 16.659Z" fill="#145559"/>
<path d="M312.102 15.6006H289.914V55.6834C289.914 55.8574 290.055 55.9981 290.229 55.9981H299.863V42.7323H312.102C322.896 42.7323 327.237 38.0902 327.237 30.1916V28.0807C327.237 20.2427 322.896 15.6006 312.102 15.6006ZM317.167 29.9512C317.167 33.3287 315.177 34.5347 311.258 34.5347H299.863V23.8021H311.258C315.177 23.8021 317.167 25.0686 317.167 28.325V29.9532V29.9512Z" fill="#145559"/>
<path d="M646.776 12.9224C646.616 15.9647 643.334 18.3665 639.811 19.2472C642.533 21.4889 643.894 24.5312 643.894 27.7336C643.894 36.9406 635.327 43.4255 625.08 43.4255C621.957 43.4255 619.235 42.9452 616.994 41.9844C615.793 42.6249 614.191 43.9059 613.951 45.5071C613.471 49.4301 618.355 50.3108 622.998 50.3108C627.401 50.3108 632.125 49.8304 634.927 49.8304C642.773 49.8304 646.296 53.6733 645.495 58.6371C644.454 66.483 635.648 72.0873 620.997 72.0873C611.79 72.0873 603.463 69.125 604.504 61.9996C604.824 59.5177 606.906 56.3954 610.829 54.7942C608.427 53.5132 606.345 51.2715 606.826 47.8289C607.146 45.5071 609.228 42.4648 614.592 40.7035C611.389 38.6219 609.708 35.4195 609.708 31.8167C609.708 23.4103 618.675 15.9647 629.163 15.9647H629.243C632.205 15.9647 633.086 16.2849 634.847 16.2849C636.688 16.2849 639.09 14.6837 641.252 11.8015C642.133 10.8408 642.933 10.0402 644.134 10.0402C645.495 10.0402 646.856 11.1611 646.776 12.9224ZM626.201 40.143C632.365 40.143 636.448 34.3787 636.448 28.3741C636.448 23.3303 633.566 19.0871 628.202 19.0871C621.957 19.0871 617.314 24.6113 617.314 31.0161C617.314 36.2201 620.516 40.143 626.201 40.143ZM618.835 56.4754C615.633 56.4754 611.95 58.2368 611.389 61.6794C610.749 66.2428 615.713 68.7247 623.318 68.7247C631.244 68.7247 637.409 66.1628 638.05 61.199C638.45 58.7171 637.489 55.6748 631.004 56.0751C627.882 56.2353 623.959 56.4754 618.835 56.4754Z" fill="url(#paint0_linear_447_317)"/>
<path d="M674.31 44.4663C675.831 43.1053 677.512 43.9059 676.391 45.9074C674.229 49.9105 667.424 55.915 658.538 55.915C650.291 55.915 642.766 50.4709 642.766 39.5026C642.766 29.1747 651.652 15.8846 666.223 15.8846C672.548 15.8846 677.752 19.0871 677.752 25.0116C677.752 35.0192 665.503 40.3032 651.012 42.3847C652.213 47.0283 656.136 50.4709 661.34 50.4709C666.784 50.4709 671.027 47.5086 674.31 44.4663ZM663.661 19.6475C656.696 19.6475 650.451 27.1732 650.451 36.8606C650.451 37.9013 650.932 38.8621 652.933 38.5418C663.181 36.9406 670.547 32.6173 670.547 26.2125C670.547 22.3696 667.745 19.6475 663.661 19.6475Z" fill="url(#paint1_linear_447_317)"/>
<path d="M719.925 48.1491C720.406 48.1491 720.806 48.5494 720.726 49.27C720.406 52.2322 717.203 55.6748 713.04 55.6748C708.717 55.6748 707.516 52.4724 707.836 47.8289L708.797 30.0554C709.037 24.9315 707.676 21.4088 703.273 21.4088C696.788 21.4088 690.063 31.4965 687.901 44.1461L686.38 52.8727C686.22 53.9135 685.739 54.3939 684.859 54.634L680.776 55.6748C679.655 55.9951 678.934 55.3546 679.094 54.0736L683.097 26.3726C683.738 21.9693 680.375 22.7699 680.375 20.8484C680.375 19.7275 681.096 19.1671 684.859 17.4858C687.421 16.365 688.622 16.2049 689.662 16.2049C690.783 16.2049 691.344 16.8454 691.184 17.9662L689.582 28.6944C693.746 20.9285 699.75 16.1248 706.555 16.1248C713.2 16.1248 716.563 20.7683 716.082 29.575L715.122 47.4286C715.042 49.1098 715.042 50.3908 716.403 50.3908C717.924 50.3908 718.965 48.1491 719.925 48.1491Z" fill="url(#paint2_linear_447_317)"/>
<path d="M732.34 9.88008C730.179 9.71996 728.578 8.11874 728.738 5.87704C728.898 2.99486 732.501 -0.367695 735.703 0.0326082C737.865 0.192728 739.386 2.19425 739.306 4.19577C739.066 6.99789 735.463 10.1203 732.34 9.88008ZM729.458 55.6748C725.055 55.6748 723.454 52.4724 724.174 47.8289L727.377 26.3726C728.017 22.1294 724.655 22.6097 724.655 20.6082C724.655 19.7275 725.215 18.9269 729.138 17.4858C732.18 16.365 733.141 16.1248 734.182 16.1248C735.303 16.1248 735.863 16.8454 735.703 17.9662L731.46 47.4286C731.22 49.1098 731.46 50.3908 732.821 50.3908C734.342 50.3908 735.383 48.1491 736.343 48.1491C736.824 48.1491 737.224 48.5494 737.144 49.27C736.824 52.2322 733.621 55.6748 729.458 55.6748Z" fill="url(#paint3_linear_447_317)"/>
<path d="M779.997 48.1491C780.477 48.1491 780.877 48.5494 780.797 49.27C780.477 52.2322 777.275 55.6748 773.111 55.6748C769.349 55.6748 766.626 53.3531 768.148 44.8666C764.065 51.4316 758.861 55.915 752.456 55.915C744.61 55.915 740.927 50.631 742.208 40.8636L744.209 25.9723C744.85 21.649 741.487 22.7699 741.487 20.8484C741.487 19.7275 742.128 19.0871 745.971 17.4858C748.533 16.4451 750.294 16.0448 751.335 16.0448C752.456 16.0448 753.096 16.8454 752.856 17.9662L749.814 39.1823C749.173 43.8258 748.293 51.1914 754.617 51.1914C761.262 51.1914 768.548 40.7035 770.63 28.0539L772.071 19.1671C772.231 17.9662 773.031 17.646 773.912 17.4058L777.755 16.2849C779.116 15.8846 779.756 17.0055 779.596 17.9662L775.193 47.3485C774.873 49.1098 775.113 50.3908 776.474 50.3908C777.995 50.3908 778.956 48.1491 779.997 48.1491Z" fill="url(#paint4_linear_447_317)"/>
<path d="M796.584 55.915C792.341 55.915 784.255 55.4346 783.294 52.1522C782.654 49.9104 782.093 47.9089 781.613 44.7065C781.453 43.5857 781.853 42.785 782.814 42.5449C783.614 42.3047 784.415 42.785 785.216 44.066C789.619 50.9512 794.182 52.3123 798.346 52.3123C802.429 52.3123 805.071 49.9905 805.391 47.5887C806.111 43.6657 802.349 41.344 796.344 38.7019C789.859 35.9799 784.335 32.3771 785.536 25.8122C786.737 18.6067 794.743 15.8846 801.228 15.8846C805.631 15.8846 811.075 16.7653 812.276 19.8076C812.917 21.3288 813.317 22.3696 813.637 23.7306C814.118 25.8122 813.877 26.4527 812.837 26.853C811.716 27.2533 810.835 26.1324 808.273 23.6505C805.711 21.0886 802.749 19.4073 799.146 19.4073C795.463 19.4073 792.581 21.5689 792.181 24.0508C791.46 27.8937 794.503 29.6551 801.308 32.6173C808.513 35.6596 813.637 39.3424 812.596 45.2669C811.475 51.2715 805.471 55.915 796.584 55.915Z" fill="url(#paint5_linear_447_317)"/>
<defs>
<linearGradient id="paint0_linear_447_317" x1="652.902" y1="10.5786" x2="796.352" y2="62.0593" gradientUnits="userSpaceOnUse">
<stop stop-color="#44A767"/>
<stop offset="1" stop-color="#00A4A3"/>
</linearGradient>
<linearGradient id="paint1_linear_447_317" x1="652.902" y1="10.5786" x2="796.352" y2="62.0593" gradientUnits="userSpaceOnUse">
<stop stop-color="#44A767"/>
<stop offset="1" stop-color="#00A4A3"/>
</linearGradient>
<linearGradient id="paint2_linear_447_317" x1="652.902" y1="10.5786" x2="796.352" y2="62.0593" gradientUnits="userSpaceOnUse">
<stop stop-color="#44A767"/>
<stop offset="1" stop-color="#00A4A3"/>
</linearGradient>
<linearGradient id="paint3_linear_447_317" x1="652.902" y1="10.5786" x2="796.352" y2="62.0593" gradientUnits="userSpaceOnUse">
<stop stop-color="#44A767"/>
<stop offset="1" stop-color="#00A4A3"/>
</linearGradient>
<linearGradient id="paint4_linear_447_317" x1="652.902" y1="10.5786" x2="796.352" y2="62.0593" gradientUnits="userSpaceOnUse">
<stop stop-color="#44A767"/>
<stop offset="1" stop-color="#00A4A3"/>
</linearGradient>
<linearGradient id="paint5_linear_447_317" x1="652.902" y1="10.5786" x2="796.352" y2="62.0593" gradientUnits="userSpaceOnUse">
<stop stop-color="#44A767"/>
<stop offset="1" stop-color="#00A4A3"/>
</linearGradient>
</defs>
</svg>
