<svg width="247" height="246" viewBox="0 0 247 246" fill="none" xmlns="http://www.w3.org/2000/svg">
<path d="M227.097 0.0146384H19.1332C8.56483 0.0146384 0 8.57947 0 19.1478V226.21C0 236.778 8.56483 245.343 19.1332 245.343H45.047L18.9576 128.926C16.7299 118.991 18.5481 108.574 24.0517 100.009C26.411 96.3386 29.3553 92.4095 32.9626 88.6414L37.5156 112.547L33.6159 87.9736C37.3986 84.1274 41.8785 80.4812 47.148 77.4832L57.0095 139.611L48.9907 76.4791C53.0854 74.3439 57.6285 72.6085 62.6543 71.463L74.6559 165.993L65.5987 70.8634C68.7867 70.3028 72.16 69.9713 75.7234 69.9226C76.8007 69.9079 77.8683 69.9226 78.9359 69.9518L90.5377 191.78L82.8161 70.1468C87.1497 70.4686 91.3858 71.1218 95.5001 72.0382L104.703 217.016L100.136 73.1935C104.226 74.3196 108.184 75.6893 111.986 77.2297L117.212 241.795V79.4916C121.034 81.2513 124.67 83.1623 128.102 85.1365V245.338H128.765L133.742 88.539C137.32 90.8009 140.615 93.0774 143.603 95.2564L138.841 245.338H140.269L149.517 99.7216C153.221 102.617 156.195 105.103 158.33 106.805L149.536 245.338H151.72L164.487 111.26C166.719 112.815 169.386 114.614 172.452 116.461L160.177 245.334H163.112L179.013 120.122C181.275 121.282 183.688 122.413 186.247 123.466L170.77 245.334H174.46L193.394 126.045C195.509 126.703 197.703 127.298 199.975 127.795L181.319 245.334H185.76L207.901 129.101C208.929 129.218 209.968 129.321 211.021 129.394C212.025 129.462 212.975 129.477 213.892 129.447L191.819 245.334H198.064L224.538 126.196C228.404 123.827 230.505 120.502 231.558 118.231L203.314 245.329H227.107C237.675 245.329 246.24 236.764 246.24 226.195V19.1332C246.24 8.56483 237.675 0 227.107 0L227.097 0.0146384ZM135.994 80.1302C137.764 79.6915 139.558 79.282 141.376 78.8969L141.946 84.1469C140.065 82.821 138.081 81.4756 135.989 80.1302H135.994ZM148.347 88.8462L147.318 77.7611C149.448 77.3955 151.608 77.0835 153.782 76.8154L155.415 94.4423C153.421 92.819 151.052 90.913 148.347 88.8462ZM161.182 99.0148C161.128 98.9758 161.065 98.9319 161.006 98.8929L159.281 76.2548C161.63 76.0647 163.999 75.9477 166.368 75.8989L168.518 104.089C165.51 102.1 163.044 100.311 161.177 99.0148H161.182ZM173.261 107.078L171.399 75.8989C173.973 75.9623 176.547 76.1281 179.111 76.3913L181.202 111.392C178.316 109.988 175.669 108.52 173.261 107.078ZM185.19 113.21L183.62 76.947C186.569 77.3906 189.338 77.917 191.941 78.502L193.579 116.31C190.625 115.394 187.827 114.341 185.194 113.21H185.19ZM196.889 117.256L195.88 79.4672C199.131 80.3398 202.085 81.3098 204.776 82.3579L205.756 119.04C202.675 118.611 199.716 117.997 196.889 117.251V117.256ZM210.845 119.586C210.041 119.532 209.251 119.459 208.461 119.381L208.101 83.7521C211.791 85.4046 214.91 87.1936 217.548 89.0168L217.855 119.162C215.817 119.596 213.497 119.771 210.85 119.591L210.845 119.586ZM230.037 110.207C228.467 113.039 225.459 116.754 220.019 118.567L220.2 90.9764C225.679 95.3441 228.589 99.707 230.09 102.69L230.042 110.202L230.037 110.207Z" fill="#ACCF77"/>
</svg>
