<svg width="155" height="155" viewBox="0 0 155 155" fill="none" xmlns="http://www.w3.org/2000/svg">
<path d="M142.778 0.00920329H12.0292C5.3848 0.00920329 0 5.394 0 12.0384V142.221C0 148.865 5.3848 154.25 12.0292 154.25H28.3215L11.9189 81.057C10.5183 74.811 11.6614 68.2616 15.1215 62.8768C16.6049 60.569 18.456 58.0988 20.7239 55.7298L23.5865 70.7594L21.1346 55.3099C23.5129 52.8918 26.3294 50.5993 29.6424 48.7145L35.8425 87.775L30.8009 48.0832C33.3753 46.7408 36.2316 45.6497 39.3914 44.9295L46.9369 104.362L41.2425 44.5525C43.2469 44.2001 45.3677 43.9917 47.6081 43.961C48.2854 43.9518 48.9566 43.961 49.6278 43.9794L56.922 120.574L52.0673 44.102C54.7919 44.3043 57.4552 44.715 60.0419 45.2912L65.8281 136.44L62.9565 46.0175C65.5278 46.7255 68.0164 47.5867 70.4069 48.5551L73.6924 152.019V49.9772C76.0951 51.0836 78.3814 52.285 80.539 53.5262V154.247H80.9558L84.085 55.6654C86.3345 57.0875 88.4063 58.5187 90.285 59.8887L87.2907 154.247H88.1887L94.0026 62.696C96.3318 64.5164 98.2013 66.0795 99.5436 67.1491L94.0149 154.247H95.3879L103.414 69.9503C104.818 70.928 106.495 72.0589 108.422 73.2204L100.705 154.244H102.55L112.548 75.522C113.97 76.2514 115.487 76.9625 117.096 77.6245L107.365 154.244H109.685L121.589 79.2457C122.919 79.6595 124.298 80.0334 125.726 80.346L113.997 154.244H116.789L130.709 81.1673C131.356 81.2409 132.009 81.3052 132.671 81.3512C133.302 81.3941 133.9 81.4033 134.476 81.3849L120.599 154.244H124.525L141.169 79.3407C143.6 77.8513 144.921 75.7611 145.583 74.3329L127.825 154.241H142.784C149.429 154.241 154.814 148.856 154.814 142.211V12.0292C154.814 5.3848 149.429 0 142.784 0L142.778 0.00920329ZM85.5009 50.3787C86.6134 50.1028 87.7413 49.8454 88.8844 49.6033L89.243 52.904C88.06 52.0704 86.8126 51.2246 85.4979 50.3787H85.5009ZM93.267 55.8585L92.6204 48.8892C93.9597 48.6593 95.3174 48.4632 96.6843 48.2946L97.7109 59.3768C96.4574 58.3563 94.9679 57.1579 93.267 55.8585ZM101.337 62.2516C101.303 62.2271 101.263 62.1995 101.226 62.175L100.141 47.9422C101.619 47.8226 103.108 47.7491 104.597 47.7184L105.949 65.442C104.058 64.1916 102.507 63.0668 101.333 62.2516H101.337ZM108.931 67.3207L107.76 47.7184C109.379 47.7583 110.997 47.8625 112.609 48.028L113.924 70.033C112.109 69.1504 110.445 68.2279 108.931 67.3207ZM116.431 71.1762L115.444 48.3774C117.298 48.6563 119.039 48.9872 120.675 49.355L121.705 73.1254C119.848 72.5492 118.089 71.8872 116.434 71.1762H116.431ZM123.786 73.7199L123.152 49.9619C125.196 50.5105 127.053 51.1203 128.745 51.7793L129.361 74.8416C127.424 74.5719 125.564 74.1858 123.786 73.7169V73.7199ZM132.56 75.1849C132.055 75.1512 131.558 75.1052 131.062 75.0562L130.835 52.6558C133.155 53.6947 135.116 54.8195 136.774 55.9657L136.968 74.9183C135.687 75.191 134.228 75.3014 132.563 75.188L132.56 75.1849ZM144.626 69.2883C143.64 71.0689 141.749 73.4043 138.328 74.5444L138.442 57.1978C141.887 59.9438 143.716 62.6868 144.66 64.5624L144.629 69.2852L144.626 69.2883Z" fill="#ACCF77"/>
</svg>
