<svg width="1525" height="210" viewBox="0 0 1525 210" fill="none" xmlns="http://www.w3.org/2000/svg">
<path d="M147.85 45.3896H118.909V119.464C118.909 143.458 138.36 162.903 162.349 162.903H211.866V139.051H147.85V45.3896Z" fill="white"/>
<path d="M257.625 55.8572L217.842 162.903H244.855L254.327 137.647H310.804L320.277 162.903H348.865L304.84 45.3896H272.681C265.966 45.3896 259.962 49.563 257.625 55.8572ZM262.919 114.494L277.565 74.967C278.566 72.2663 281.142 70.4695 284.024 70.4695H285.719L302.207 114.494H262.919Z" fill="white"/>
<path d="M448.071 124.49H444.211L395.103 45.3896H356.866V160.265C356.866 161.72 358.049 162.903 359.504 162.903H383.35V83.8026H387.387L436.495 162.903H474.732V50.3533C474.732 47.6128 472.509 45.3896 469.768 45.3896H448.071V124.49Z" fill="white"/>
<path d="M488.591 69.2414H532.44V155.301C532.44 159.497 535.846 162.903 540.042 162.903H561.381V69.2414H595.484L605.229 45.3896H488.591V69.2414Z" fill="white"/>
<path d="M680.689 43.8057H674.816C631.843 43.8057 597.643 64.5019 597.643 101.334V106.946C597.643 144.131 631.843 164.475 674.816 164.475H680.689C722.781 164.475 756.281 144.131 756.281 106.946V101.334C756.281 64.5019 722.781 43.8057 680.689 43.8057ZM724.714 106.946C724.714 127.119 706.997 137.99 679.285 137.99H674.816C647.103 137.99 629.386 127.113 629.386 106.946V101.334C629.386 81.3374 647.103 70.2899 674.816 70.2899H679.285C706.997 70.2899 724.714 81.3374 724.714 101.334V106.946Z" fill="white"/>
<path d="M861.464 48.46V124.49H857.604L808.49 45.3896H770.253V160.754C770.253 161.942 771.214 162.903 772.403 162.903H796.738V83.8026H800.774L849.882 162.903H888.119V45.3896H864.535C862.835 45.3896 861.459 46.7656 861.459 48.4656L861.464 48.46Z" fill="white"/>
<path d="M64.5449 45.3809H0V161.979C0 162.485 0.409436 162.894 0.915469 162.894H28.9406V124.305H64.5449C95.9417 124.305 108.57 110.801 108.57 87.8251V81.6844C108.57 58.8845 95.9417 45.3809 64.5449 45.3809ZM79.2766 87.1257C79.2766 96.9507 73.4885 100.459 62.0885 100.459H28.9406V69.2383H62.0885C73.4885 69.2383 79.2766 72.9227 79.2766 82.3952V87.1314V87.1257Z" fill="white"/>
<path d="M1038.08 37.5902C1037.62 46.4401 1028.07 53.4268 1017.82 55.9886C1025.74 62.5095 1029.7 71.3593 1029.7 80.675C1029.7 107.457 1004.78 126.322 974.971 126.322C965.889 126.322 957.97 124.924 951.449 122.129C947.956 123.993 943.298 127.719 942.6 132.377C941.202 143.788 955.409 146.35 968.916 146.35C981.725 146.35 995.466 144.953 1003.62 144.953C1026.44 144.953 1036.69 156.131 1034.36 170.571C1031.33 193.394 1005.71 209.696 963.094 209.696C936.312 209.696 912.091 201.079 915.119 180.352C916.05 173.132 922.105 164.05 933.517 159.392C926.53 155.666 920.475 149.145 921.872 139.13C922.804 132.377 928.859 123.527 944.463 118.403C935.147 112.348 930.256 103.032 930.256 92.5524C930.256 68.0989 956.34 46.4401 986.849 46.4401H987.082C995.699 46.4401 998.26 47.3716 1003.38 47.3716C1008.74 47.3716 1015.73 42.7138 1022.02 34.3298C1024.58 31.5351 1026.91 29.2062 1030.4 29.2062C1034.36 29.2062 1038.32 32.4666 1038.08 37.5902ZM978.232 116.773C996.164 116.773 1008.04 100.005 1008.04 82.5381C1008.04 67.866 999.658 55.5228 984.054 55.5228C965.889 55.5228 952.381 71.5922 952.381 90.2235C952.381 105.361 961.697 116.773 978.232 116.773ZM956.806 164.283C947.49 164.283 936.777 169.406 935.147 179.421C933.284 192.695 947.723 199.915 969.848 199.915C992.904 199.915 1010.84 192.462 1012.7 178.023C1013.86 170.804 1011.07 161.954 992.205 163.118C983.123 163.584 971.711 164.283 956.806 164.283Z" fill="url(#paint0_linear_102_324)"/>
<path d="M1118.18 129.349C1122.6 125.39 1127.49 127.719 1124.23 133.541C1117.94 145.186 1098.15 162.652 1072.3 162.652C1048.31 162.652 1026.42 146.816 1026.42 114.91C1026.42 84.867 1052.27 46.2072 1094.66 46.2072C1113.05 46.2072 1128.19 55.5228 1128.19 72.7567C1128.19 101.868 1092.56 117.239 1050.41 123.294C1053.9 136.802 1065.31 146.816 1080.45 146.816C1096.29 146.816 1108.63 138.199 1118.18 129.349ZM1087.2 57.153C1066.94 57.153 1048.78 79.0447 1048.78 107.224C1048.78 110.252 1050.17 113.047 1056 112.115C1085.81 107.457 1107.23 94.8813 1107.23 76.25C1107.23 65.0713 1099.08 57.153 1087.2 57.153Z" fill="url(#paint1_linear_102_324)"/>
<path d="M1250.87 140.062C1252.27 140.062 1253.43 141.227 1253.2 143.323C1252.27 151.939 1242.95 161.954 1230.84 161.954C1218.27 161.954 1214.77 152.638 1215.7 139.13L1218.5 87.4288C1219.2 72.5238 1215.24 62.2766 1202.43 62.2766C1183.56 62.2766 1164 91.6208 1157.71 128.418L1153.29 153.803C1152.82 156.83 1151.43 158.228 1148.86 158.926L1136.99 161.954C1133.73 162.885 1131.63 161.022 1132.1 157.296L1143.74 76.7158C1145.6 63.9068 1135.82 66.2358 1135.82 60.6464C1135.82 57.3859 1137.92 55.7557 1148.86 50.865C1156.32 47.6045 1159.81 47.1387 1162.84 47.1387C1166.1 47.1387 1167.73 49.0019 1167.26 52.2623L1162.6 83.4697C1174.72 60.8793 1192.18 46.9058 1211.98 46.9058C1231.31 46.9058 1241.09 60.4135 1239.69 86.0314L1236.9 137.966C1236.66 142.857 1236.66 146.583 1240.62 146.583C1245.05 146.583 1248.08 140.062 1250.87 140.062Z" fill="url(#paint2_linear_102_324)"/>
<path d="M1286.98 28.7404C1280.7 28.2746 1276.04 23.6168 1276.5 17.0959C1276.97 8.7118 1287.45 -1.0696 1296.77 0.0948548C1303.05 0.56063 1307.48 6.3829 1307.25 12.2052C1306.55 20.3563 1296.07 29.4391 1286.98 28.7404ZM1278.6 161.954C1265.79 161.954 1261.13 152.638 1263.23 139.13L1272.55 76.7158C1274.41 64.3726 1264.63 65.77 1264.63 59.9477C1264.63 57.3859 1266.26 55.057 1277.67 50.865C1286.52 47.6045 1289.31 46.9058 1292.34 46.9058C1295.6 46.9058 1297.23 49.0019 1296.77 52.2623L1284.42 137.966C1283.72 142.857 1284.42 146.583 1288.38 146.583C1292.81 146.583 1295.83 140.062 1298.63 140.062C1300.03 140.062 1301.19 141.227 1300.96 143.323C1300.03 151.939 1290.71 161.954 1278.6 161.954Z" fill="url(#paint3_linear_102_324)"/>
<path d="M1425.61 140.062C1427.01 140.062 1428.17 141.227 1427.94 143.323C1427.01 151.939 1417.69 161.954 1405.58 161.954C1394.64 161.954 1386.72 155.2 1391.14 130.514C1379.27 149.611 1364.13 162.652 1345.5 162.652C1322.68 162.652 1311.96 147.282 1315.69 118.869L1321.51 75.5514C1323.37 62.9753 1313.59 66.2358 1313.59 60.6464C1313.59 57.3859 1315.46 55.5228 1326.63 50.865C1334.09 47.8374 1339.21 46.6729 1342.24 46.6729C1345.5 46.6729 1347.36 49.0019 1346.66 52.2623L1337.81 113.978C1335.95 127.486 1333.39 148.912 1351.79 148.912C1371.12 148.912 1392.31 118.403 1398.36 81.6065L1402.56 55.7557C1403.02 52.2623 1405.35 51.3308 1407.91 50.6321L1419.09 47.3716C1423.05 46.2072 1424.91 49.4676 1424.45 52.2623L1411.64 137.733C1410.71 142.857 1411.41 146.583 1415.37 146.583C1419.79 146.583 1422.59 140.062 1425.61 140.062Z" fill="url(#paint4_linear_102_324)"/>
<path d="M1473.86 162.652C1461.52 162.652 1438 161.255 1435.2 151.707C1433.34 145.186 1431.71 139.363 1430.31 130.048C1429.85 126.787 1431.01 124.458 1433.81 123.76C1436.14 123.061 1438.47 124.458 1440.79 128.185C1453.6 148.213 1466.88 152.172 1478.99 152.172C1490.87 152.172 1498.55 145.419 1499.48 138.432C1501.58 127.02 1490.63 120.266 1473.17 112.581C1454.3 104.663 1438.23 94.1826 1441.73 75.0856C1445.22 54.1254 1468.51 46.2072 1487.37 46.2072C1500.18 46.2072 1516.02 48.769 1519.51 57.6188C1521.37 62.0437 1522.54 65.0713 1523.47 69.0304C1524.87 75.0856 1524.17 76.9487 1521.14 78.1132C1517.88 79.2776 1515.32 76.0172 1507.87 68.7976C1500.41 61.3451 1491.8 56.4544 1481.32 56.4544C1470.6 56.4544 1462.22 62.7424 1461.06 69.962C1458.96 81.1407 1467.81 86.2643 1487.61 94.8813C1508.57 103.731 1523.47 114.444 1520.44 131.678C1517.18 149.145 1499.72 162.652 1473.86 162.652Z" fill="url(#paint5_linear_102_324)"/>
<defs>
<linearGradient id="paint0_linear_102_324" x1="1055.9" y1="30.7725" x2="1473.19" y2="180.526" gradientUnits="userSpaceOnUse">
<stop stop-color="#44A767"/>
<stop offset="1" stop-color="#00A4A3"/>
</linearGradient>
<linearGradient id="paint1_linear_102_324" x1="1055.9" y1="30.7725" x2="1473.19" y2="180.526" gradientUnits="userSpaceOnUse">
<stop stop-color="#44A767"/>
<stop offset="1" stop-color="#00A4A3"/>
</linearGradient>
<linearGradient id="paint2_linear_102_324" x1="1055.9" y1="30.7725" x2="1473.19" y2="180.526" gradientUnits="userSpaceOnUse">
<stop stop-color="#44A767"/>
<stop offset="1" stop-color="#00A4A3"/>
</linearGradient>
<linearGradient id="paint3_linear_102_324" x1="1055.9" y1="30.7725" x2="1473.19" y2="180.526" gradientUnits="userSpaceOnUse">
<stop stop-color="#44A767"/>
<stop offset="1" stop-color="#00A4A3"/>
</linearGradient>
<linearGradient id="paint4_linear_102_324" x1="1055.9" y1="30.7725" x2="1473.19" y2="180.526" gradientUnits="userSpaceOnUse">
<stop stop-color="#44A767"/>
<stop offset="1" stop-color="#00A4A3"/>
</linearGradient>
<linearGradient id="paint5_linear_102_324" x1="1055.9" y1="30.7725" x2="1473.19" y2="180.526" gradientUnits="userSpaceOnUse">
<stop stop-color="#44A767"/>
<stop offset="1" stop-color="#00A4A3"/>
</linearGradient>
</defs>
</svg>
