<svg width="802" height="798" viewBox="0 0 802 798" fill="none" xmlns="http://www.w3.org/2000/svg">
<g clip-path="url(#clip0_1468_1115)">
<path d="M800.6 361.604C800.523 360.91 800.446 360.217 800.369 359.561C797.362 330.693 791.273 302.712 782.447 275.963C781.753 273.843 781.02 271.762 780.288 269.642C755.852 199.457 712.531 138.097 656.336 91.731C653.869 89.6882 651.364 87.684 648.82 85.6798C643.771 81.71 638.607 77.8557 633.365 74.1171C622.881 66.6399 611.974 59.6638 600.758 53.2272C595.131 49.9896 589.465 46.9063 583.684 43.9385C569.231 36.5384 554.315 29.9862 538.936 24.359C526.641 19.8496 514.038 15.9182 501.203 12.6422C485.17 8.51812 468.712 5.35766 451.985 3.23783C445.278 2.3899 438.534 1.69614 431.712 1.19509C421.498 0.424241 411.207 0.0388184 400.801 0.0388184C393.863 0.0388184 386.964 0.23153 380.142 0.578411C376.712 0.771122 373.32 0.963834 369.89 1.23363C363.453 1.73468 357.017 2.3899 350.657 3.16074C346.957 3.62325 343.257 4.1243 339.595 4.6639C326.298 6.70664 313.194 9.36606 300.359 12.6807C288.643 15.687 277.157 19.2329 265.903 23.2413C258.618 25.8236 251.449 28.5987 244.396 31.605C238.383 34.1488 232.448 36.8467 226.589 39.6603C211.943 46.7135 197.798 54.6147 184.231 63.3253C178.797 66.7941 173.44 70.4171 168.198 74.1557C164.96 76.4682 161.761 78.8193 158.601 81.2089C61.7055 154.555 -0.925781 270.837 -0.925781 401.765C-0.925781 401.804 -0.925781 401.881 -0.925781 401.919C-0.925781 405.504 -0.887239 409.088 -0.771612 412.634C-0.771612 413.868 -0.694527 415.062 -0.617443 416.296C-0.540358 418.685 -0.463274 421.075 -0.309104 423.465C-0.23202 424.891 -0.116393 426.317 -0.0393083 427.743C0.114861 429.901 0.230488 432.06 0.423199 434.218C0.538826 435.721 0.692995 437.224 0.808622 438.727C1.00133 440.809 1.19405 442.89 1.4253 444.933C1.57947 446.436 1.77218 447.977 1.92635 449.481C2.1576 451.523 2.4274 453.566 2.6972 455.609C2.88991 457.112 3.12116 458.615 3.31387 460.118C3.62221 462.161 3.93055 464.204 4.23889 466.247C4.47014 467.711 4.7014 469.176 4.97119 470.64C5.31807 472.722 5.7035 474.764 6.08892 476.807C6.35871 478.195 6.62851 479.621 6.89831 481.008C7.32227 483.167 7.78478 485.286 8.24729 487.406C8.51708 488.678 8.78688 489.989 9.09522 491.26C9.63481 493.612 10.2129 495.924 10.7911 498.275C11.0609 499.316 11.2921 500.395 11.5619 501.436C12.3713 504.635 13.2192 507.795 14.1443 510.994C14.1828 511.187 14.2213 511.341 14.2984 511.534C15.262 514.925 16.2641 518.317 17.3047 521.67C17.4974 522.326 17.7287 523.019 17.9599 523.675C18.8079 526.295 19.6558 528.955 20.5423 531.537C20.8892 532.578 21.2746 533.58 21.6215 534.621C22.3923 536.856 23.2017 539.13 24.0496 541.366C24.4736 542.483 24.8976 543.601 25.3215 544.757C26.1309 546.877 26.9403 548.958 27.7882 551.078C28.2507 552.234 28.7518 553.391 29.2143 554.547C30.0622 556.59 30.9102 558.632 31.7966 560.675C32.2977 561.831 32.7987 562.949 33.2998 564.105C34.1863 566.148 35.1113 568.191 36.0748 570.234C36.5759 571.351 37.0769 572.431 37.6165 573.51C38.5801 575.591 39.6207 577.634 40.6228 579.715C41.1239 580.717 41.6249 581.758 42.126 582.76C43.2052 584.918 44.3614 587.077 45.4792 589.235C45.9417 590.122 46.4042 590.969 46.8667 591.856C48.1771 594.284 49.4875 596.674 50.8365 599.063C51.1834 599.641 51.4917 600.22 51.8001 600.798C57.0033 609.855 62.5148 618.72 68.3733 627.315C68.6431 627.7 68.9129 628.124 69.1827 628.51C70.84 630.938 72.5359 633.327 74.2317 635.717C74.6942 636.334 75.1567 636.989 75.6192 637.606C77.1609 639.764 78.7412 641.884 80.3599 644.004C80.8995 644.736 81.4391 645.43 81.9787 646.123C83.5204 648.128 85.1006 650.132 86.6809 652.136C87.259 652.868 87.8757 653.601 88.4538 654.333C90.0341 656.299 91.6528 658.226 93.2716 660.153C93.8497 660.847 94.4664 661.579 95.0446 662.273C96.7019 664.238 98.3977 666.165 100.094 668.093C100.672 668.748 101.211 669.364 101.789 670.02C103.601 672.024 105.451 674.028 107.301 675.994C107.764 676.495 108.265 677.034 108.727 677.535C110.808 679.732 112.928 681.929 115.048 684.049C115.318 684.319 115.549 684.589 115.819 684.859C123.219 692.297 130.889 699.466 138.867 706.327L59.9711 354.551C52.8022 322.561 58.6606 288.99 76.3901 261.433C83.9829 249.6 93.4643 236.958 105.104 224.818L119.789 301.825L107.224 222.659C119.403 210.287 133.857 198.532 150.815 188.858L182.574 388.969L156.751 185.62C169.932 178.759 184.578 173.171 200.766 169.471L239.424 473.955L210.248 167.544C220.5 165.732 231.369 164.692 242.854 164.537C246.323 164.499 249.753 164.537 253.184 164.614L290.57 557.014L265.71 165.231C279.662 166.272 293.306 168.353 306.565 171.321L336.204 638.299L321.519 175.059C334.701 178.682 347.42 183.115 359.676 188.087L376.519 718.159V195.371C388.814 201.037 400.531 207.204 411.592 213.563L403.884 774.893L404.501 775.973L429.746 224.548C441.27 231.832 451.908 239.155 461.505 246.17L438.148 792.16H439.112L480.545 260.546C492.493 269.873 502.051 277.89 508.912 283.363L468.558 797.826C469.444 797.672 470.369 797.556 471.256 797.364L528.761 297.662C535.969 302.673 544.525 308.454 554.392 314.428L503.593 790.233C506.946 789.347 510.261 788.422 513.575 787.458L575.551 326.222C582.836 329.961 590.622 333.584 598.87 336.976L539.399 778.979C543.831 777.36 548.186 775.626 552.542 773.853L621.879 345.262C628.701 347.382 635.755 349.271 643.078 350.889L576.361 763.215C582.027 760.44 587.654 757.588 593.165 754.543L668.593 355.091C671.907 355.476 675.26 355.784 678.652 356.016C681.89 356.247 684.973 356.285 687.902 356.208L615.134 741.631C623.806 736.158 632.247 730.377 640.457 724.249L722.166 345.725C734.616 338.093 741.36 327.379 744.791 320.094L658.071 710.373C666.357 703.474 674.335 696.228 682.044 688.713C697.422 673.643 711.567 657.378 724.402 640.034C724.479 639.957 724.517 639.841 724.595 639.764C726.599 637.066 728.564 634.33 730.492 631.554C730.723 631.246 730.954 630.899 731.147 630.591C732.92 628.047 734.654 625.465 736.389 622.844C736.658 622.42 736.928 621.996 737.236 621.572C738.894 619.028 740.551 616.446 742.17 613.864C742.44 613.44 742.709 613.016 742.979 612.592C744.637 609.894 746.255 607.196 747.874 604.459C748.067 604.151 748.26 603.843 748.414 603.534C755.544 591.278 762.058 578.559 767.916 565.532C768.186 564.915 768.456 564.298 768.725 563.681C769.843 561.099 770.961 558.517 772.04 555.935C772.387 555.048 772.772 554.2 773.119 553.314C774.083 550.963 775.008 548.573 775.933 546.222C776.318 545.22 776.704 544.218 777.089 543.216C777.937 540.903 778.785 538.629 779.633 536.278C780.018 535.237 780.365 534.197 780.751 533.117C781.56 530.805 782.331 528.454 783.102 526.103C783.449 525.062 783.796 524.021 784.104 522.981C784.875 520.514 785.646 518.047 786.378 515.542C786.648 514.617 786.917 513.731 787.187 512.806C788.035 509.799 788.883 506.832 789.654 503.787C789.77 503.363 789.885 502.977 790.001 502.553C790.887 499.046 791.774 495.539 792.583 491.993C792.699 491.569 792.776 491.145 792.853 490.682C793.547 487.676 794.202 484.631 794.819 481.586C795.05 480.469 795.243 479.351 795.474 478.233C795.936 475.882 796.399 473.492 796.784 471.103C797.016 469.754 797.247 468.443 797.44 467.094C797.786 464.898 798.133 462.701 798.48 460.504C798.673 459.078 798.904 457.652 799.097 456.226C799.405 454.106 799.675 451.947 799.906 449.789C800.099 448.324 800.253 446.86 800.407 445.357C800.639 443.198 800.831 441.078 801.062 438.92C801.217 437.455 801.332 435.991 801.448 434.488C801.641 432.291 801.795 430.055 801.91 427.82C801.988 426.394 802.103 424.968 802.18 423.542C802.296 421.113 802.412 418.685 802.489 416.257C802.527 415.024 802.604 413.829 802.643 412.596C802.758 408.973 802.797 405.35 802.797 401.727C802.797 401.688 802.797 401.65 802.797 401.573C802.797 388.006 802.103 374.593 800.793 361.411L800.6 361.604ZM436.915 197.375C442.619 195.949 448.4 194.639 454.259 193.406L456.109 210.326C450.058 206.047 443.66 201.731 436.915 197.375ZM476.69 225.473L473.376 189.783C480.236 188.626 487.174 187.586 494.189 186.738L499.43 243.511C492.994 238.307 485.401 232.141 476.652 225.473H476.69ZM518.046 258.195C518.046 258.195 517.661 257.925 517.507 257.81L511.957 184.888C519.511 184.271 527.142 183.886 534.812 183.731L541.711 274.537C531.999 268.139 524.059 262.358 518.085 258.195H518.046ZM556.974 284.173L550.961 183.731C559.248 183.924 567.535 184.464 575.821 185.312L582.566 298.048C573.277 293.538 564.76 288.798 556.974 284.173ZM595.401 303.906L590.352 187.123C599.872 188.549 608.775 190.245 617.139 192.134L622.419 313.927C612.899 310.96 603.919 307.568 595.401 303.945V303.906ZM633.057 316.934L629.819 195.217C640.303 198.031 649.823 201.153 658.495 204.544L661.655 322.715C651.75 321.327 642.191 319.362 633.095 316.972L633.057 316.934ZM677.997 324.449C675.415 324.257 672.871 324.025 670.327 323.794L669.171 209.054C681.042 214.373 691.101 220.154 699.581 226.012L700.583 323.1C694.031 324.488 686.553 325.066 677.997 324.488V324.449ZM739.819 294.232C734.77 303.328 725.096 315.315 707.559 321.173L708.137 232.295C725.789 246.363 735.155 260.392 739.973 270.028L739.819 294.232Z" fill="#ACCF77"/>
</g>
<defs>
<clipPath id="clip0_1468_1115">
<rect width="801.68" height="797.826" fill="white"/>
</clipPath>
</defs>
</svg>
