<svg width="1642" height="213" viewBox="0 0 1642 213" fill="none" xmlns="http://www.w3.org/2000/svg">
<path d="M260.05 2.78027H209.15V133.06C209.15 175.26 243.36 209.46 285.55 209.46H372.64V167.51H260.05V2.78027Z" fill="#1E3D35"/>
<path d="M453.111 21.1903L383.141 209.46H430.651L447.311 165.04H546.641L563.301 209.46H613.581L536.151 2.78027H479.591C467.781 2.78027 457.221 10.1203 453.111 21.1903ZM462.421 124.32L488.181 54.8003C489.941 50.0503 494.471 46.8903 499.541 46.8903H502.521L531.521 124.32H462.421Z" fill="#1E3D35"/>
<path d="M788.07 141.9H781.28L694.91 2.78027H627.66V204.82C627.66 207.38 629.74 209.46 632.3 209.46H674.24V70.3402H681.34L767.71 209.46H834.96V11.5103C834.96 6.69025 831.05 2.78027 826.23 2.78027H788.07V141.9Z" fill="#1E3D35"/>
<path d="M859.34 44.7302H936.46V196.09C936.46 203.47 942.45 209.46 949.83 209.46H987.36V44.7302H1047.34L1064.48 2.78027H859.34V44.7302Z" fill="#1E3D35"/>
<path d="M1197.19 0H1186.86C1111.28 0 1051.13 36.4001 1051.13 101.18V111.05C1051.13 176.45 1111.28 212.23 1186.86 212.23H1197.19C1271.22 212.23 1330.14 176.45 1330.14 111.05V101.18C1330.14 36.4001 1271.22 0 1197.19 0ZM1274.62 111.05C1274.62 146.53 1243.46 165.65 1194.72 165.65H1186.86C1138.12 165.65 1106.96 146.52 1106.96 111.05V101.18C1106.96 66.0101 1138.12 46.58 1186.86 46.58H1194.72C1243.46 46.58 1274.62 66.0101 1274.62 101.18V111.05Z" fill="#1E3D35"/>
<path d="M1515.14 8.19006V141.91H1508.35L1421.97 2.79004H1354.72V205.69C1354.72 207.78 1356.41 209.47 1358.5 209.47H1401.3V70.35H1408.4L1494.77 209.47H1562.02V2.79004H1520.54C1517.55 2.79004 1515.13 5.20995 1515.13 8.19995L1515.14 8.19006Z" fill="#1E3D35"/>
<path d="M1623.98 20.7191C1623.98 18.2091 1622.33 16.6592 1619.59 16.6592H1612.63V24.7792H1619.59C1622.33 24.7792 1623.98 23.2591 1623.98 20.7191Z" fill="#1E3D35"/>
<path d="M1617.86 1.60938C1604.73 1.60938 1594.09 12.2494 1594.09 25.3794C1594.09 38.5094 1604.73 49.1494 1617.86 49.1494C1630.99 49.1494 1641.63 38.5094 1641.63 25.3794C1641.63 12.2494 1630.99 1.60938 1617.86 1.60938ZM1624.05 36.1993L1617.35 28.3094H1612.66V36.1993H1608.8V13.0894H1619.63C1624.58 13.0894 1627.82 16.1294 1627.82 20.7094C1627.82 24.5394 1625.54 27.2795 1621.85 28.0695L1628.88 36.1895H1624.06L1624.05 36.1993Z" fill="#1E3D35"/>
<path d="M113.52 2.7793H0V207.849C0 208.739 0.720046 209.459 1.61005 209.459H50.9V141.589H113.52C168.74 141.589 190.95 117.839 190.95 77.4293V66.6293C190.95 26.5293 168.74 2.7793 113.52 2.7793ZM139.43 76.1992C139.43 93.4792 129.25 99.6493 109.2 99.6493H50.9V44.7393H109.2C129.25 44.7393 139.43 51.2193 139.43 67.8793V76.2092V76.1992Z" fill="#1E3D35"/>
</svg>
