<svg width="1550" height="1000" viewBox="0 0 1550 1000" fill="none" xmlns="http://www.w3.org/2000/svg">
<path d="M245.375 797.658H197.348V920.585C197.348 960.404 229.627 992.673 269.436 992.673H351.61V953.091H245.375V797.658Z" fill="white"/>
<path d="M427.54 815.029L361.519 992.673H406.348L422.067 950.76H515.791L531.511 992.673H578.953L505.893 797.658H452.526C441.382 797.658 431.418 804.584 427.54 815.029ZM436.325 912.339L460.631 846.742C462.291 842.26 466.566 839.279 471.35 839.279H474.162L501.525 912.339H436.325Z" fill="white"/>
<path d="M743.595 928.926H737.188L655.693 797.658H592.239V988.295C592.239 990.711 594.201 992.673 596.617 992.673H636.19V861.405H642.889L724.385 992.673H787.839V805.895C787.839 801.348 784.15 797.658 779.602 797.658H743.595V928.926Z" fill="white"/>
<path d="M810.834 837.241H883.602V980.058C883.602 987.021 889.254 992.673 896.217 992.673H931.629V837.241H988.223L1004.4 797.658H810.834V837.241Z" fill="white"/>
<path d="M1129.63 795.034H1119.88C1048.56 795.034 991.81 829.38 991.81 890.504V899.817C991.81 961.526 1048.56 995.286 1119.88 995.286H1129.63C1199.48 995.286 1255.07 961.526 1255.07 899.817V890.504C1255.07 829.38 1199.48 795.034 1129.63 795.034ZM1202.69 899.817C1202.69 933.294 1173.28 951.335 1127.3 951.335H1119.88C1073.89 951.335 1044.49 933.285 1044.49 899.817V890.504C1044.49 857.319 1073.89 838.985 1119.88 838.985H1127.3C1173.28 838.985 1202.69 857.319 1202.69 890.504V899.817Z" fill="white"/>
<path d="M1429.62 802.762V928.935H1423.21L1341.71 797.667H1278.25V989.115C1278.25 991.087 1279.85 992.682 1281.82 992.682H1322.2V861.414H1328.9L1410.4 992.682H1473.85V797.667H1434.71C1431.89 797.667 1429.61 799.95 1429.61 802.771L1429.62 802.762Z" fill="white"/>
<path d="M107.113 797.658H0V991.154C0 991.994 0.679465 992.674 1.51923 992.674H48.0274V928.634H107.113C159.217 928.634 180.173 906.225 180.173 868.095V857.905C180.173 820.068 159.217 797.658 107.113 797.658ZM131.561 866.935C131.561 883.239 121.955 889.061 103.037 889.061H48.0274V837.25H103.037C121.955 837.25 131.561 843.365 131.561 859.084V866.944V866.935Z" fill="white"/>
<path d="M1532.54 814.586C1532.54 812.217 1530.98 810.755 1528.4 810.755H1521.83V818.417H1528.4C1530.98 818.417 1532.54 816.982 1532.54 814.586Z" fill="white"/>
<path d="M1526.76 796.555C1514.37 796.555 1504.34 806.594 1504.34 818.983C1504.34 831.372 1514.37 841.412 1526.76 841.412C1539.15 841.412 1549.19 831.372 1549.19 818.983C1549.19 806.594 1539.15 796.555 1526.76 796.555ZM1532.6 829.193L1526.28 821.748H1521.86V829.193H1518.22V807.387H1528.43C1533.1 807.387 1536.16 810.255 1536.16 814.577C1536.16 818.191 1534.01 820.776 1530.53 821.522L1537.16 829.183H1532.61L1532.6 829.193Z" fill="white"/>
<path d="M1004.07 0.0374151H474.455C447.541 0.0374151 425.73 21.9288 425.73 48.9411V578.185C425.73 605.197 447.541 627.088 474.455 627.088H540.449L474.008 329.53C468.335 304.137 472.965 277.511 486.981 255.62C492.989 246.238 500.487 236.195 509.674 226.564L521.269 287.666L511.338 224.857C520.971 215.027 532.38 205.707 545.799 198.044L570.913 356.841L550.492 195.478C560.92 190.02 572.489 185.585 585.288 182.657L615.852 424.272L592.787 181.124C600.905 179.691 609.496 178.844 618.571 178.719C621.314 178.682 624.033 178.72 626.752 178.794L656.298 490.183L636.633 179.293C647.67 180.115 658.458 181.785 668.935 184.127L692.373 554.686L680.741 187.08C691.156 189.958 701.237 193.459 710.92 197.396L724.228 618.018V203.178C733.96 207.675 743.221 212.56 751.961 217.606V627.076H753.649L766.324 226.303C775.436 232.084 783.828 237.902 791.438 243.472L779.309 627.076H782.947L806.496 254.885C815.931 262.286 823.504 268.64 828.941 272.988L806.546 627.076H812.108L844.62 284.376C850.306 288.351 857.096 292.949 864.905 297.671L833.646 627.063H841.119L881.614 307.028C887.375 309.993 893.519 312.884 900.037 315.575L860.622 627.063H870.019L918.236 322.166C923.624 323.848 929.21 325.368 934.995 326.639L887.486 627.063H898.795L955.181 329.978C957.8 330.277 960.444 330.539 963.126 330.726C965.683 330.9 968.104 330.938 970.437 330.863L914.226 627.063H930.129L997.55 322.552C1007.39 316.497 1012.75 308 1015.43 302.193L943.499 627.051H1004.09C1031.01 627.051 1052.82 605.16 1052.82 578.147V48.9037C1052.82 21.8914 1031.01 0 1004.09 0L1004.07 0.0374151ZM772.06 204.81C776.566 203.688 781.134 202.642 785.765 201.658L787.217 215.076C782.425 211.687 777.373 208.249 772.047 204.81H772.06ZM803.517 227.087L800.898 198.755C806.323 197.82 811.822 197.023 817.359 196.337L821.517 241.391C816.44 237.242 810.407 232.37 803.517 227.087ZM836.203 253.078C836.067 252.978 835.905 252.866 835.756 252.767L831.362 194.904C837.346 194.418 843.379 194.119 849.412 193.995L854.887 266.048C847.227 260.965 840.946 256.392 836.191 253.078H836.203ZM866.966 273.686L862.223 193.995C868.778 194.157 875.333 194.58 881.863 195.253L887.188 284.713C879.839 281.124 873.098 277.374 866.966 273.686ZM897.343 289.36L893.346 196.674C900.856 197.808 907.908 199.153 914.537 200.648L918.708 297.284C911.185 294.942 904.059 292.251 897.355 289.36H897.343ZM927.137 299.702L924.567 203.115C932.847 205.346 940.37 207.825 947.223 210.504L949.718 304.262C941.872 303.165 934.337 301.595 927.137 299.689V299.702ZM962.679 305.657C960.63 305.52 958.619 305.333 956.608 305.134L955.69 214.067C965.087 218.291 973.032 222.864 979.748 227.524L980.53 304.573C975.341 305.682 969.432 306.131 962.691 305.67L962.679 305.657ZM1011.55 281.685C1007.56 288.924 999.896 298.418 986.042 303.053L986.502 232.532C1000.46 243.696 1007.87 254.847 1011.69 262.473L1011.57 281.673L1011.55 281.685Z" fill="white"/>
<path d="M224.016 1134.42V1229.9C224.016 1253.51 235.822 1248.12 235.822 1255.79C235.822 1258.89 232.922 1259.93 225.673 1259.93H202.684C195.849 1259.93 192.535 1258.89 192.535 1255.79C192.535 1248.12 204.755 1253.51 204.755 1229.9V1134.63C204.755 1127.38 202.063 1124.27 193.778 1124.27C177.623 1124.27 174.517 1130.48 167.682 1143.12C164.575 1149.12 162.711 1151.4 160.019 1151.4C156.084 1151.4 155.67 1148.09 155.877 1144.36C156.084 1134.42 156.912 1128 158.569 1122.2C159.812 1117.23 162.09 1114.95 175.345 1114.95L253.426 1114.74C266.681 1114.74 268.96 1117.02 270.202 1121.99C271.859 1127.79 272.688 1134.21 272.895 1144.15C273.102 1147.88 272.688 1151.2 268.753 1151.2C266.06 1151.2 264.196 1149.12 261.089 1143.12C254.255 1130.28 251.148 1124.06 234.993 1124.06C226.916 1124.06 224.016 1127.17 224.016 1134.42Z" fill="white"/>
</svg>
