<svg width="1550" height="1262" viewBox="0 0 1550 1262" fill="none" xmlns="http://www.w3.org/2000/svg">
<path d="M245.375 797.658H197.348V920.585C197.348 960.404 229.627 992.673 269.436 992.673H351.61V953.091H245.375V797.658Z" fill="white"/>
<path d="M427.54 815.029L361.519 992.673H406.348L422.067 950.76H515.791L531.511 992.673H578.953L505.893 797.658H452.526C441.382 797.658 431.418 804.584 427.54 815.029ZM436.325 912.339L460.631 846.742C462.291 842.26 466.566 839.279 471.35 839.279H474.162L501.525 912.339H436.325Z" fill="white"/>
<path d="M743.595 928.926H737.188L655.693 797.658H592.239V988.295C592.239 990.711 594.201 992.673 596.617 992.673H636.19V861.405H642.889L724.385 992.673H787.839V805.895C787.839 801.348 784.15 797.658 779.602 797.658H743.595V928.926Z" fill="white"/>
<path d="M810.834 837.241H883.602V980.058C883.602 987.021 889.254 992.673 896.217 992.673H931.629V837.241H988.223L1004.4 797.658H810.834V837.241Z" fill="white"/>
<path d="M1129.63 795.034H1119.88C1048.56 795.034 991.81 829.38 991.81 890.504V899.817C991.81 961.526 1048.56 995.286 1119.88 995.286H1129.63C1199.48 995.286 1255.07 961.526 1255.07 899.817V890.504C1255.07 829.38 1199.48 795.034 1129.63 795.034ZM1202.69 899.817C1202.69 933.294 1173.28 951.335 1127.3 951.335H1119.88C1073.89 951.335 1044.49 933.285 1044.49 899.817V890.504C1044.49 857.319 1073.89 838.985 1119.88 838.985H1127.3C1173.28 838.985 1202.69 857.319 1202.69 890.504V899.817Z" fill="white"/>
<path d="M1429.62 802.762V928.935H1423.21L1341.71 797.667H1278.25V989.115C1278.25 991.087 1279.85 992.682 1281.82 992.682H1322.2V861.414H1328.9L1410.4 992.682H1473.85V797.667H1434.71C1431.89 797.667 1429.61 799.95 1429.61 802.771L1429.62 802.762Z" fill="white"/>
<path d="M107.113 797.658H0V991.154C0 991.994 0.679465 992.674 1.51923 992.674H48.0274V928.634H107.113C159.217 928.634 180.173 906.225 180.173 868.095V857.905C180.173 820.068 159.217 797.658 107.113 797.658ZM131.561 866.935C131.561 883.239 121.955 889.061 103.037 889.061H48.0274V837.25H103.037C121.955 837.25 131.561 843.365 131.561 859.084V866.944V866.935Z" fill="white"/>
<path d="M1532.54 814.586C1532.54 812.217 1530.98 810.755 1528.4 810.755H1521.83V818.417H1528.4C1530.98 818.417 1532.54 816.982 1532.54 814.586Z" fill="white"/>
<path d="M1526.76 796.555C1514.37 796.555 1504.34 806.594 1504.34 818.983C1504.34 831.372 1514.37 841.412 1526.76 841.412C1539.15 841.412 1549.19 831.372 1549.19 818.983C1549.19 806.594 1539.15 796.555 1526.76 796.555ZM1532.6 829.193L1526.28 821.748H1521.86V829.193H1518.22V807.387H1528.43C1533.1 807.387 1536.16 810.255 1536.16 814.577C1536.16 818.191 1534.01 820.776 1530.53 821.522L1537.16 829.183H1532.61L1532.6 829.193Z" fill="white"/>
<path d="M1004.07 0.0374151H474.455C447.541 0.0374151 425.73 21.9288 425.73 48.9411V578.185C425.73 605.197 447.541 627.088 474.455 627.088H540.449L474.008 329.53C468.335 304.137 472.965 277.511 486.981 255.62C492.989 246.238 500.487 236.195 509.674 226.564L521.269 287.666L511.338 224.857C520.971 215.027 532.38 205.707 545.799 198.044L570.913 356.841L550.492 195.478C560.92 190.02 572.489 185.585 585.288 182.657L615.852 424.272L592.787 181.124C600.905 179.691 609.496 178.844 618.571 178.719C621.314 178.682 624.033 178.72 626.752 178.794L656.298 490.183L636.633 179.293C647.67 180.115 658.458 181.785 668.935 184.127L692.373 554.686L680.741 187.08C691.156 189.958 701.237 193.459 710.92 197.396L724.228 618.018V203.178C733.96 207.675 743.221 212.56 751.961 217.606V627.076H753.649L766.324 226.303C775.436 232.084 783.828 237.902 791.438 243.472L779.309 627.076H782.947L806.496 254.885C815.931 262.286 823.504 268.64 828.941 272.988L806.546 627.076H812.108L844.62 284.376C850.306 288.351 857.096 292.949 864.905 297.671L833.646 627.063H841.119L881.614 307.028C887.375 309.993 893.519 312.884 900.037 315.575L860.622 627.063H870.019L918.236 322.166C923.624 323.848 929.21 325.368 934.995 326.639L887.486 627.063H898.795L955.181 329.978C957.8 330.277 960.444 330.539 963.126 330.726C965.683 330.9 968.104 330.938 970.437 330.863L914.226 627.063H930.129L997.55 322.552C1007.39 316.497 1012.75 308 1015.43 302.193L943.499 627.051H1004.09C1031.01 627.051 1052.82 605.16 1052.82 578.147V48.9037C1052.82 21.8914 1031.01 0 1004.09 0L1004.07 0.0374151ZM772.06 204.81C776.566 203.688 781.134 202.642 785.765 201.658L787.217 215.076C782.425 211.687 777.373 208.249 772.047 204.81H772.06ZM803.517 227.087L800.898 198.755C806.323 197.82 811.822 197.023 817.359 196.337L821.517 241.391C816.44 237.242 810.407 232.37 803.517 227.087ZM836.203 253.078C836.067 252.978 835.905 252.866 835.756 252.767L831.362 194.904C837.346 194.418 843.379 194.119 849.412 193.995L854.887 266.048C847.227 260.965 840.946 256.392 836.191 253.078H836.203ZM866.966 273.686L862.223 193.995C868.778 194.157 875.333 194.58 881.863 195.253L887.188 284.713C879.839 281.124 873.098 277.374 866.966 273.686ZM897.343 289.36L893.346 196.674C900.856 197.808 907.908 199.153 914.537 200.648L918.708 297.284C911.185 294.942 904.059 292.251 897.355 289.36H897.343ZM927.137 299.702L924.567 203.115C932.847 205.346 940.37 207.825 947.223 210.504L949.718 304.262C941.872 303.165 934.337 301.595 927.137 299.689V299.702ZM962.679 305.657C960.63 305.52 958.619 305.333 956.608 305.134L955.69 214.067C965.087 218.291 973.032 222.864 979.748 227.524L980.53 304.573C975.341 305.682 969.432 306.131 962.691 305.67L962.679 305.657ZM1011.55 281.685C1007.56 288.924 999.896 298.418 986.042 303.053L986.502 232.532C1000.46 243.696 1007.87 254.847 1011.69 262.473L1011.57 281.673L1011.55 281.685Z" fill="white"/>
<path d="M224.016 1134.42V1229.9C224.016 1253.51 235.822 1248.12 235.822 1255.79C235.822 1258.89 232.922 1259.93 225.673 1259.93H202.684C195.849 1259.93 192.535 1258.89 192.535 1255.79C192.535 1248.12 204.755 1253.51 204.755 1229.9V1134.63C204.755 1127.38 202.063 1124.27 193.778 1124.27C177.623 1124.27 174.517 1130.48 167.682 1143.12C164.575 1149.12 162.711 1151.4 160.019 1151.4C156.084 1151.4 155.67 1148.09 155.877 1144.36C156.084 1134.42 156.912 1128 158.569 1122.2C159.812 1117.23 162.09 1114.95 175.345 1114.95L253.426 1114.74C266.681 1114.74 268.96 1117.02 270.202 1121.99C271.859 1127.79 272.688 1134.21 272.895 1144.15C273.102 1147.88 272.688 1151.2 268.753 1151.2C266.06 1151.2 264.196 1149.12 261.089 1143.12C254.255 1130.28 251.148 1124.06 234.993 1124.06C226.916 1124.06 224.016 1127.17 224.016 1134.42Z" fill="white"/>
<path d="M369.55 1201.94L375.97 1238.39C378.455 1251.23 386.947 1249.78 386.947 1255.99C386.947 1259.1 384.047 1259.93 378.87 1259.93H356.916C351.945 1259.93 348.631 1259.1 348.631 1255.79C348.631 1249.78 359.401 1251.23 357.123 1237.77L351.117 1203.39C348.424 1187.03 344.903 1170.87 326.056 1171.08C312.594 1171.29 298.303 1183.3 298.303 1208.57V1232.59C298.303 1252.47 307.83 1248.74 307.83 1255.99C307.83 1259.1 304.931 1259.93 299.753 1259.93H277.592C272.828 1259.93 269.308 1259.1 269.308 1255.79C269.308 1248.74 279.456 1252.47 279.456 1232.59L279.249 1146.02C279.249 1127.79 269.1 1131.52 269.1 1125.1C269.1 1123.03 270.136 1121.99 275.107 1119.71C284.22 1115.36 291.261 1113.09 294.368 1112.88C297.061 1112.67 298.51 1113.71 298.51 1117.44L298.303 1146.02V1177.91C306.795 1164.86 320.05 1158.44 332.684 1158.44C353.395 1158.44 364.165 1170.04 369.55 1201.94Z" fill="white"/>
<path d="M399.571 1142.91C393.979 1142.5 389.837 1138.35 390.251 1132.56C390.665 1125.1 399.985 1116.4 408.27 1117.44C413.862 1117.85 417.797 1123.03 417.59 1128.21C416.969 1135.45 407.648 1143.53 399.571 1142.91ZM397.707 1232.59V1191.58C397.707 1173.56 387.559 1177.08 387.559 1170.66C387.559 1168.59 388.387 1167.56 393.358 1165.28C402.678 1160.93 409.72 1158.65 412.619 1158.44C415.312 1158.24 416.761 1159.27 416.761 1163L416.554 1191.58V1232.59C416.554 1252.47 426.289 1248.74 426.289 1255.99C426.289 1259.1 423.182 1259.93 418.211 1259.93H396.05C391.08 1259.93 387.766 1259.1 387.766 1255.79C387.766 1248.74 397.707 1252.47 397.707 1232.59Z" fill="white"/>
<path d="M534.428 1201.94L540.849 1238.39C543.334 1251.23 551.826 1249.78 551.826 1255.99C551.826 1259.1 548.926 1259.93 543.748 1259.93H521.795C516.824 1259.93 513.51 1259.1 513.51 1255.79C513.51 1249.78 524.28 1251.23 522.002 1237.77L515.995 1203.39C513.303 1187.03 509.782 1170.87 490.935 1171.08C477.473 1171.29 463.182 1183.3 463.182 1208.57V1232.59C463.182 1252.47 472.709 1248.74 472.709 1255.99C472.709 1259.1 469.809 1259.93 464.632 1259.93H442.471C437.707 1259.93 434.186 1259.1 434.186 1255.79C434.186 1248.74 444.335 1252.47 444.335 1232.59V1190.96C444.335 1183.92 443.506 1178.74 437.914 1175.43C435.636 1173.98 434.186 1172.73 434.186 1170.66C434.186 1168.39 435.222 1167.14 440.193 1164.86C447.234 1161.55 454.276 1159.27 457.176 1159.07C459.868 1159.07 461.318 1160.1 461.318 1163.62L461.111 1181.23C469.395 1165.9 483.893 1158.44 497.562 1158.44C518.274 1158.44 529.043 1170.04 534.428 1201.94Z" fill="white"/>
<path d="M631.544 1178.12L622.431 1187.85L645.007 1239.01C649.977 1250.61 658.883 1250.61 658.883 1256.2C658.883 1259.1 656.605 1259.93 649.977 1259.93H628.645C622.639 1259.93 620.36 1259.1 620.36 1256.2C620.36 1250.4 630.302 1250.19 626.574 1242.12L608.969 1202.14L580.388 1232.8C580.388 1252.47 589.915 1248.74 589.915 1255.99C589.915 1259.1 587.015 1259.93 581.838 1259.93H559.677C554.913 1259.93 551.392 1259.1 551.392 1255.79C551.392 1248.74 561.541 1252.47 561.541 1232.59L561.333 1146.02C561.333 1127.79 551.185 1131.52 551.185 1125.1C551.185 1123.03 552.221 1121.99 557.191 1119.71C566.304 1115.36 573.346 1113.09 576.453 1112.88C579.145 1112.67 580.595 1113.71 580.595 1117.44L580.388 1146.02V1219.13L620.567 1176.26C626.574 1169.84 616.218 1168.39 616.218 1164.24C616.218 1162.17 617.461 1160.52 622.224 1160.52H642.314C647.078 1160.52 649.149 1161.76 649.149 1164.04C649.149 1169.01 642.728 1166.11 631.544 1178.12Z" fill="white"/>
<path d="M791.433 1201.94L797.853 1238.39C800.339 1251.23 808.83 1249.78 808.83 1255.99C808.83 1259.1 805.931 1259.93 800.753 1259.93H778.799C773.828 1259.93 770.515 1259.1 770.515 1255.79C770.515 1249.78 781.284 1251.23 779.006 1237.77L773 1203.39C770.308 1187.03 766.787 1170.87 747.94 1171.08C734.477 1171.29 720.187 1183.3 720.187 1208.57V1232.59C720.187 1252.47 729.714 1248.74 729.714 1255.99C729.714 1259.1 726.814 1259.93 721.636 1259.93H699.475C694.712 1259.93 691.191 1259.1 691.191 1255.79C691.191 1248.74 701.339 1252.47 701.339 1232.59V1190.96C701.339 1183.92 700.511 1178.74 694.919 1175.43C692.641 1173.98 691.191 1172.73 691.191 1170.66C691.191 1168.39 692.226 1167.14 697.197 1164.86C704.239 1161.55 711.281 1159.27 714.18 1159.07C716.873 1159.07 718.323 1160.1 718.323 1163.62L718.115 1181.23C726.4 1165.9 740.898 1158.44 754.567 1158.44C775.278 1158.44 786.048 1170.04 791.433 1201.94Z" fill="white"/>
<path d="M893.139 1233.21C896.66 1229.48 901.217 1231.76 899.146 1236.94C894.796 1247.09 879.056 1262 852.96 1262C823.964 1262 804.496 1241.08 804.496 1213.74C804.496 1182.47 826.449 1158.44 857.102 1158.44C879.677 1158.44 894.796 1171.49 898.524 1189.3C899.353 1193.03 898.524 1195.93 893.761 1197.8C871.393 1206.49 849.439 1213.95 825.414 1221.82C829.349 1233.83 841.154 1247.92 860.416 1247.92C874.292 1247.92 885.683 1241.08 893.139 1233.21ZM850.681 1168.18C832.041 1168.39 822.721 1185.37 822.721 1200.49C822.721 1205.67 822.928 1209.6 823.964 1213.12C840.947 1207.53 857.102 1202.14 872.221 1196.35C875.535 1195.1 876.778 1193.03 876.156 1189.3C874.085 1176.46 862.073 1167.76 850.681 1168.18Z" fill="white"/>
<path d="M957.425 1241.08C960.532 1238.18 964.052 1240.87 962.603 1244.6C959.703 1251.64 950.383 1262 934.85 1262C917.867 1262 909.996 1251.44 909.996 1232.59V1226.38C909.996 1202.14 910.203 1182.88 910.825 1170.04H902.954C898.812 1170.04 897.155 1168.8 897.155 1165.9C897.155 1164.45 897.362 1163.41 899.019 1161.55C906.682 1152.85 914.346 1146.43 921.18 1141.25C924.287 1139.18 925.323 1139.18 926.772 1139.18C929.465 1139.18 930.293 1141.05 930.086 1144.15C929.672 1148.3 929.465 1152.23 929.258 1160.52H949.969C953.49 1160.52 956.389 1160.72 955.354 1165.69C954.318 1170.87 951.004 1171.29 947.484 1171.08L929.051 1170.46L928.222 1226.38C927.808 1240.25 930.293 1247.92 941.684 1247.92C947.276 1247.92 953.697 1244.4 957.425 1241.08Z" fill="white"/>
<path d="M1079.15 1230.1C1081.22 1230.93 1081.01 1233.63 1080.39 1237.15C1079.77 1242.32 1078.73 1246.05 1077.49 1250.19C1075.83 1256.41 1072.93 1259.93 1066.51 1259.93H996.923C992.367 1259.93 990.71 1257.03 993.402 1253.3L1054.5 1169.21H1031.93C1018.88 1169.21 1008.94 1174.6 1001.48 1184.33C999.201 1187.65 997.337 1189.72 994.438 1188.89C992.367 1188.06 991.745 1185.37 992.574 1181.85C993.402 1177.71 994.645 1173.98 995.888 1170.04C997.752 1163.83 1001.07 1160.52 1007.49 1160.52H1075C1079.35 1160.52 1081.22 1163.41 1078.53 1167.14L1017.43 1251.23H1042.07C1055.12 1251.23 1065.06 1245.85 1072.1 1234.87C1074.38 1231.55 1076.25 1229.28 1079.15 1230.1Z" fill="white"/>
<path d="M1171.9 1233.21C1175.42 1229.48 1179.98 1231.76 1177.91 1236.94C1173.56 1247.09 1157.82 1262 1131.72 1262C1102.72 1262 1083.26 1241.08 1083.26 1213.74C1083.26 1182.47 1105.21 1158.44 1135.86 1158.44C1158.44 1158.44 1173.56 1171.49 1177.28 1189.3C1178.11 1193.03 1177.28 1195.93 1172.52 1197.8C1150.15 1206.49 1128.2 1213.95 1104.17 1221.82C1108.11 1233.83 1119.91 1247.92 1139.18 1247.92C1153.05 1247.92 1164.44 1241.08 1171.9 1233.21ZM1129.44 1168.18C1110.8 1168.39 1101.48 1185.37 1101.48 1200.49C1101.48 1205.67 1101.69 1209.6 1102.72 1213.12C1119.71 1207.53 1135.86 1202.14 1150.98 1196.35C1154.29 1195.1 1155.54 1193.03 1154.92 1189.3C1152.84 1176.46 1140.83 1167.76 1129.44 1168.18Z" fill="white"/>
<path d="M1239.5 1158.44C1250.68 1158.44 1255.65 1165.49 1255.65 1172.73C1255.65 1178.12 1252.13 1183.09 1247.37 1183.3C1238.67 1183.5 1239.08 1174.39 1229.56 1174.39C1220.44 1174.39 1211.75 1187.23 1211.75 1205.46V1232.59C1211.75 1252.47 1221.27 1248.74 1221.27 1255.99C1221.27 1259.1 1218.37 1259.93 1213.19 1259.93H1191.03C1186.27 1259.93 1182.75 1259.1 1182.75 1255.79C1182.75 1248.74 1192.9 1252.47 1192.9 1232.59V1190.96C1192.9 1183.92 1192.07 1178.74 1186.48 1175.43C1184.2 1173.98 1182.75 1172.73 1182.75 1170.66C1182.75 1168.39 1183.79 1167.14 1188.76 1164.86C1195.8 1161.55 1202.84 1159.27 1205.74 1159.07C1208.43 1159.07 1209.88 1160.1 1209.88 1163.62L1209.67 1180.4C1216.09 1168.18 1227.28 1158.44 1239.5 1158.44Z" fill="white"/>
<path d="M1301.04 1262C1273.08 1262 1252.37 1243.36 1252.37 1213.95C1252.37 1182.68 1274.94 1158.44 1307.04 1158.44C1334.59 1158.44 1354.68 1179.78 1354.68 1207.74C1354.68 1238.39 1332.73 1262 1301.04 1262ZM1307.46 1252.06C1325.06 1252.06 1336.04 1237.98 1336.04 1218.09C1336.04 1192.2 1320.51 1169.01 1299.8 1169.01C1281.36 1169.01 1271.21 1184.33 1271.21 1204.01C1271.21 1231.14 1286.33 1252.06 1307.46 1252.06Z" fill="white"/>
<path d="M1375.06 1262C1368.85 1262 1363.46 1258.27 1363.46 1250.82C1363.46 1242.74 1370.09 1237.77 1376.3 1237.77C1382.31 1237.77 1387.9 1241.91 1387.9 1249.37C1387.9 1257.24 1381.69 1262 1375.06 1262Z" fill="white"/>
</svg>
