<svg width="505" height="113" viewBox="0 0 505 113" fill="none" xmlns="http://www.w3.org/2000/svg">
<path d="M215.954 65.21H204.654V94.1331C204.654 103.502 212.249 111.094 221.616 111.094H240.95V101.781H215.954V65.21Z" fill="#ACCF77"/>
<path d="M258.817 69.2971L243.283 111.094H253.831L257.529 101.233H279.581L283.28 111.094H294.443L277.253 65.21H264.696C262.074 65.21 259.73 66.8395 258.817 69.2971ZM260.884 92.1927L266.603 76.7588C266.994 75.7042 267.999 75.0027 269.125 75.0027H269.787L276.225 92.1927H260.884Z" fill="#ACCF77"/>
<path d="M333.181 96.098H331.673L312.498 65.2124H297.568V110.067C297.568 110.635 298.03 111.097 298.599 111.097H307.909V80.2112H309.486L328.661 111.097H343.591V67.1505C343.591 66.0804 342.722 65.2124 341.652 65.2124H333.181V96.098Z" fill="#ACCF77"/>
<path d="M349 74.5232H366.121V108.126C366.121 109.765 367.451 111.094 369.089 111.094H377.421V74.5232H390.737L394.543 65.21H349V74.5232Z" fill="#ACCF77"/>
<path d="M424.006 64.5952H421.713C404.934 64.5952 391.58 72.6763 391.58 87.0579V89.2491C391.58 103.768 404.934 111.712 421.713 111.712H424.006C440.442 111.712 453.522 103.768 453.522 89.2491V87.0579C453.522 72.6763 440.442 64.5952 424.006 64.5952ZM441.196 89.2491C441.196 97.1259 434.279 101.371 423.458 101.371H421.713C410.892 101.371 403.975 97.1237 403.975 89.2491V87.0579C403.975 79.2499 410.892 74.9363 421.713 74.9363H423.458C434.279 74.9363 441.196 79.2499 441.196 87.0579V89.2491Z" fill="#ACCF77"/>
<path d="M494.593 66.4112V96.098H493.085L473.909 65.2124H458.979V110.258C458.979 110.722 459.354 111.097 459.818 111.097H469.32V80.2112H470.896L490.071 111.097H505.001V65.2124H495.792C495.128 65.2124 494.591 65.7497 494.591 66.4135L494.593 66.4112Z" fill="#ACCF77"/>
<path d="M183.425 65.2661H158.223V110.793C158.223 110.991 158.383 111.151 158.58 111.151H169.523V96.0829H183.425C195.684 96.0829 200.615 90.8103 200.615 81.8389V79.4413C200.615 70.5388 195.684 65.2661 183.425 65.2661ZM189.177 81.5659C189.177 85.4022 186.917 86.772 182.466 86.772H169.523V74.5815H182.466C186.917 74.5815 189.177 76.0201 189.177 79.7188V81.5681V81.5659Z" fill="#ACCF77"/>
<path d="M103.58 112.138H91.831V109.696H103.58C106.952 109.696 109.696 106.854 109.696 103.362V8.77594C109.696 5.28377 106.952 2.44208 103.58 2.44208H8.55839C5.1861 2.44208 2.44208 5.28377 2.44208 8.77594V103.362C2.44208 106.854 5.1861 109.696 8.55839 109.696H21.4792V112.138H8.55839C3.83852 112.138 0 108.202 0 103.362V8.77594C0 3.93619 3.84074 0 8.55839 0H103.58C108.3 0 112.138 3.93619 112.138 8.77594V103.362C112.138 108.202 108.297 112.138 103.58 112.138Z" fill="#ACCF77"/>
<path d="M63.8545 112.138H68.0726L72.1043 48.6374C71.1319 47.8626 69.7777 46.7281 68.0904 45.4116L63.8545 112.14V112.138Z" fill="#ACCF77"/>
<path d="M58.3416 38.7672C56.7786 37.868 55.1202 37 53.3819 36.1963V110.114L51.002 35.1662C49.2703 34.4647 47.4698 33.8408 45.605 33.328L47.6852 98.829L43.4937 32.7996C41.6199 32.3822 39.6907 32.0848 37.7171 31.9382L41.2337 87.3335L35.9499 31.8494C35.4637 31.8361 34.9775 31.8294 34.4869 31.8361C32.8618 31.8583 31.3277 32.0093 29.8758 32.2646L34.0029 75.5893L28.5371 32.5377C26.2482 33.0616 24.1791 33.8497 22.3142 34.8221L25.9662 63.5743L21.475 35.2794C19.0751 36.6448 17.0327 38.3054 15.3121 40.0548L17.0882 51.2462L15.0146 40.359C13.3717 42.0751 12.0309 43.8645 10.9564 45.5362C8.44989 49.4368 7.62398 54.1811 8.63633 58.7056L20.6092 112.134H58.3438V38.7627L58.3416 38.7672Z" fill="#ACCF77"/>
<path d="M74.2305 112.138H77.7182L84.818 56.2256C83.6524 55.7461 82.5535 55.231 81.5234 54.7026L74.2305 112.136V112.138Z" fill="#ACCF77"/>
<path d="M78.5356 53.0353C77.1392 52.1917 75.927 51.3747 74.908 50.6665L69.0537 112.138H72.9055L78.5334 53.0353H78.5356Z" fill="#ACCF77"/>
<path d="M58.6302 112.138H63.2168L65.3991 43.3762C64.0405 42.3838 62.5375 41.347 60.9079 40.3169L58.6279 112.138H58.6302Z" fill="#ACCF77"/>
<path d="M96.0978 58.9252C95.6182 58.8919 95.1453 58.8453 94.6769 58.792L84.5156 112.138H87.273L97.4032 58.9518C96.988 58.9629 96.5529 58.9585 96.0956 58.9274L96.0978 58.9252Z" fill="#ACCF77"/>
<path d="M79.3848 112.138H82.5084L91.0712 58.1969C90.0366 57.9682 89.0398 57.6996 88.0741 57.3999L79.3848 112.138Z" fill="#ACCF77"/>
<path d="M102.255 57.4713L90.1064 112.138H92.4975L105.452 53.8438C104.972 54.8761 104.015 56.3924 102.255 57.4713Z" fill="#ACCF77"/>
<path d="M72.5381 34.7197L73.324 45.0297C73.3506 45.0475 73.3773 45.0674 73.4039 45.0852C74.2542 45.6757 75.3753 46.4905 76.7473 47.3963L75.7683 34.5576C74.6871 34.5798 73.6104 34.6331 72.5403 34.7197H72.5381Z" fill="#ACCF77"/>
<path d="M67.0898 35.4082L67.5583 40.4567C68.7904 41.398 69.8694 42.2683 70.7774 43.0053L70.0337 34.9775C69.0435 35.0996 68.0622 35.2417 67.0898 35.4082Z" fill="#ACCF77"/>
<path d="M61.9316 36.487C62.8841 37.0997 63.7876 37.7147 64.6446 38.3163L64.3848 35.9253C63.5567 36.1007 62.7375 36.2872 61.9339 36.487H61.9316Z" fill="#ACCF77"/>
<path d="M78.0566 34.5576L78.9047 48.7572C80.0014 49.4143 81.2069 50.0826 82.5212 50.722L81.5688 34.7818C80.3988 34.662 79.2266 34.5865 78.0566 34.5576Z" fill="#ACCF77"/>
<path d="M100.279 41.4263L100.197 53.9919C102.677 53.166 104.047 51.4743 104.759 50.1845L104.782 46.7633C104.098 45.4024 102.775 43.4177 100.277 41.4285L100.279 41.4263Z" fill="#ACCF77"/>
<path d="M99.2119 54.2584L99.0721 40.5295C97.871 39.6992 96.4501 38.8844 94.7695 38.1318L94.9338 54.3583C95.2912 54.3961 95.6531 54.4272 96.0195 54.4516C97.2272 54.536 98.2839 54.4516 99.2097 54.2562L99.2119 54.2584Z" fill="#ACCF77"/>
<path d="M83.6204 35.0352L84.3352 51.5503C85.5363 52.0653 86.8084 52.5449 88.1538 52.9622L87.4078 35.7434C86.2223 35.477 84.9635 35.2372 83.6182 35.0352H83.6204Z" fill="#ACCF77"/>
<path d="M93.2557 37.502C92.0303 37.0247 90.6827 36.5807 89.2041 36.1855L89.6636 53.3955C90.9535 53.7352 92.2989 54.0127 93.702 54.2103L93.2557 37.5043V37.502Z" fill="#ACCF77"/>
</svg>
