<svg width="257" height="210" viewBox="0 0 257 210" fill="none" xmlns="http://www.w3.org/2000/svg">
<path d="M42.7018 175.007H34.3438V196.4C34.3438 203.329 39.9612 208.945 46.8891 208.945H61.1897V202.056H42.7018V175.007Z" fill="#145559"/>
<path d="M74.4035 178.03L62.9141 208.945H70.7155L73.4511 201.651H89.7617L92.4973 208.945H100.754L88.0392 175.007H78.7517C76.8124 175.007 75.0784 176.212 74.4035 178.03ZM75.9306 194.964L80.1606 183.549C80.4496 182.769 81.1934 182.25 82.0259 182.25H82.5153L87.2772 194.964H75.9306Z" fill="#145559"/>
<path d="M129.407 197.851H128.292L114.109 175.007H103.066V208.183C103.066 208.603 103.408 208.945 103.828 208.945H110.715V186.101H111.881L126.063 208.945H137.106V176.44C137.106 175.649 136.464 175.007 135.673 175.007H129.407V197.851Z" fill="#145559"/>
<path d="M141.105 181.895H153.769V206.749C153.769 207.961 154.753 208.945 155.964 208.945H162.127V181.895H171.976L174.791 175.007H141.105V181.895Z" fill="#145559"/>
<path d="M196.585 174.55H194.889C182.479 174.55 172.602 180.527 172.602 191.165V192.785C172.602 203.524 182.479 209.4 194.889 209.4H196.585C208.742 209.4 218.417 203.524 218.417 192.785V191.165C218.417 180.527 208.742 174.55 196.585 174.55ZM209.298 192.787C209.298 198.613 204.182 201.753 196.178 201.753H194.888C186.884 201.753 181.768 198.611 181.768 192.787V191.166C181.768 185.391 186.884 182.201 194.888 182.201H196.178C204.182 182.201 209.298 185.391 209.298 191.166V192.787Z" fill="#145559"/>
<path d="M248.793 175.895V197.853H247.678L233.494 175.008H222.451V208.326C222.451 208.669 222.729 208.946 223.072 208.946H230.1V186.102H231.266L245.448 208.946H256.491V175.008H249.68C249.189 175.008 248.791 175.406 248.791 175.897L248.793 175.895Z" fill="#145559"/>
<path d="M18.6406 175.007H0V208.68C0 208.827 0.118231 208.945 0.264373 208.945H8.35806V197.8H18.6406C27.708 197.8 31.355 193.9 31.355 187.265V185.491C31.355 178.907 27.708 175.007 18.6406 175.007ZM22.8952 187.063C22.8952 189.9 21.2236 190.913 17.9312 190.913H8.35806V181.897H17.9312C21.2236 181.897 22.8952 182.961 22.8952 185.697V187.064V187.063Z" fill="#145559"/>
<path d="M183.898 0H74.1018C68.5227 0 64 4.50416 64 10.0604V118.933C64 124.489 68.5227 128.993 74.1018 128.993H87.7839L74.0094 67.7828C72.8341 62.5602 73.7915 57.0813 76.6983 52.5787C77.9445 50.6488 79.4994 48.5825 81.4025 46.6017L83.8075 59.1723L81.7475 46.2515C83.7431 44.2296 86.1101 42.3128 88.8931 40.7364L94.0992 73.4031L89.867 40.2087C92.0276 39.086 94.4276 38.1736 97.0802 37.5704L103.417 87.274L98.6334 37.2563C100.317 36.9621 102.096 36.7878 103.98 36.7632C104.548 36.7566 105.112 36.7632 105.675 36.778L111.8 100.836L107.723 36.8815C110.013 37.0509 112.248 37.3928 114.42 37.8744L119.279 114.105L116.87 38.4827C119.03 39.0744 121.118 39.7961 123.125 40.6065L125.884 127.136V41.7967C127.901 42.7222 129.822 43.7266 131.634 44.7638V128.998H131.984L134.612 46.554C136.5 47.7425 138.242 48.9409 139.818 50.085L137.303 128.998H138.055L142.936 52.4341C144.892 53.9563 146.464 55.2648 147.589 56.1591L142.946 128.998H144.1L150.841 58.5015C152.021 59.3202 153.428 60.2638 155.045 61.2369L148.565 128.998H150.115L158.508 63.1635C159.703 63.7734 160.976 64.3685 162.328 64.9208L154.157 128.998H156.105L166.101 66.2754C167.219 66.6222 168.376 66.9329 169.576 67.1959L159.726 128.998H162.07L173.758 67.8847C174.301 67.9455 174.849 67.9998 175.406 68.0376C175.936 68.0737 176.439 68.0803 176.921 68.0671L165.268 128.998H168.564L182.541 66.3575C184.583 65.1115 185.691 63.3624 186.247 62.1707L171.335 129H183.898C189.477 129 194 124.496 194 118.94V10.067C194 4.51074 189.477 0.00658185 183.898 0.00658185V0ZM135.799 42.1255C136.733 41.8953 137.681 41.68 138.641 41.4778L138.943 44.2394C137.951 43.5441 136.902 42.8356 135.799 42.1271V42.1255ZM142.319 46.7085L141.777 40.8794C142.903 40.6887 144.042 40.5227 145.189 40.383L146.051 49.6511C144.998 48.7995 143.748 47.7968 142.319 46.7085ZM149.096 52.0543C149.067 52.0346 149.035 52.0116 149.006 51.9903L148.094 40.0871C149.336 39.9868 150.585 39.926 151.838 39.8997L152.972 54.7223C151.382 53.6768 150.082 52.7349 149.096 52.0543ZM155.474 56.2922L154.491 39.898C155.849 39.9309 157.208 40.0181 158.563 40.1561L159.667 58.5591C158.143 57.821 156.745 57.05 155.474 56.2922ZM161.772 59.5174L160.943 40.4504C162.501 40.6838 163.962 40.96 165.335 41.2674L166.2 61.1482C164.64 60.6665 163.165 60.1125 161.773 59.5174H161.772ZM167.948 61.6463L167.415 41.777C169.13 42.2339 170.692 42.7468 172.113 43.2975L172.631 62.5849C171.005 62.3581 169.444 62.0375 167.948 61.6446V61.6463ZM175.317 62.8693C174.894 62.8397 174.475 62.8035 174.059 62.7608L173.867 44.0274C175.815 44.897 177.462 45.8373 178.854 46.7957L179.016 62.6457C177.941 62.8726 176.715 62.9679 175.317 62.8709V62.8693ZM185.45 57.9394C184.621 59.4271 183.033 61.3816 180.16 62.335L180.254 47.828C183.147 50.1261 184.684 52.4176 185.475 53.9892L185.448 57.9394H185.45Z" fill="#145559"/>
</svg>
