<svg width="205" height="248" viewBox="0 0 205 248" fill="none" xmlns="http://www.w3.org/2000/svg">
<path d="M34.1489 220.523H27.4727V237.612C27.4727 243.147 31.9589 247.633 37.494 247.633H48.9173V242.13H34.1489V220.523Z" fill="#ACCF77"/>
<path d="M59.472 222.938L50.2949 247.633H56.526L58.71 241.807H71.7396L73.9255 247.633H80.5215L70.3658 220.523H62.9475C61.3993 220.523 60.0135 221.486 59.474 222.938H59.472ZM60.6934 236.464L64.0726 227.346C64.3032 226.722 64.8989 226.309 65.5627 226.309H65.9537L69.7561 236.464H60.6934Z" fill="#ACCF77"/>
<path d="M103.407 238.771H102.516L91.1873 220.523H82.3672V247.023C82.3672 247.36 82.6399 247.633 82.9768 247.633H88.4779V229.385H89.4084L100.737 247.633H109.557V221.668C109.557 221.036 109.044 220.523 108.412 220.523H103.407V238.771Z" fill="#ACCF77"/>
<path d="M112.754 226.026H122.87V245.878C122.87 246.846 123.656 247.631 124.622 247.631H129.544V226.024H137.411L139.659 220.521H112.752V226.024L112.754 226.026Z" fill="#ACCF77"/>
<path d="M157.07 220.16H155.717C145.804 220.16 137.914 224.935 137.914 233.432V234.728C137.914 243.305 145.804 248 155.717 248H157.07C166.781 248 174.51 243.307 174.51 234.728V233.432C174.51 224.935 166.781 220.16 157.07 220.16ZM167.226 234.726C167.226 239.379 163.139 241.888 156.746 241.888H155.715C149.321 241.888 145.234 239.379 145.234 234.726V233.43C145.234 228.818 149.321 226.269 155.715 226.269H156.746C163.139 226.269 167.226 228.818 167.226 233.43V234.726Z" fill="#ACCF77"/>
<path d="M198.774 221.233V238.773H197.883L186.554 220.525H177.734V247.138C177.734 247.412 177.957 247.633 178.23 247.633H183.843V229.385H184.774L196.103 247.633H204.923V220.523H199.482C199.091 220.523 198.772 220.84 198.772 221.233H198.774Z" fill="#ACCF77"/>
<path d="M14.9278 220.523H0.0371094V247.42C0.0371094 247.537 0.131377 247.631 0.247695 247.631H6.71337V238.729H14.9278C22.1696 238.729 25.0835 235.614 25.0835 230.314V228.898C25.0835 223.637 22.1696 220.523 14.9278 220.523ZM18.3271 230.153C18.3271 232.419 16.9914 233.228 14.3622 233.228H6.71537V226.026H14.3622C16.9914 226.026 18.3271 226.876 18.3271 229.06V230.153Z" fill="#ACCF77"/>
<path d="M188.822 0.00195848H15.9075C7.12148 0.00195848 0 7.12349 0 15.9095V188.074C0 196.86 7.12148 203.982 15.9075 203.982H37.4564L15.7651 107.187C13.9141 98.9283 15.4222 90.2647 19.9987 83.1433C21.9601 80.0909 24.4087 76.826 27.4069 73.6934L31.1933 93.5718L27.9504 73.1379C31.095 69.9412 34.8212 66.9109 39.2032 64.4181L47.4016 116.075L40.7354 63.5837C44.1387 61.8089 47.917 60.367 52.0964 59.4124L62.0777 138.011L54.5451 58.915C57.1984 58.4498 60 58.173 62.9641 58.1349C63.8586 58.1228 64.747 58.1348 65.6334 58.1569L75.2798 159.452L68.8582 58.3194C72.4641 58.5861 75.9837 59.1276 79.4051 59.8897L87.058 180.435L83.2616 60.8503C86.6629 61.7869 89.9539 62.926 93.1146 64.2075L97.4584 201.039V66.0886C100.635 67.5526 103.661 69.1409 106.515 70.7794V203.982H107.067L111.206 73.6092C114.18 75.4883 116.922 77.3835 119.404 79.1924L115.444 203.979H116.631L124.318 82.9046C127.398 85.3112 129.871 87.3808 131.646 88.7946L124.332 203.979H126.149L136.766 92.4988C138.623 93.7924 140.839 95.2864 143.386 96.8246L133.182 203.979H135.625L148.845 99.873C150.726 100.838 152.731 101.778 154.859 102.653L141.992 203.979H145.058L160.801 104.794C162.562 105.342 164.385 105.833 166.273 106.25L150.76 203.979H154.45L172.858 107.337C173.715 107.434 174.575 107.518 175.454 107.58C176.288 107.638 177.08 107.648 177.84 107.626L159.488 203.979H164.68L186.692 104.923C189.907 102.953 191.654 100.188 192.53 98.3007L169.046 203.979H188.83C197.616 203.979 204.738 196.858 204.738 188.072V15.9074C204.738 7.12143 197.616 0 188.83 0L188.822 0.00195848ZM113.071 66.6161C114.541 66.2531 116.035 65.9102 117.547 65.5913L118.023 69.9572C116.46 68.8562 114.808 67.7351 113.071 66.6161ZM123.341 73.8639L122.487 64.6467C124.26 64.3439 126.053 64.0831 127.86 63.8605L129.217 78.5166C127.559 77.1689 125.589 75.5846 123.339 73.8639H123.341ZM134.012 82.3149C133.966 82.2828 133.916 82.2468 133.868 82.2127L132.432 63.3893C134.387 63.2328 136.355 63.1365 138.326 63.0944L140.113 86.5345C137.61 84.8799 135.561 83.3919 134.01 82.3149H134.012ZM144.058 89.0193L142.508 63.0944C144.645 63.1466 146.785 63.285 148.921 63.5036L150.662 92.6051C148.263 91.4379 146.061 90.2186 144.058 89.0193ZM153.975 94.1193L152.669 63.9688C155.122 64.3378 157.422 64.7731 159.586 65.2604L160.948 96.6983C158.491 95.9362 156.167 95.0618 153.975 94.1193ZM163.701 97.4844L162.861 66.0646C165.563 66.7885 168.021 67.5988 170.259 68.4692L171.076 98.9705C168.515 98.6115 166.056 98.1041 163.701 97.4844ZM175.307 99.4197C174.641 99.3736 173.982 99.3154 173.326 99.2472L173.025 69.6243C176.093 70.998 178.686 72.4861 180.878 74.0002L181.133 99.0647C179.44 99.4237 177.511 99.5741 175.307 99.4197ZM191.265 91.6224C189.961 93.9748 187.46 97.0673 182.934 98.5734L183.082 75.6327C187.639 79.2666 190.057 82.8905 191.305 85.3753L191.265 91.6224Z" fill="#ACCF77"/>
</svg>
