<svg width="656" height="654" viewBox="0 0 656 654" fill="none" xmlns="http://www.w3.org/2000/svg">
<path d="M604.721 0C632.858 4.69737e-05 655.663 22.8066 655.663 50.9434V602.293C655.663 630.43 632.857 653.236 604.721 653.236H541.362L616.57 314.804C613.764 320.847 608.169 329.704 597.874 336.011L527.381 653.236H510.754L569.525 344.668C567.091 344.739 564.554 344.707 561.883 344.521C559.07 344.321 556.315 344.051 553.572 343.743L494.62 653.236H482.803L532.48 340.263C526.437 338.927 520.599 337.353 514.96 335.6L464.544 653.236H454.724L495.931 328.74C489.116 325.94 482.693 322.928 476.669 319.839L434.332 653.236H426.51L459.188 310.077C451.031 305.151 443.934 300.366 437.986 296.224L403.986 653.236H398.167L421.59 284.361C415.906 279.833 407.987 273.205 398.122 265.498L373.505 653.236H369.703L382.388 253.61C374.437 247.817 365.657 241.748 356.133 235.73L342.876 653.242H341.11V226.668C331.971 221.421 322.28 216.335 312.106 211.646V643.82L298.195 205.622C288.074 201.518 277.534 197.869 266.642 194.87L278.8 577.836L254.291 191.794C243.334 189.353 232.063 187.62 220.516 186.766L241.08 510.638L210.188 186.245C207.35 186.174 204.504 186.136 201.64 186.175C192.147 186.297 183.175 187.183 174.679 188.673L198.801 441.975L166.837 190.266C153.452 193.323 141.352 197.941 130.453 203.625L151.802 371.727L125.547 206.296C111.514 214.279 99.5802 223.983 89.5098 234.221L99.8955 299.659L87.7695 236C78.1679 246.032 70.3261 256.488 64.0449 266.263C49.3889 289.069 44.5594 316.814 50.4873 343.262L119.952 653.242H50.9434C22.8065 653.242 0 630.436 0 602.299V50.9492C0.000147773 22.8125 22.8066 0.00683594 50.9434 0.00683594H604.695L604.721 0ZM555.068 317.829C557.169 318.047 559.282 318.233 561.414 318.381C568.472 318.875 574.651 318.394 580.071 317.244L579.255 236.977C572.235 232.128 563.932 227.362 554.105 222.963L555.068 317.829ZM524.247 312.184C531.787 314.168 539.661 315.793 547.862 316.942L545.248 219.263C538.081 216.475 530.207 213.881 521.556 211.562L524.247 312.184ZM585.838 315.677C600.333 310.853 608.343 300.951 612.518 293.417L612.646 273.411C608.651 265.454 600.905 253.848 586.313 242.211L585.838 315.677ZM493.098 301.406C500.117 304.425 507.561 307.225 515.429 309.666L511.068 208.987C504.139 207.427 496.772 206.032 488.917 204.851L493.098 301.406ZM461.339 285.074C467.755 288.915 474.807 292.82 482.488 296.558L476.913 203.361C470.073 202.661 463.22 202.218 456.374 202.051L461.339 285.074ZM442.983 202.058C436.67 202.192 430.369 202.5 424.107 203.001L428.706 263.282C428.86 263.391 429.021 263.508 429.169 263.61H429.162C434.127 267.059 440.691 271.825 448.706 277.123L442.983 202.058ZM409.465 204.504C403.678 205.217 397.936 206.053 392.259 207.022L394.995 236.54H394.988C402.194 242.05 408.501 247.124 413.812 251.439L409.465 204.504ZM376.44 210.054C371.598 211.075 366.813 212.173 362.105 213.335C367.667 216.919 372.959 220.509 377.962 224.035L376.44 210.054ZM453.429 57.9395C430.109 57.9395 411.547 69.1725 411.547 89.1592V92.2031C411.547 112.383 430.109 123.423 453.429 123.423H456.613C479.458 123.423 497.641 112.383 497.641 92.2031V89.1592C497.641 69.1725 479.458 57.9395 456.613 57.9395H453.429ZM151.74 98.9893C151.74 112.008 162.293 122.566 175.317 122.566H202.188V109.619H167.45V58.791H151.74V98.9893ZM280.878 121.135C280.878 121.925 281.52 122.566 282.31 122.566H295.251V79.6387H297.441L324.095 122.566H344.846V61.4893C344.846 59.9992 343.637 58.791 342.147 58.791H330.375V101.719H328.282L301.629 58.791H280.878V121.135ZM352.351 71.7393H376.152V118.443C376.152 120.723 378.003 122.566 380.276 122.566H391.855V71.7393H410.365L415.651 58.791H352.351V71.7393ZM505.217 121.397C505.217 122.04 505.737 122.566 506.386 122.566H519.591V79.6387H521.78L548.434 122.566H569.185V58.791H556.385C555.466 58.791 554.715 59.5363 554.715 60.4609V101.719H552.621L525.968 58.791H505.217V121.397ZM235.182 58.7852C231.54 58.7853 228.278 61.0526 227.013 64.4629L227.019 64.4688L205.427 122.561H220.083L225.221 108.854H255.868L261.007 122.561H276.523L252.632 58.7852H235.182ZM122.225 58.79H87.1963V122.064C87.1964 122.341 87.4217 122.559 87.6914 122.559H102.899V101.615H122.225C139.263 101.615 146.116 94.2869 146.116 81.8145V78.4814C146.116 66.1054 139.263 58.7773 122.225 58.7773V58.79ZM455.85 72.3125C470.891 72.3125 480.505 78.3117 480.505 89.1592V92.2031C480.505 103.147 470.891 109.049 455.85 109.049H453.422C438.38 109.049 428.766 103.147 428.766 92.2031V89.1592C428.766 78.3052 438.38 72.3125 453.422 72.3125H455.85ZM251.212 96.292H229.89L237.841 74.8408C238.387 73.3767 239.781 72.4004 241.348 72.4004H242.266L251.212 96.292ZM120.896 71.7314C127.08 71.7315 130.221 73.7288 130.221 78.873V81.4424C130.221 86.7728 127.08 88.6738 120.896 88.6738H102.906V71.7314H120.896Z" fill="#ACCF77"/>
</svg>
